Merienda-Regular.otf.ufo
<glyph name="quotedbl" format="1">
  <advance width="403"/>
  <unicode hex="0022"/>
  <outline>
    <contour>
      <point x="208" y="762" type="curve" smooth="yes"/>
      <point x="208" y="820"/>
      <point x="148" y="827"/>
      <point x="112" y="827" type="curve"/>
      <point x="116" y="813" smooth="yes"/>
      <point x="118" y="800" smooth="yes"/>
      <point x="118" y="788" type="curve" smooth="yes"/>
      <point x="118" y="727" smooth="yes"/>
      <point x="85" y="683" smooth="yes"/>
      <point x="85" y="625" type="curve" smooth="yes" name="hr01"/>
      <point x="85" y="581"/>
      <point x="99" y="540"/>
      <point x="170" y="540" type="curve"/>
      <point x="166" y="558" smooth="yes"/>
      <point x="164" y="575" smooth="yes"/>
      <point x="164" y="591" type="curve" smooth="yes"/>
      <point x="164" y="670" smooth="yes"/>
      <point x="208" y="715" smooth="yes"/>
    </contour>
    <contour>
      <point x="388" y="762" type="curve" smooth="yes"/>
      <point x="388" y="820"/>
      <point x="328" y="827"/>
      <point x="292" y="827" type="curve"/>
      <point x="296" y="813" smooth="yes"/>
      <point x="298" y="800" smooth="yes"/>
      <point x="298" y="788" type="curve" smooth="yes"/>
      <point x="298" y="727" smooth="yes"/>
      <point x="265" y="683" smooth="yes"/>
      <point x="265" y="625" type="curve" smooth="yes" name="hr03"/>
      <point x="265" y="581"/>
      <point x="279" y="540"/>
      <point x="350" y="540" type="curve"/>
      <point x="346" y="558" smooth="yes"/>
      <point x="344" y="575" smooth="yes"/>
      <point x="344" y="591" type="curve" smooth="yes"/>
      <point x="344" y="670" smooth="yes"/>
      <point x="388" y="715" smooth="yes"/>
    </contour>
  </outline>
</glyph>
<glyph name="quotesingle" format="1">
  <advance width="223"/>
  <unicode hex="0027"/>
  <outline>
    <contour>
      <point x="208" y="762" type="curve" smooth="yes"/>
      <point x="208" y="820"/>
      <point x="148" y="827"/>
      <point x="112" y="827" type="curve"/>
      <point x="116" y="813" smooth="yes"/>
      <point x="118" y="800" smooth="yes"/>
      <point x="118" y="788" type="curve" smooth="yes"/>
      <point x="118" y="727" smooth="yes"/>
      <point x="85" y="683" smooth="yes"/>
      <point x="85" y="625" type="curve" smooth="yes" name="hr01"/>
      <point x="85" y="581"/>
      <point x="99" y="540"/>
      <point x="170" y="540" type="curve"/>
      <point x="166" y="558" smooth="yes"/>
      <point x="164" y="575" smooth="yes"/>
      <point x="164" y="591" type="curve" smooth="yes"/>
      <point x="164" y="670" smooth="yes"/>
      <point x="208" y="715" smooth="yes"/>
    </contour>
  </outline>
</glyph>
<glyph name="parenleft" format="1">
  <advance width="359"/>
  <unicode hex="0028"/>
  <outline>
    <contour>
      <point x="379" y="765" type="curve" smooth="yes" name="hr00"/>
      <point x="379" y="774"/>
      <point x="372" y="784"/>
      <point x="361" y="787" type="curve"/>
      <point x="160" y="688" smooth="yes"/>
      <point x="65" y="505" smooth="yes"/>
      <point x="65" y="287" type="curve" smooth="yes"/>
      <point x="65" y="96"/>
      <point x="141" y="-49"/>
      <point x="310" y="-143" type="curve"/>
      <point x="321" y="-140"/>
      <point x="330" y="-130"/>
      <point x="332" y="-121" type="curve"/>
      <point x="271" y="-74" smooth="yes"/>
      <point x="174" y="75" smooth="yes"/>
      <point x="174" y="282" type="curve" smooth="yes"/>
      <point x="174" y="451" smooth="yes"/>
      <point x="237" y="660" smooth="yes"/>
    </contour>
  </outline>
</glyph>
<glyph name="parenright" format="1">
  <advance width="359"/>
  <unicode hex="0029"/>
  <outline>
    <contour>
      <point x="-35" y="-121" type="curve" name="hr00"/>
      <point x="-35" y="-130"/>
      <point x="-28" y="-140"/>
      <point x="-17" y="-143" type="curve"/>
      <point x="184" y="-44" smooth="yes"/>
      <point x="279" y="139" smooth="yes"/>
      <point x="279" y="357" type="curve" smooth="yes"/>
      <point x="279" y="548"/>
      <point x="203" y="693"/>
      <point x="34" y="787" type="curve"/>
      <point x="23" y="784"/>
      <point x="14" y="774"/>
      <point x="12" y="765" type="curve"/>
      <point x="73" y="718" smooth="yes"/>
      <point x="170" y="569" smooth="yes"/>
      <point x="170" y="362" type="curve" smooth="yes"/>
      <point x="170" y="193"/>
      <point x="107" y="-16"/>
    </contour>
  </outline>
</glyph>
<glyph name="asterisk" format="1">
  <advance width="522"/>
  <unicode hex="002A"/>
  <outline>
    <contour>
      <point x="416" y="573" type="curve" name="hr00"/>
      <point x="453" y="594" smooth="yes"/>
      <point x="470" y="624" smooth="yes"/>
      <point x="470" y="643" type="curve" smooth="yes"/>
      <point x="470" y="686"/>
      <point x="366" y="718"/>
      <point x="332" y="727" type="curve"/>
      <point x="357" y="746"/>
      <point x="415" y="774"/>
      <point x="458" y="782" type="curve"/>
      <point x="447" y="839" smooth="yes"/>
      <point x="414" y="870" smooth="yes"/>
      <point x="396" y="870" type="curve" smooth="yes"/>
      <point x="361" y="870"/>
      <point x="308" y="796"/>
      <point x="288" y="760" type="curve"/>
      <point x="279" y="782" smooth="yes"/>
      <point x="273" y="829" smooth="yes"/>
      <point x="273" y="854" type="curve" smooth="yes"/>
      <point x="273" y="859"/>
      <point x="274" y="873"/>
      <point x="277" y="893" type="curve"/>
      <point x="267" y="894" smooth="yes"/>
      <point x="254" y="895" smooth="yes"/>
      <point x="245" y="895" type="curve" smooth="yes"/>
      <point x="212" y="895" smooth="yes"/>
      <point x="173" y="886" smooth="yes"/>
      <point x="173" y="847" type="curve" smooth="yes"/>
      <point x="173" y="812"/>
      <point x="216" y="752"/>
      <point x="241" y="726" type="curve"/>
      <point x="207" y="726"/>
      <point x="147" y="738"/>
      <point x="110" y="754" type="curve"/>
      <point x="97" y="729" smooth="yes"/>
      <point x="92" y="708" smooth="yes"/>
      <point x="92" y="691" type="curve" smooth="yes"/>
      <point x="92" y="657" smooth="yes"/>
      <point x="111" y="637" smooth="yes"/>
      <point x="149" y="637" type="curve" smooth="yes"/>
      <point x="177" y="637"/>
      <point x="233" y="659"/>
      <point x="260" y="671" type="curve"/>
      <point x="250" y="642"/>
      <point x="220" y="582"/>
      <point x="195" y="556" type="curve"/>
      <point x="225" y="528" smooth="yes"/>
      <point x="255" y="515" smooth="yes"/>
      <point x="271" y="515" type="curve" smooth="yes"/>
      <point x="315" y="515" smooth="yes"/>
      <point x="324" y="567" smooth="yes"/>
      <point x="324" y="614" type="curve" smooth="yes"/>
      <point x="324" y="627"/>
      <point x="318" y="662"/>
      <point x="318" y="673" type="curve"/>
      <point x="340" y="656"/>
      <point x="384" y="606"/>
    </contour>
  </outline>
</glyph>
<glyph name="plus" format="1">
  <advance width="620"/>
  <unicode hex="002B"/>
  <outline>
    <contour>
      <point x="456" y="409" type="curve" smooth="yes" name="hr00"/>
      <point x="420" y="409"/>
      <point x="388" y="407"/>
      <point x="358" y="405" type="curve"/>
      <point x="359" y="472"/>
      <point x="363" y="537"/>
      <point x="376" y="601" type="curve"/>
      <point x="365" y="603" smooth="yes"/>
      <point x="352" y="603" smooth="yes"/>
      <point x="342" y="603" type="curve" smooth="yes"/>
      <point x="291" y="603" smooth="yes"/>
      <point x="272" y="573" smooth="yes"/>
      <point x="267" y="505" type="curve" smooth="yes"/>
      <point x="264" y="468"/>
      <point x="263" y="433"/>
      <point x="263" y="399" type="curve"/>
      <point x="248" y="398" smooth="yes"/>
      <point x="234" y="398" smooth="yes"/>
      <point x="219" y="398" type="curve" smooth="yes"/>
      <point x="165" y="398"/>
      <point x="107" y="400"/>
      <point x="61" y="406" type="curve"/>
      <point x="61" y="400" smooth="yes"/>
      <point x="60" y="394" smooth="yes"/>
      <point x="60" y="388" type="curve" smooth="yes"/>
      <point x="60" y="340" smooth="yes"/>
      <point x="73" y="304" smooth="yes"/>
      <point x="164" y="304" type="curve" smooth="yes"/>
      <point x="199" y="304"/>
      <point x="231" y="305"/>
      <point x="261" y="307" type="curve"/>
      <point x="259" y="240"/>
      <point x="256" y="175"/>
      <point x="243" y="111" type="curve"/>
      <point x="256" y="109" smooth="yes"/>
      <point x="268" y="109" smooth="yes"/>
      <point x="278" y="109" type="curve" smooth="yes"/>
      <point x="329" y="109" smooth="yes"/>
      <point x="347" y="140" smooth="yes"/>
      <point x="352" y="207" type="curve" smooth="yes"/>
      <point x="354" y="244"/>
      <point x="355" y="279"/>
      <point x="356" y="314" type="curve"/>
      <point x="371" y="314" smooth="yes"/>
      <point x="386" y="315" smooth="yes"/>
      <point x="401" y="315" type="curve" smooth="yes"/>
      <point x="455" y="315"/>
      <point x="513" y="313"/>
      <point x="559" y="307" type="curve"/>
      <point x="559" y="313" smooth="yes"/>
      <point x="560" y="319" smooth="yes"/>
      <point x="560" y="325" type="curve" smooth="yes"/>
      <point x="560" y="373" smooth="yes"/>
      <point x="547" y="409" smooth="yes"/>
    </contour>
  </outline>
</glyph>
<glyph name="period" format="1">
  <advance width="208"/>
  <unicode hex="002E"/>
  <outline>
    <contour>
      <point x="165" y="-1" type="curve" name="hr00"/>
      <point x="173" y="23" smooth="yes"/>
      <point x="183" y="47" smooth="yes"/>
      <point x="183" y="72" type="curve" smooth="yes"/>
      <point x="183" y="114" smooth="yes"/>
      <point x="149" y="126" smooth="yes"/>
      <point x="118" y="126" type="curve" smooth="yes"/>
      <point x="98" y="126"/>
      <point x="76" y="122"/>
      <point x="58" y="116" type="curve"/>
      <point x="50" y="92" smooth="yes"/>
      <point x="40" y="68" smooth="yes"/>
      <point x="40" y="43" type="curve" smooth="yes"/>
      <point x="40" y="1" smooth="yes"/>
      <point x="74" y="-11" smooth="yes"/>
      <point x="105" y="-11" type="curve" smooth="yes"/>
      <point x="125" y="-11"/>
      <point x="147" y="-7"/>
    </contour>
  </outline>
</glyph>
<glyph name="zero" format="1">
  <advance width="644"/>
  <unicode hex="0030"/>
  <outline>
    <contour>
      <point x="360" y="632" type="curve" smooth="yes"/>
      <point x="421" y="632" smooth="yes"/>
      <point x="477" y="567" smooth="yes"/>
      <point x="477" y="380" type="curve" smooth="yes"/>
      <point x="477" y="215" smooth="yes"/>
      <point x="415" y="46" smooth="yes"/>
      <point x="301" y="46" type="curve" smooth="yes"/>
      <point x="207" y="46" smooth="yes"/>
      <point x="164" y="163" smooth="yes"/>
      <point x="164" y="299" type="curve" smooth="yes"/>
      <point x="164" y="458" smooth="yes"/>
      <point x="251" y="632" smooth="yes"/>
    </contour>
    <contour>
      <point x="318" y="668" type="curve"/>
      <point x="317" y="695"/>
      <point x="308" y="710"/>
      <point x="292" y="710" type="curve" name="hr01"/>
      <point x="152" y="669" smooth="yes"/>
      <point x="60" y="504" smooth="yes"/>
      <point x="60" y="301" type="curve" smooth="yes"/>
      <point x="60" y="76" smooth="yes"/>
      <point x="172" y="-23" smooth="yes"/>
      <point x="279" y="-23" type="curve" smooth="yes"/>
      <point x="493" y="-23" smooth="yes"/>
      <point x="584" y="221" smooth="yes"/>
      <point x="584" y="429" type="curve" smooth="yes"/>
      <point x="584" y="576" smooth="yes"/>
      <point x="528" y="693" smooth="yes"/>
      <point x="417" y="693" type="curve" smooth="yes" name="hr02"/>
      <point x="387" y="693"/>
      <point x="355" y="685"/>
    </contour>
  </outline>
</glyph>
<glyph name="one" format="1">
  <advance width="531"/>
  <unicode hex="0031"/>
  <outline>
    <contour>
      <point x="40" y="-21" type="curve"/>
      <point x="87" y="-5" smooth="yes"/>
      <point x="139" y="-1" smooth="yes"/>
      <point x="187" y="-1" type="curve" smooth="yes" name="hr01"/>
      <point x="271" y="-1" smooth="yes"/>
      <point x="334" y="-19" smooth="yes"/>
      <point x="381" y="-19" type="curve" smooth="yes" name="hr02"/>
      <point x="456" y="-19"/>
      <point x="476" y="21"/>
      <point x="481" y="110" type="curve"/>
      <point x="434" y="91"/>
      <point x="381" y="85"/>
      <point x="328" y="84" type="curve"/>
      <point x="340" y="334"/>
      <point x="386" y="586"/>
      <point x="386" y="702" type="curve"/>
      <point x="274" y="648"/>
      <point x="130" y="607"/>
      <point x="80" y="597" type="curve"/>
      <point x="80" y="573" smooth="yes"/>
      <point x="99" y="493" smooth="yes"/>
      <point x="144" y="493" type="curve" smooth="yes"/>
      <point x="160" y="493"/>
      <point x="219" y="525"/>
      <point x="274" y="558" type="curve"/>
      <point x="258" y="388"/>
      <point x="230" y="198"/>
      <point x="221" y="87" type="curve"/>
      <point x="205" y="87" smooth="yes"/>
      <point x="189" y="88" smooth="yes"/>
      <point x="174" y="88" type="curve" smooth="yes"/>
      <point x="46" y="88"/>
      <point x="40" y="-19"/>
    </contour>
  </outline>
</glyph>
<glyph name="two" format="1">
  <advance width="569"/>
  <unicode hex="0032"/>
  <outline>
    <contour>
      <point x="194" y="450" type="curve" smooth="yes"/>
      <point x="204" y="450"/>
      <point x="215" y="451"/>
      <point x="225" y="453" type="curve"/>
      <point x="199" y="483" smooth="yes"/>
      <point x="187" y="516" smooth="yes"/>
      <point x="187" y="548" type="curve" smooth="yes"/>
      <point x="187" y="614" smooth="yes"/>
      <point x="234" y="648" smooth="yes"/>
      <point x="288" y="648" type="curve" smooth="yes"/>
      <point x="342" y="648" smooth="yes"/>
      <point x="396" y="607" smooth="yes"/>
      <point x="396" y="522" type="curve" smooth="yes"/>
      <point x="396" y="351"/>
      <point x="186" y="178"/>
      <point x="69" y="79" type="curve"/>
      <point x="-14" y="52"/>
      <point x="-20" y="-19"/>
      <point x="-20" y="-21" type="curve"/>
      <point x="36" y="-5" smooth="yes"/>
      <point x="98" y="-1" smooth="yes"/>
      <point x="155" y="-1" type="curve" smooth="yes" name="hr01"/>
      <point x="255" y="-1" smooth="yes"/>
      <point x="344" y="-19" smooth="yes"/>
      <point x="386" y="-19" type="curve" smooth="yes" name="hr02"/>
      <point x="452" y="-19"/>
      <point x="499" y="30"/>
      <point x="505" y="120" type="curve"/>
      <point x="457" y="101" smooth="yes"/>
      <point x="326" y="88" smooth="yes"/>
      <point x="194" y="88" type="curve" smooth="yes"/>
      <point x="167" y="88" type="line"/>
      <point x="392" y="230" smooth="yes"/>
      <point x="509" y="399" smooth="yes"/>
      <point x="509" y="533" type="curve" smooth="yes"/>
      <point x="509" y="662" smooth="yes"/>
      <point x="401" y="719" smooth="yes"/>
      <point x="292" y="719" type="curve" smooth="yes"/>
      <point x="148" y="719" smooth="yes"/>
      <point x="82" y="632" smooth="yes"/>
      <point x="82" y="554" type="curve" smooth="yes"/>
      <point x="82" y="500" smooth="yes"/>
      <point x="122" y="450" smooth="yes"/>
    </contour>
  </outline>
</glyph>
<glyph name="four" format="1">
  <advance width="562"/>
  <unicode hex="0034"/>
  <outline>
    <contour>
      <point x="40" y="158" type="curve" name="hr00"/>
      <point x="40" y="158"/>
      <point x="204" y="150"/>
      <point x="328" y="147" type="curve"/>
      <point x="319" y="102" smooth="yes"/>
      <point x="312" y="69" smooth="yes"/>
      <point x="312" y="53" type="curve" smooth="yes"/>
      <point x="312" y="6" smooth="yes"/>
      <point x="337" y="-37" smooth="yes"/>
      <point x="401" y="-37" type="curve" smooth="yes"/>
      <point x="409" y="-37"/>
      <point x="423" y="-36"/>
      <point x="433" y="-35" type="curve"/>
      <point x="427" y="-7" smooth="yes"/>
      <point x="427" y="40" smooth="yes"/>
      <point x="427" y="67" type="curve" smooth="yes"/>
      <point x="427" y="95"/>
      <point x="428" y="120"/>
      <point x="430" y="145" type="curve"/>
      <point x="436" y="145" type="line" smooth="yes"/>
      <point x="493" y="145" smooth="yes"/>
      <point x="512" y="168" smooth="yes"/>
      <point x="512" y="209" type="curve" smooth="yes"/>
      <point x="512" y="223"/>
      <point x="510" y="240"/>
      <point x="505" y="258" type="curve"/>
      <point x="505" y="258"/>
      <point x="480" y="255"/>
      <point x="443" y="251" type="curve"/>
      <point x="450" y="296" smooth="yes"/>
      <point x="456" y="337" smooth="yes"/>
      <point x="456" y="379" type="curve" smooth="yes"/>
      <point x="456" y="420" smooth="yes"/>
      <point x="435" y="456" smooth="yes"/>
      <point x="384" y="456" type="curve" smooth="yes"/>
      <point x="376" y="456"/>
      <point x="365" y="455"/>
      <point x="357" y="454" type="curve"/>
      <point x="358" y="437" smooth="yes"/>
      <point x="359" y="420" smooth="yes"/>
      <point x="359" y="403" type="curve" smooth="yes"/>
      <point x="359" y="347"/>
      <point x="353" y="292"/>
      <point x="346" y="242" type="curve"/>
      <point x="277" y="237"/>
      <point x="194" y="231"/>
      <point x="115" y="230" type="curve"/>
      <point x="208" y="404" smooth="yes"/>
      <point x="355" y="576" smooth="yes"/>
      <point x="355" y="654" type="curve" smooth="yes"/>
      <point x="355" y="724"/>
      <point x="275" y="757"/>
      <point x="275" y="757" type="curve"/>
      <point x="242" y="603" smooth="yes"/>
      <point x="127" y="406" smooth="yes"/>
      <point x="18" y="232" type="curve" smooth="yes"/>
      <point x="15" y="228" smooth="yes"/>
      <point x="15" y="224" smooth="yes"/>
      <point x="15" y="220" type="curve" smooth="yes"/>
      <point x="15" y="174"/>
      <point x="40" y="158"/>
    </contour>
  </outline>
</glyph>
<glyph name="seven" format="1">
  <advance width="496"/>
  <unicode hex="0037"/>
  <outline>
    <contour>
      <point x="457" y="811" type="curve" name="hr00"/>
      <point x="451" y="778"/>
      <point x="438" y="739"/>
      <point x="420" y="696" type="curve"/>
      <point x="384" y="693" smooth="yes"/>
      <point x="346" y="693" smooth="yes"/>
      <point x="310" y="693" type="curve" smooth="yes"/>
      <point x="176" y="693"/>
      <point x="54" y="708"/>
      <point x="54" y="708" type="curve"/>
      <point x="50" y="700" smooth="yes"/>
      <point x="45" y="677" smooth="yes"/>
      <point x="45" y="653" type="curve" smooth="yes"/>
      <point x="45" y="619" smooth="yes"/>
      <point x="56" y="582" smooth="yes"/>
      <point x="97" y="582" type="curve" smooth="yes"/>
      <point x="153" y="582"/>
      <point x="321" y="609"/>
      <point x="385" y="619" type="curve"/>
      <point x="275" y="394" smooth="yes"/>
      <point x="83" y="110" smooth="yes"/>
      <point x="83" y="29" type="curve" smooth="yes"/>
      <point x="83" y="-57"/>
      <point x="177" y="-67"/>
      <point x="177" y="-67" type="curve"/>
      <point x="211" y="173" smooth="yes"/>
      <point x="506" y="612" smooth="yes"/>
      <point x="506" y="708" type="curve" smooth="yes"/>
      <point x="506" y="778"/>
      <point x="457" y="811"/>
    </contour>
  </outline>
</glyph>
<glyph name="nine" format="1">
  <advance width="599"/>
  <unicode hex="0039"/>
  <outline>
    <contour>
      <point x="253" y="-33" type="curve" smooth="yes"/>
      <point x="467" y="-33" smooth="yes"/>
      <point x="549" y="194" smooth="yes"/>
      <point x="549" y="393" type="curve" smooth="yes"/>
      <point x="549" y="616" smooth="yes"/>
      <point x="450" y="719" smooth="yes"/>
      <point x="315" y="719" type="curve" smooth="yes"/>
      <point x="194" y="719" smooth="yes"/>
      <point x="85" y="631" smooth="yes"/>
      <point x="85" y="481" type="curve" smooth="yes"/>
      <point x="85" y="371" smooth="yes"/>
      <point x="164" y="293" smooth="yes"/>
      <point x="279" y="293" type="curve" smooth="yes"/>
      <point x="341" y="293"/>
      <point x="395" y="314"/>
      <point x="442" y="342" type="curve"/>
      <point x="433" y="167" smooth="yes"/>
      <point x="377" y="33" smooth="yes"/>
      <point x="262" y="33" type="curve" smooth="yes"/>
      <point x="199" y="33" smooth="yes"/>
      <point x="172" y="80" smooth="yes"/>
      <point x="172" y="135" type="curve" smooth="yes" name="hr01"/>
      <point x="172" y="166"/>
      <point x="183" y="196"/>
      <point x="209" y="225" type="curve"/>
      <point x="199" y="228" smooth="yes"/>
      <point x="185" y="230" smooth="yes"/>
      <point x="173" y="230" type="curve" smooth="yes"/>
      <point x="111" y="230" smooth="yes"/>
      <point x="70" y="179" smooth="yes"/>
      <point x="70" y="117" type="curve" smooth="yes"/>
      <point x="70" y="23" smooth="yes"/>
      <point x="157" y="-33" smooth="yes"/>
    </contour>
    <contour>
      <point x="314" y="361" type="curve" smooth="yes"/>
      <point x="223" y="361" smooth="yes"/>
      <point x="192" y="426" smooth="yes"/>
      <point x="192" y="493" type="curve" smooth="yes" name="hr02"/>
      <point x="192" y="580" smooth="yes"/>
      <point x="239" y="648" smooth="yes"/>
      <point x="312" y="648" type="curve" smooth="yes"/>
      <point x="377" y="648"/>
      <point x="444" y="618"/>
      <point x="444" y="397" type="curve"/>
      <point x="413" y="379" smooth="yes"/>
      <point x="366" y="361" smooth="yes"/>
    </contour>
  </outline>
</glyph>
<glyph name="colon" format="1">
  <advance width="286"/>
  <unicode hex="003A"/>
  <outline>
    <contour>
      <point x="195" y="-1" type="curve" name="hr00"/>
      <point x="203" y="24" smooth="yes"/>
      <point x="213" y="47" smooth="yes"/>
      <point x="213" y="72" type="curve" smooth="yes"/>
      <point x="213" y="114" smooth="yes"/>
      <point x="179" y="126" smooth="yes"/>
      <point x="148" y="126" type="curve" smooth="yes"/>
      <point x="128" y="126"/>
      <point x="106" y="122"/>
      <point x="88" y="116" type="curve"/>
      <point x="80" y="91" smooth="yes"/>
      <point x="70" y="68" smooth="yes"/>
      <point x="70" y="43" type="curve" smooth="yes"/>
      <point x="70" y="1" smooth="yes"/>
      <point x="104" y="-11" smooth="yes"/>
      <point x="135" y="-11" type="curve" smooth="yes"/>
      <point x="155" y="-11"/>
      <point x="177" y="-7"/>
    </contour>
    <contour>
      <point x="229" y="427" type="curve"/>
      <point x="237" y="452" smooth="yes"/>
      <point x="247" y="475" smooth="yes"/>
      <point x="247" y="500" type="curve" smooth="yes"/>
      <point x="247" y="542" smooth="yes"/>
      <point x="213" y="554" smooth="yes"/>
      <point x="182" y="554" type="curve" smooth="yes"/>
      <point x="162" y="554"/>
      <point x="140" y="550"/>
      <point x="122" y="544" type="curve"/>
      <point x="114" y="519" smooth="yes"/>
      <point x="104" y="496" smooth="yes"/>
      <point x="104" y="471" type="curve" smooth="yes"/>
      <point x="104" y="429" smooth="yes"/>
      <point x="138" y="417" smooth="yes"/>
      <point x="169" y="417" type="curve" smooth="yes"/>
      <point x="189" y="417"/>
      <point x="211" y="421"/>
    </contour>
  </outline>
</glyph>
<glyph name="semicolon" format="1">
  <advance width="287"/>
  <unicode hex="003B"/>
  <outline>
    <contour>
      <point x="229" y="427" type="curve" name="hr00"/>
      <point x="237" y="452" smooth="yes"/>
      <point x="247" y="475" smooth="yes"/>
      <point x="247" y="500" type="curve" smooth="yes"/>
      <point x="247" y="542" smooth="yes"/>
      <point x="213" y="554" smooth="yes"/>
      <point x="182" y="554" type="curve" smooth="yes"/>
      <point x="162" y="554"/>
      <point x="140" y="550"/>
      <point x="122" y="544" type="curve"/>
      <point x="114" y="519" smooth="yes"/>
      <point x="104" y="496" smooth="yes"/>
      <point x="104" y="471" type="curve" smooth="yes"/>
      <point x="104" y="429" smooth="yes"/>
      <point x="138" y="417" smooth="yes"/>
      <point x="169" y="417" type="curve" smooth="yes"/>
      <point x="189" y="417"/>
      <point x="211" y="421"/>
    </contour>
    <contour>
      <point x="85" y="135" type="curve"/>
      <point x="94" y="110" smooth="yes"/>
      <point x="100" y="85" smooth="yes"/>
      <point x="100" y="60" type="curve" smooth="yes"/>
      <point x="100" y="2"/>
      <point x="74" y="-56"/>
      <point x="26" y="-102" type="curve"/>
      <point x="50" y="-132" type="line"/>
      <point x="159" y="-73" smooth="yes"/>
      <point x="214" y="5" smooth="yes"/>
      <point x="214" y="84" type="curve" smooth="yes"/>
      <point x="214" y="134" smooth="yes"/>
      <point x="182" y="146" smooth="yes"/>
      <point x="150" y="146" type="curve" smooth="yes"/>
      <point x="129" y="146"/>
      <point x="103" y="141"/>
    </contour>
  </outline>
</glyph>
<glyph name="greater" format="1">
  <advance width="620"/>
  <unicode hex="003E"/>
  <outline>
    <contour>
      <point x="516" y="420" type="curve" name="hr00"/>
      <point x="344" y="502" smooth="yes"/>
      <point x="232" y="625" smooth="yes"/>
      <point x="142" y="625" type="curve" smooth="yes"/>
      <point x="114" y="625"/>
      <point x="97" y="601"/>
      <point x="85" y="551" type="curve"/>
      <point x="197" y="508"/>
      <point x="315" y="421"/>
      <point x="415" y="368" type="curve"/>
      <point x="315" y="315"/>
      <point x="194" y="225"/>
      <point x="85" y="185" type="curve"/>
      <point x="97" y="135" smooth="yes"/>
      <point x="114" y="111" smooth="yes"/>
      <point x="142" y="111" type="curve" smooth="yes"/>
      <point x="232" y="111"/>
      <point x="344" y="234"/>
      <point x="516" y="316" type="curve"/>
      <point x="528" y="333" smooth="yes"/>
      <point x="535" y="353" smooth="yes"/>
      <point x="535" y="371" type="curve" smooth="yes"/>
      <point x="535" y="389"/>
      <point x="528" y="407"/>
    </contour>
  </outline>
</glyph>
<glyph name="at" format="1">
  <advance width="1027"/>
  <unicode hex="0040"/>
  <outline>
    <contour>
      <point x="418" y="-75" type="curve" smooth="yes"/>
      <point x="295" y="-75" smooth="yes"/>
      <point x="167" y="-1" smooth="yes"/>
      <point x="167" y="222" type="curve" smooth="yes"/>
      <point x="167" y="436" smooth="yes"/>
      <point x="307" y="663" smooth="yes"/>
      <point x="593" y="663" type="curve" smooth="yes"/>
      <point x="723" y="663" smooth="yes"/>
      <point x="858" y="587" smooth="yes"/>
      <point x="858" y="365" type="curve" smooth="yes"/>
      <point x="858" y="160" smooth="yes"/>
      <point x="772" y="67" smooth="yes"/>
      <point x="720" y="67" type="curve" smooth="yes"/>
      <point x="671" y="67" smooth="yes"/>
      <point x="659" y="109" smooth="yes"/>
      <point x="659" y="167" type="curve" smooth="yes"/>
      <point x="659" y="297" smooth="yes"/>
      <point x="694" y="402" smooth="yes"/>
      <point x="694" y="463" type="curve" smooth="yes" name="hr01"/>
      <point x="694" y="521"/>
      <point x="673" y="535"/>
      <point x="631" y="535" type="curve"/>
      <point x="594" y="535" type="line"/>
      <point x="598" y="509" type="line"/>
      <point x="577" y="520" smooth="yes"/>
      <point x="555" y="527" smooth="yes"/>
      <point x="527" y="527" type="curve" smooth="yes"/>
      <point x="382" y="527" smooth="yes"/>
      <point x="310" y="370" smooth="yes"/>
      <point x="310" y="245" type="curve" smooth="yes"/>
      <point x="310" y="137" smooth="yes"/>
      <point x="357" y="89" smooth="yes"/>
      <point x="414" y="89" type="curve" smooth="yes"/>
      <point x="471" y="89"/>
      <point x="541" y="133"/>
      <point x="583" y="236" type="curve"/>
      <point x="591" y="236" type="line"/>
      <point x="589" y="222" smooth="yes"/>
      <point x="588" y="200" smooth="yes"/>
      <point x="588" y="184" type="curve" smooth="yes" name="hr02"/>
      <point x="588" y="61" smooth="yes"/>
      <point x="612" y="0" smooth="yes"/>
      <point x="701" y="0" type="curve" smooth="yes"/>
      <point x="810" y="0" smooth="yes"/>
      <point x="962" y="131" smooth="yes"/>
      <point x="962" y="369" type="curve" smooth="yes"/>
      <point x="962" y="630" smooth="yes"/>
      <point x="768" y="720" smooth="yes"/>
      <point x="602" y="720" type="curve" smooth="yes"/>
      <point x="259" y="720" smooth="yes"/>
      <point x="65" y="464" smooth="yes"/>
      <point x="65" y="218" type="curve" smooth="yes"/>
      <point x="65" y="-43" smooth="yes"/>
      <point x="246" y="-169" smooth="yes"/>
      <point x="411" y="-169" type="curve" smooth="yes"/>
      <point x="499" y="-169" smooth="yes"/>
      <point x="572" y="-133" smooth="yes"/>
      <point x="572" y="-65" type="curve" smooth="yes"/>
      <point x="572" y="-53"/>
      <point x="570" y="-39"/>
      <point x="565" y="-22" type="curve"/>
      <point x="523" y="-55" smooth="yes"/>
      <point x="472" y="-75" smooth="yes"/>
    </contour>
    <contour>
      <point x="406" y="245" type="curve" smooth="yes"/>
      <point x="406" y="384"/>
      <point x="493" y="481"/>
      <point x="599" y="491" type="curve"/>
      <point x="602" y="473" smooth="yes"/>
      <point x="603" y="454" smooth="yes"/>
      <point x="603" y="440" type="curve" smooth="yes" name="hr03"/>
      <point x="603" y="307" smooth="yes"/>
      <point x="537" y="166" smooth="yes"/>
      <point x="468" y="166" type="curve" smooth="yes"/>
      <point x="426" y="166" smooth="yes"/>
      <point x="406" y="200" smooth="yes"/>
    </contour>
  </outline>
</glyph>
<glyph name="F" format="1">
  <advance width="520"/>
  <unicode hex="0046"/>
  <outline>
    <contour>
      <point x="105" y="732" type="curve" smooth="yes" name="hr00"/>
      <point x="105" y="691"/>
      <point x="121" y="681"/>
      <point x="172" y="681" type="curve"/>
      <point x="170" y="596"/>
      <point x="159" y="503"/>
      <point x="147" y="414" type="curve"/>
      <point x="110" y="405" smooth="yes"/>
      <point x="85" y="385" smooth="yes"/>
      <point x="85" y="338" type="curve" smooth="yes"/>
      <point x="85" y="328"/>
      <point x="86" y="318"/>
      <point x="87" y="309" type="curve"/>
      <point x="102" y="315"/>
      <point x="119" y="320"/>
      <point x="135" y="324" type="curve"/>
      <point x="119" y="218" smooth="yes"/>
      <point x="106" y="124" smooth="yes"/>
      <point x="106" y="69" type="curve" smooth="yes"/>
      <point x="106" y="7" smooth="yes"/>
      <point x="137" y="-17" smooth="yes"/>
      <point x="197" y="-17" type="curve" smooth="yes"/>
      <point x="205" y="-17"/>
      <point x="212" y="-16"/>
      <point x="225" y="-15" type="curve"/>
      <point x="219" y="20" smooth="yes"/>
      <point x="219" y="52" smooth="yes"/>
      <point x="219" y="83" type="curve" smooth="yes"/>
      <point x="219" y="171"/>
      <point x="226" y="258"/>
      <point x="235" y="339" type="curve"/>
      <point x="261" y="341" smooth="yes"/>
      <point x="287" y="341" smooth="yes"/>
      <point x="310" y="341" type="curve" smooth="yes"/>
      <point x="337" y="341" smooth="yes"/>
      <point x="366" y="340" smooth="yes"/>
      <point x="399" y="340" type="curve" smooth="yes"/>
      <point x="437" y="340" smooth="yes"/>
      <point x="462" y="360" smooth="yes"/>
      <point x="462" y="419" type="curve" smooth="yes"/>
      <point x="462" y="428"/>
      <point x="461" y="437"/>
      <point x="460" y="445" type="curve"/>
      <point x="429" y="421" smooth="yes"/>
      <point x="382" y="416" smooth="yes"/>
      <point x="335" y="416" type="curve" smooth="yes"/>
      <point x="313" y="416"/>
      <point x="276" y="417"/>
      <point x="245" y="418" type="curve"/>
      <point x="260" y="530"/>
      <point x="276" y="624"/>
      <point x="276" y="682" type="curve"/>
      <point x="341" y="684" smooth="yes"/>
      <point x="409" y="688" smooth="yes"/>
      <point x="455" y="696" type="curve" smooth="yes"/>
      <point x="512" y="705"/>
      <point x="558" y="729"/>
      <point x="568" y="793" type="curve"/>
      <point x="493" y="778" smooth="yes"/>
      <point x="406" y="771" smooth="yes"/>
      <point x="320" y="771" type="curve" smooth="yes"/>
      <point x="251" y="771"/>
      <point x="179" y="776"/>
      <point x="113" y="785" type="curve"/>
      <point x="109" y="774" smooth="yes"/>
      <point x="105" y="755" smooth="yes"/>
    </contour>
  </outline>
</glyph>
<glyph name="G" format="1">
  <advance width="687"/>
  <unicode hex="0047"/>
  <outline>
    <contour>
      <point x="280" y="-271" type="curve" smooth="yes"/>
      <point x="208" y="-271" smooth="yes"/>
      <point x="182" y="-219" smooth="yes"/>
      <point x="182" y="-159" type="curve" smooth="yes"/>
      <point x="182" y="-105"/>
      <point x="204" y="-62"/>
      <point x="225" y="-33" type="curve"/>
      <point x="208" y="-21" smooth="yes"/>
      <point x="189" y="-16" smooth="yes"/>
      <point x="173" y="-16" type="curve" smooth="yes"/>
      <point x="115" y="-16" smooth="yes"/>
      <point x="70" y="-72" smooth="yes"/>
      <point x="70" y="-148" type="curve" smooth="yes"/>
      <point x="70" y="-235" smooth="yes"/>
      <point x="126" y="-329" smooth="yes"/>
      <point x="269" y="-329" type="curve" smooth="yes"/>
      <point x="520" y="-329" smooth="yes"/>
      <point x="596" y="0" smooth="yes"/>
      <point x="596" y="280" type="curve" smooth="yes"/>
      <point x="596" y="341" smooth="yes"/>
      <point x="576" y="366" smooth="yes"/>
      <point x="514" y="366" type="curve" smooth="yes"/>
      <point x="504" y="366"/>
      <point x="486" y="365"/>
      <point x="477" y="364" type="curve"/>
      <point x="479" y="347" smooth="yes"/>
      <point x="480" y="330" smooth="yes"/>
      <point x="480" y="314" type="curve" smooth="yes"/>
      <point x="480" y="175" smooth="yes"/>
      <point x="394" y="99" smooth="yes"/>
      <point x="319" y="99" type="curve" smooth="yes"/>
      <point x="234" y="99" smooth="yes"/>
      <point x="162" y="172" smooth="yes"/>
      <point x="162" y="330" type="curve" smooth="yes"/>
      <point x="162" y="513" smooth="yes"/>
      <point x="262" y="748" smooth="yes"/>
      <point x="415" y="748" type="curve" smooth="yes"/>
      <point x="493" y="748" smooth="yes"/>
      <point x="530" y="698" smooth="yes"/>
      <point x="530" y="645" type="curve" smooth="yes"/>
      <point x="530" y="590" smooth="yes"/>
      <point x="488" y="532" smooth="yes"/>
      <point x="408" y="532" type="curve" smooth="yes"/>
      <point x="393" y="532"/>
      <point x="376" y="534"/>
      <point x="357" y="539" type="curve"/>
      <point x="385" y="500" smooth="yes"/>
      <point x="435" y="481" smooth="yes"/>
      <point x="482" y="481" type="curve" smooth="yes"/>
      <point x="552" y="481" smooth="yes"/>
      <point x="622" y="533" smooth="yes"/>
      <point x="622" y="634" type="curve" smooth="yes"/>
      <point x="622" y="719" smooth="yes"/>
      <point x="566" y="806" smooth="yes"/>
      <point x="428" y="806" type="curve" smooth="yes"/>
      <point x="182" y="806" smooth="yes"/>
      <point x="55" y="569" smooth="yes"/>
      <point x="55" y="324" type="curve" smooth="yes" name="hr01"/>
      <point x="55" y="129" smooth="yes"/>
      <point x="165" y="29" smooth="yes"/>
      <point x="282" y="29" type="curve" smooth="yes"/>
      <point x="358" y="29"/>
      <point x="436" y="72"/>
      <point x="485" y="161" type="curve"/>
      <point x="474" y="-98" smooth="yes"/>
      <point x="413" y="-271" smooth="yes"/>
    </contour>
  </outline>
</glyph>
<glyph name="J" format="1">
  <advance width="518"/>
  <unicode hex="004A"/>
  <outline>
    <contour>
      <point x="134" y="21" type="curve" smooth="yes" name="hr00"/>
      <point x="82" y="21" smooth="yes"/>
      <point x="59" y="61" smooth="yes"/>
      <point x="59" y="109" type="curve" smooth="yes"/>
      <point x="59" y="153"/>
      <point x="78" y="204"/>
      <point x="114" y="235" type="curve"/>
      <point x="97" y="247" smooth="yes"/>
      <point x="81" y="251" smooth="yes"/>
      <point x="65" y="251" type="curve" smooth="yes"/>
      <point x="-8" y="251" smooth="yes"/>
      <point x="-43" y="190" smooth="yes"/>
      <point x="-43" y="132" type="curve" smooth="yes"/>
      <point x="-43" y="49" smooth="yes"/>
      <point x="10" y="-36" smooth="yes"/>
      <point x="135" y="-36" type="curve" smooth="yes"/>
      <point x="243" y="-36" smooth="yes"/>
      <point x="346" y="26" smooth="yes"/>
      <point x="365" y="323" type="curve" smooth="yes"/>
      <point x="369" y="383"/>
      <point x="382" y="542"/>
      <point x="396" y="681" type="curve"/>
      <point x="409" y="682" smooth="yes"/>
      <point x="421" y="684" smooth="yes"/>
      <point x="431" y="686" type="curve" smooth="yes"/>
      <point x="465" y="691"/>
      <point x="526" y="721"/>
      <point x="534" y="792" type="curve"/>
      <point x="465" y="771" smooth="yes"/>
      <point x="394" y="760" smooth="yes"/>
      <point x="323" y="760" type="curve" smooth="yes"/>
      <point x="277" y="760"/>
      <point x="231" y="764"/>
      <point x="179" y="776" type="curve"/>
      <point x="176" y="764" smooth="yes"/>
      <point x="173" y="747" smooth="yes"/>
      <point x="173" y="728" type="curve" smooth="yes"/>
      <point x="173" y="699" smooth="yes"/>
      <point x="185" y="670" smooth="yes"/>
      <point x="230" y="670" type="curve" smooth="yes"/>
      <point x="245" y="670"/>
      <point x="264" y="671"/>
      <point x="286" y="672" type="curve"/>
      <point x="260" y="298" smooth="yes"/>
      <point x="295" y="21" smooth="yes"/>
    </contour>
  </outline>
</glyph>
<glyph name="L" format="1">
  <advance width="547"/>
  <unicode hex="004C"/>
  <outline>
    <contour>
      <point x="56" y="-8" type="curve"/>
      <point x="108" y="2" smooth="yes"/>
      <point x="159" y="5" smooth="yes"/>
      <point x="206" y="5" type="curve" smooth="yes"/>
      <point x="300" y="5" smooth="yes"/>
      <point x="378" y="-8" smooth="yes"/>
      <point x="419" y="-8" type="curve" smooth="yes"/>
      <point x="483" y="-8"/>
      <point x="530" y="36"/>
      <point x="540" y="114" type="curve"/>
      <point x="480" y="97" smooth="yes"/>
      <point x="349" y="84" smooth="yes"/>
      <point x="218" y="84" type="curve" smooth="yes"/>
      <point x="212" y="84"/>
      <point x="205" y="84"/>
      <point x="200" y="83" type="curve"/>
      <point x="201" y="185" smooth="yes"/>
      <point x="222" y="336" smooth="yes"/>
      <point x="241" y="464" type="curve" smooth="yes"/>
      <point x="255" y="560" smooth="yes"/>
      <point x="266" y="643" smooth="yes"/>
      <point x="266" y="684" type="curve" smooth="yes" name="hr01"/>
      <point x="266" y="753"/>
      <point x="260" y="796"/>
      <point x="155" y="802" type="curve"/>
      <point x="157" y="776" smooth="yes"/>
      <point x="159" y="748" smooth="yes"/>
      <point x="159" y="720" type="curve" smooth="yes"/>
      <point x="159" y="585" smooth="yes"/>
      <point x="139" y="440" smooth="yes"/>
      <point x="122" y="322" type="curve" smooth="yes"/>
      <point x="111" y="241" smooth="yes"/>
      <point x="101" y="173" smooth="yes"/>
      <point x="101" y="129" type="curve" smooth="yes" name="hr02"/>
      <point x="101" y="102"/>
      <point x="103" y="79"/>
      <point x="110" y="60" type="curve"/>
      <point x="72" y="38"/>
      <point x="60" y="6"/>
    </contour>
  </outline>
</glyph>
<glyph name="S" format="1">
  <advance width="629"/>
  <unicode hex="0053"/>
  <outline>
    <contour>
      <point x="204" y="627" type="curve" smooth="yes"/>
      <point x="204" y="716" smooth="yes"/>
      <point x="271" y="753" smooth="yes"/>
      <point x="338" y="753" type="curve" smooth="yes"/>
      <point x="408" y="753" smooth="yes"/>
      <point x="465" y="715" smooth="yes"/>
      <point x="465" y="640" type="curve" smooth="yes"/>
      <point x="465" y="610"/>
      <point x="452" y="564"/>
      <point x="416" y="526" type="curve"/>
      <point x="429" y="523" smooth="yes"/>
      <point x="441" y="522" smooth="yes"/>
      <point x="451" y="522" type="curve" smooth="yes"/>
      <point x="525" y="522" smooth="yes"/>
      <point x="565" y="581" smooth="yes"/>
      <point x="565" y="644" type="curve" smooth="yes"/>
      <point x="565" y="718" smooth="yes"/>
      <point x="495" y="812" smooth="yes"/>
      <point x="353" y="812" type="curve" smooth="yes"/>
      <point x="187" y="812" smooth="yes"/>
      <point x="102" y="729" smooth="yes"/>
      <point x="102" y="606" type="curve" smooth="yes"/>
      <point x="102" y="391" smooth="yes"/>
      <point x="438" y="327" smooth="yes"/>
      <point x="438" y="164" type="curve" smooth="yes" name="hr01"/>
      <point x="438" y="81" smooth="yes"/>
      <point x="366" y="41" smooth="yes"/>
      <point x="302" y="41" type="curve" smooth="yes"/>
      <point x="197" y="41" smooth="yes"/>
      <point x="154" y="104" smooth="yes"/>
      <point x="154" y="175" type="curve" smooth="yes"/>
      <point x="154" y="207"/>
      <point x="165" y="241"/>
      <point x="185" y="271" type="curve"/>
      <point x="175" y="274" smooth="yes"/>
      <point x="166" y="275" smooth="yes"/>
      <point x="158" y="275" type="curve" smooth="yes"/>
      <point x="91" y="275" smooth="yes"/>
      <point x="43" y="227" smooth="yes"/>
      <point x="43" y="154" type="curve" smooth="yes"/>
      <point x="43" y="63" smooth="yes"/>
      <point x="125" y="-25" smooth="yes"/>
      <point x="279" y="-25" type="curve" smooth="yes"/>
      <point x="450" y="-25" smooth="yes"/>
      <point x="546" y="75" smooth="yes"/>
      <point x="546" y="184" type="curve" smooth="yes"/>
      <point x="546" y="388" smooth="yes"/>
      <point x="204" y="448" smooth="yes"/>
    </contour>
  </outline>
</glyph>
<glyph name="T" format="1">
  <advance width="543"/>
  <unicode hex="0054"/>
  <outline>
    <contour>
      <point x="49" y="729" type="curve" smooth="yes"/>
      <point x="49" y="700" smooth="yes"/>
      <point x="56" y="668" smooth="yes"/>
      <point x="93" y="668" type="curve" smooth="yes"/>
      <point x="130" y="668"/>
      <point x="185" y="669"/>
      <point x="243" y="671" type="curve"/>
      <point x="236" y="457" smooth="yes"/>
      <point x="186" y="229" smooth="yes"/>
      <point x="186" y="129" type="curve" smooth="yes"/>
      <point x="186" y="46"/>
      <point x="215" y="-1"/>
      <point x="299" y="-31" type="curve"/>
      <point x="290" y="-10" smooth="yes"/>
      <point x="285" y="29" smooth="yes"/>
      <point x="285" y="78" type="curve" smooth="yes"/>
      <point x="285" y="250"/>
      <point x="348" y="570"/>
      <point x="351" y="676" type="curve" name="hr01"/>
      <point x="391" y="678" smooth="yes"/>
      <point x="428" y="681" smooth="yes"/>
      <point x="458" y="684" type="curve" smooth="yes"/>
      <point x="519" y="689"/>
      <point x="564" y="719"/>
      <point x="574" y="785" type="curve"/>
      <point x="475" y="767" smooth="yes"/>
      <point x="374" y="759" smooth="yes"/>
      <point x="271" y="759" type="curve" smooth="yes"/>
      <point x="200" y="759"/>
      <point x="129" y="763"/>
      <point x="56" y="772" type="curve"/>
      <point x="53" y="763" smooth="yes"/>
      <point x="49" y="747" smooth="yes"/>
    </contour>
  </outline>
</glyph>
<glyph name="U" format="1">
  <advance width="755"/>
  <unicode hex="0055"/>
  <outline>
    <contour>
      <point x="561" y="720" type="curve" smooth="yes" name="hr00"/>
      <point x="561" y="216" smooth="yes"/>
      <point x="414" y="62" smooth="yes"/>
      <point x="298" y="62" type="curve" smooth="yes"/>
      <point x="236" y="62" smooth="yes"/>
      <point x="190" y="95" smooth="yes"/>
      <point x="190" y="239" type="curve" smooth="yes"/>
      <point x="190" y="386" smooth="yes"/>
      <point x="233" y="518" smooth="yes"/>
      <point x="233" y="653" type="curve" smooth="yes"/>
      <point x="233" y="729"/>
      <point x="201" y="773"/>
      <point x="121" y="802" type="curve"/>
      <point x="128" y="783" smooth="yes"/>
      <point x="132" y="750" smooth="yes"/>
      <point x="132" y="707" type="curve" smooth="yes"/>
      <point x="132" y="606" smooth="yes"/>
      <point x="87" y="354" smooth="yes"/>
      <point x="87" y="220" type="curve" smooth="yes"/>
      <point x="87" y="50" smooth="yes"/>
      <point x="146" y="-20" smooth="yes"/>
      <point x="254" y="-20" type="curve" smooth="yes"/>
      <point x="379" y="-20" smooth="yes"/>
      <point x="457" y="66" smooth="yes"/>
      <point x="505" y="179" type="curve" smooth="yes"/>
      <point x="503" y="160" smooth="yes"/>
      <point x="503" y="143" smooth="yes"/>
      <point x="503" y="129" type="curve" smooth="yes"/>
      <point x="503" y="46"/>
      <point x="532" y="-1"/>
      <point x="616" y="-31" type="curve"/>
      <point x="607" y="-10" smooth="yes"/>
      <point x="602" y="29" smooth="yes"/>
      <point x="602" y="78" type="curve" smooth="yes"/>
      <point x="602" y="180" smooth="yes"/>
      <point x="624" y="334" smooth="yes"/>
      <point x="643" y="464" type="curve" smooth="yes"/>
      <point x="657" y="560" smooth="yes"/>
      <point x="668" y="643" smooth="yes"/>
      <point x="668" y="684" type="curve" smooth="yes"/>
      <point x="668" y="753"/>
      <point x="662" y="796"/>
      <point x="557" y="802" type="curve"/>
      <point x="559" y="776" smooth="yes"/>
      <point x="561" y="748" smooth="yes"/>
    </contour>
  </outline>
</glyph>
<glyph name="V" format="1">
  <advance width="661"/>
  <unicode hex="0056"/>
  <outline>
    <contour>
      <point x="327" y="0" type="curve" name="hr00"/>
      <point x="406" y="215" smooth="yes"/>
      <point x="629" y="639" smooth="yes"/>
      <point x="629" y="733" type="curve" smooth="yes"/>
      <point x="629" y="768"/>
      <point x="600" y="794"/>
      <point x="531" y="807" type="curve"/>
      <point x="531" y="703"/>
      <point x="382" y="276"/>
      <point x="303" y="101" type="curve"/>
      <point x="291" y="165" smooth="yes"/>
      <point x="253" y="345" smooth="yes"/>
      <point x="246" y="384" type="curve" smooth="yes"/>
      <point x="182" y="742" smooth="yes"/>
      <point x="175" y="792" smooth="yes"/>
      <point x="101" y="792" type="curve" smooth="yes"/>
      <point x="83" y="792"/>
      <point x="55" y="781"/>
      <point x="31" y="766" type="curve"/>
      <point x="108" y="656" smooth="yes"/>
      <point x="176" y="182" smooth="yes"/>
      <point x="228" y="1" type="curve" smooth="yes"/>
      <point x="230" y="-10" smooth="yes"/>
      <point x="244" y="-14" smooth="yes"/>
      <point x="257" y="-14" type="curve" smooth="yes"/>
      <point x="279" y="-14"/>
      <point x="320" y="-4"/>
    </contour>
  </outline>
</glyph>
<glyph name="W" format="1">
  <advance width="983"/>
  <unicode hex="0057"/>
  <outline>
    <contour>
      <point x="655" y="0" type="curve" name="hr00"/>
      <point x="706" y="133" smooth="yes"/>
      <point x="957" y="650" smooth="yes"/>
      <point x="957" y="737" type="curve" smooth="yes"/>
      <point x="957" y="769"/>
      <point x="919" y="794"/>
      <point x="864" y="807" type="curve"/>
      <point x="858" y="701"/>
      <point x="704" y="279"/>
      <point x="637" y="101" type="curve"/>
      <point x="629" y="168" smooth="yes"/>
      <point x="601" y="344" smooth="yes"/>
      <point x="596" y="384" type="curve" smooth="yes"/>
      <point x="553" y="742" smooth="yes"/>
      <point x="547" y="792" smooth="yes"/>
      <point x="472" y="792" type="curve" smooth="yes"/>
      <point x="454" y="792"/>
      <point x="426" y="781"/>
      <point x="402" y="766" type="curve"/>
      <point x="422" y="734"/>
      <point x="441" y="671"/>
      <point x="458" y="594" type="curve"/>
      <point x="405" y="427"/>
      <point x="327" y="214"/>
      <point x="284" y="101" type="curve"/>
      <point x="276" y="168" smooth="yes"/>
      <point x="248" y="344" smooth="yes"/>
      <point x="243" y="384" type="curve" smooth="yes"/>
      <point x="200" y="742" smooth="yes"/>
      <point x="194" y="792" smooth="yes"/>
      <point x="119" y="792" type="curve" smooth="yes"/>
      <point x="101" y="792"/>
      <point x="73" y="781"/>
      <point x="49" y="766" type="curve"/>
      <point x="120" y="656"/>
      <point x="164" y="182"/>
      <point x="207" y="1" type="curve"/>
      <point x="207" y="-10" smooth="yes"/>
      <point x="221" y="-14" smooth="yes"/>
      <point x="234" y="-14" type="curve" smooth="yes"/>
      <point x="255" y="-14"/>
      <point x="296" y="-4"/>
      <point x="302" y="0" type="curve"/>
      <point x="330" y="72"/>
      <point x="416" y="257"/>
      <point x="489" y="424" type="curve"/>
      <point x="516" y="265"/>
      <point x="538" y="94"/>
      <point x="560" y="1" type="curve"/>
      <point x="560" y="-10" smooth="yes"/>
      <point x="574" y="-14" smooth="yes"/>
      <point x="587" y="-14" type="curve" smooth="yes"/>
      <point x="608" y="-14"/>
      <point x="649" y="-4"/>
    </contour>
  </outline>
</glyph>
<glyph name="X" format="1">
  <advance width="671"/>
  <unicode hex="0058"/>
  <outline>
    <contour>
      <point x="581" y="-33" type="curve" smooth="yes"/>
      <point x="591" y="-33"/>
      <point x="607" y="-32"/>
      <point x="620" y="-28" type="curve"/>
      <point x="555" y="41"/>
      <point x="467" y="169"/>
      <point x="378" y="400" type="curve"/>
      <point x="514" y="532" smooth="yes"/>
      <point x="640" y="623" smooth="yes"/>
      <point x="640" y="715" type="curve" smooth="yes"/>
      <point x="640" y="742"/>
      <point x="626" y="784"/>
      <point x="590" y="809" type="curve"/>
      <point x="584" y="711"/>
      <point x="472" y="593"/>
      <point x="350" y="476" type="curve"/>
      <point x="289" y="647" smooth="yes"/>
      <point x="240" y="803" smooth="yes"/>
      <point x="163" y="803" type="curve" smooth="yes" name="hr01"/>
      <point x="142" y="803"/>
      <point x="114" y="792"/>
      <point x="90" y="776" type="curve"/>
      <point x="156" y="684"/>
      <point x="210" y="539"/>
      <point x="266" y="396" type="curve"/>
      <point x="142" y="278" smooth="yes"/>
      <point x="30" y="166" smooth="yes"/>
      <point x="30" y="81" type="curve" smooth="yes"/>
      <point x="30" y="44"/>
      <point x="47" y="6"/>
      <point x="84" y="-31" type="curve"/>
      <point x="131" y="111"/>
      <point x="212" y="223"/>
      <point x="297" y="317" type="curve"/>
      <point x="373" y="129" smooth="yes"/>
      <point x="457" y="-33" smooth="yes"/>
    </contour>
  </outline>
</glyph>
<glyph name="Y" format="1">
  <advance width="565"/>
  <unicode hex="0059"/>
  <outline>
    <contour>
      <point x="266" y="404" type="line" name="hr00"/>
      <point x="196" y="759" smooth="yes"/>
      <point x="173" y="803" smooth="yes"/>
      <point x="84" y="803" type="curve" smooth="yes"/>
      <point x="66" y="803"/>
      <point x="41" y="793"/>
      <point x="23" y="777" type="curve"/>
      <point x="93" y="672"/>
      <point x="157" y="462"/>
      <point x="206" y="286" type="curve"/>
      <point x="199" y="221" smooth="yes"/>
      <point x="193" y="166" smooth="yes"/>
      <point x="193" y="129" type="curve" smooth="yes"/>
      <point x="193" y="46"/>
      <point x="215" y="-11"/>
      <point x="310" y="-31" type="curve"/>
      <point x="301" y="-10" smooth="yes"/>
      <point x="296" y="29" smooth="yes"/>
      <point x="296" y="78" type="curve" smooth="yes"/>
      <point x="296" y="135"/>
      <point x="303" y="207"/>
      <point x="312" y="283" type="curve"/>
      <point x="434" y="462" smooth="yes"/>
      <point x="565" y="648" smooth="yes"/>
      <point x="565" y="722" type="curve" smooth="yes"/>
      <point x="565" y="750"/>
      <point x="555" y="798"/>
      <point x="505" y="833" type="curve"/>
      <point x="492" y="740"/>
      <point x="413" y="548"/>
      <point x="278" y="336" type="curve"/>
      <point x="278" y="335" type="line"/>
    </contour>
  </outline>
</glyph>
<glyph name="Z" format="1">
  <advance width="573"/>
  <unicode hex="005A"/>
  <outline>
    <contour>
      <point x="83" y="726" type="curve" smooth="yes" name="hr00"/>
      <point x="83" y="692" smooth="yes"/>
      <point x="91" y="654" smooth="yes"/>
      <point x="129" y="654" type="curve" smooth="yes"/>
      <point x="191" y="654"/>
      <point x="412" y="691"/>
      <point x="452" y="698" type="curve"/>
      <point x="372" y="537"/>
      <point x="215" y="304"/>
      <point x="20" y="68" type="curve"/>
      <point x="-22" y="46"/>
      <point x="-35" y="12"/>
      <point x="-40" y="-3" type="curve"/>
      <point x="16" y="9" smooth="yes"/>
      <point x="81" y="12" smooth="yes"/>
      <point x="138" y="12" type="curve" smooth="yes"/>
      <point x="247" y="12" smooth="yes"/>
      <point x="320" y="-5" smooth="yes"/>
      <point x="383" y="-5" type="curve" smooth="yes"/>
      <point x="447" y="-5"/>
      <point x="494" y="39"/>
      <point x="505" y="117" type="curve"/>
      <point x="444" y="100" smooth="yes"/>
      <point x="313" y="87" smooth="yes"/>
      <point x="181" y="87" type="curve" smooth="yes"/>
      <point x="167" y="87"/>
      <point x="151" y="88"/>
      <point x="137" y="89" type="curve"/>
      <point x="307" y="352" smooth="yes"/>
      <point x="553" y="582" smooth="yes"/>
      <point x="553" y="706" type="curve" smooth="yes"/>
      <point x="553" y="738"/>
      <point x="544" y="790"/>
      <point x="507" y="838" type="curve"/>
      <point x="502" y="818"/>
      <point x="495" y="794"/>
      <point x="484" y="767" type="curve"/>
      <point x="444" y="764" smooth="yes"/>
      <point x="400" y="763" smooth="yes"/>
      <point x="359" y="763" type="curve" smooth="yes"/>
      <point x="233" y="763"/>
      <point x="118" y="774"/>
      <point x="91" y="777" type="curve"/>
      <point x="87" y="766" smooth="yes"/>
      <point x="83" y="747" smooth="yes"/>
    </contour>
  </outline>
</glyph>
<glyph name="bracketleft" format="1">
  <advance width="379"/>
  <unicode hex="005B"/>
  <outline>
    <contour>
      <point x="312" y="783" type="line" smooth="yes" name="hr00"/>
      <point x="225" y="783" smooth="yes"/>
      <point x="192" y="761" smooth="yes"/>
      <point x="189" y="713" type="curve" smooth="yes"/>
      <point x="181" y="571" smooth="yes"/>
      <point x="181" y="539" smooth="yes"/>
      <point x="166" y="321" type="curve" smooth="yes"/>
      <point x="151" y="104" smooth="yes"/>
      <point x="132" y="-26" smooth="yes"/>
      <point x="132" y="-74" type="curve" smooth="yes"/>
      <point x="132" y="-119" smooth="yes"/>
      <point x="169" y="-139" smooth="yes"/>
      <point x="247" y="-139" type="curve" smooth="yes"/>
      <point x="315" y="-139" type="line" smooth="yes"/>
      <point x="339" y="-139"/>
      <point x="352" y="-116"/>
      <point x="355" y="-65" type="curve"/>
      <point x="332" y="-67"/>
      <point x="288" y="-70"/>
      <point x="246" y="-71" type="curve"/>
      <point x="246" y="-61" type="line" smooth="yes"/>
      <point x="246" y="63" smooth="yes"/>
      <point x="250" y="239" smooth="yes"/>
      <point x="255" y="321" type="curve" smooth="yes"/>
      <point x="261" y="405"/>
      <point x="283" y="594"/>
      <point x="301" y="715" type="curve"/>
      <point x="348" y="714"/>
      <point x="397" y="711"/>
      <point x="422" y="709" type="curve"/>
      <point x="419" y="760" smooth="yes"/>
      <point x="406" y="783" smooth="yes"/>
      <point x="382" y="783" type="curve" smooth="yes"/>
    </contour>
  </outline>
</glyph>
<glyph name="underscore" format="1">
  <advance width="463"/>
  <unicode hex="005F"/>
  <outline>
    <contour>
      <point x="359" y="7" type="curve" smooth="yes"/>
      <point x="279" y="7" smooth="yes"/>
      <point x="216" y="-4" smooth="yes"/>
      <point x="152" y="-4" type="curve" smooth="yes" name="hr01"/>
      <point x="105" y="-4"/>
      <point x="64" y="-2"/>
      <point x="16" y="4" type="curve"/>
      <point x="16" y="-2" smooth="yes"/>
      <point x="15" y="-8" smooth="yes"/>
      <point x="15" y="-14" type="curve" smooth="yes"/>
      <point x="15" y="-62" smooth="yes"/>
      <point x="26" y="-98" smooth="yes"/>
      <point x="104" y="-98" type="curve" smooth="yes"/>
      <point x="184" y="-98" smooth="yes"/>
      <point x="247" y="-87" smooth="yes"/>
      <point x="311" y="-87" type="curve" smooth="yes"/>
      <point x="358" y="-87"/>
      <point x="399" y="-89"/>
      <point x="447" y="-95" type="curve"/>
      <point x="447" y="-89" smooth="yes"/>
      <point x="448" y="-83" smooth="yes"/>
      <point x="448" y="-77" type="curve" smooth="yes"/>
      <point x="448" y="-29" smooth="yes"/>
      <point x="437" y="7" smooth="yes"/>
    </contour>
  </outline>
</glyph>
<glyph name="grave" format="1">
  <advance width="372"/>
  <unicode hex="0060"/>
  <outline>
    <contour>
      <point x="342" y="652" type="curve" name="hr00"/>
      <point x="311" y="722"/>
      <point x="226" y="822"/>
      <point x="151" y="852" type="curve"/>
      <point x="137" y="843"/>
      <point x="105" y="821"/>
      <point x="103" y="770" type="curve"/>
      <point x="188" y="744"/>
      <point x="269" y="671"/>
      <point x="310" y="619" type="curve"/>
      <point x="326" y="623"/>
      <point x="340" y="637"/>
    </contour>
  </outline>
</glyph>
<glyph name="a" format="1">
  <advance width="635"/>
  <unicode hex="0061"/>
  <outline>
    <contour>
      <point x="543" y="-33" type="curve"/>
      <point x="519" y="15" smooth="yes"/>
      <point x="512" y="50" smooth="yes"/>
      <point x="512" y="116" type="curve" smooth="yes"/>
      <point x="512" y="251" smooth="yes"/>
      <point x="560" y="426" smooth="yes"/>
      <point x="560" y="483" type="curve" smooth="yes"/>
      <point x="560" y="541" smooth="yes"/>
      <point x="532" y="570" smooth="yes"/>
      <point x="475" y="570" type="curve" smooth="yes"/>
      <point x="467" y="570"/>
      <point x="457" y="569"/>
      <point x="445" y="568" type="curve"/>
      <point x="449" y="535" smooth="yes"/>
      <point x="451" y="499" smooth="yes"/>
      <point x="451" y="454" type="curve" smooth="yes"/>
      <point x="451" y="265" smooth="yes"/>
      <point x="347" y="73" smooth="yes"/>
      <point x="244" y="73" type="curve" smooth="yes"/>
      <point x="194" y="73" smooth="yes"/>
      <point x="161" y="119" smooth="yes"/>
      <point x="161" y="189" type="curve" smooth="yes"/>
      <point x="161" y="345"/>
      <point x="272" y="502"/>
      <point x="407" y="537" type="curve"/>
      <point x="379" y="546" smooth="yes"/>
      <point x="353" y="551" smooth="yes"/>
      <point x="330" y="551" type="curve" smooth="yes" name="hr01"/>
      <point x="186" y="551" smooth="yes"/>
      <point x="53" y="373" smooth="yes"/>
      <point x="53" y="181" type="curve" smooth="yes"/>
      <point x="53" y="63" smooth="yes"/>
      <point x="108" y="-12" smooth="yes"/>
      <point x="194" y="-12" type="curve" smooth="yes"/>
      <point x="298" y="-12"/>
      <point x="391" y="73"/>
      <point x="427" y="199" type="curve"/>
      <point x="424" y="165" smooth="yes"/>
      <point x="423" y="157" smooth="yes"/>
      <point x="423" y="145" type="curve" smooth="yes"/>
      <point x="423" y="38"/>
      <point x="459" y="-16"/>
    </contour>
  </outline>
</glyph>
<glyph name="b" format="1">
  <advance width="641"/>
  <unicode hex="0062"/>
  <outline>
    <contour>
      <point x="258" y="764" type="curve" smooth="yes"/>
      <point x="258" y="852"/>
      <point x="237" y="929"/>
      <point x="159" y="957" type="curve"/>
      <point x="165" y="911" smooth="yes"/>
      <point x="168" y="864" smooth="yes"/>
      <point x="168" y="817" type="curve" smooth="yes"/>
      <point x="168" y="582" smooth="yes"/>
      <point x="101" y="350" smooth="yes"/>
      <point x="101" y="189" type="curve" smooth="yes" name="hr01"/>
      <point x="101" y="82"/>
      <point x="144" y="5"/>
      <point x="215" y="-18" type="curve"/>
      <point x="202" y="27" smooth="yes"/>
      <point x="196" y="74" smooth="yes"/>
      <point x="196" y="119" type="curve" smooth="yes"/>
      <point x="196" y="304" smooth="yes"/>
      <point x="288" y="483" smooth="yes"/>
      <point x="375" y="483" type="curve" smooth="yes"/>
      <point x="440" y="483" smooth="yes"/>
      <point x="462" y="412" smooth="yes"/>
      <point x="462" y="350" type="curve" smooth="yes"/>
      <point x="462" y="229"/>
      <point x="393" y="49"/>
      <point x="257" y="16" type="curve"/>
      <point x="277" y="10" smooth="yes"/>
      <point x="297" y="7" smooth="yes"/>
      <point x="316" y="7" type="curve" smooth="yes"/>
      <point x="459" y="7" smooth="yes"/>
      <point x="570" y="161" smooth="yes"/>
      <point x="570" y="360" type="curve" smooth="yes"/>
      <point x="570" y="491" smooth="yes"/>
      <point x="495" y="577" smooth="yes"/>
      <point x="418" y="577" type="curve" smooth="yes"/>
      <point x="328" y="577"/>
      <point x="251" y="498"/>
      <point x="212" y="357" type="curve"/>
      <point x="227" y="528" smooth="yes"/>
      <point x="258" y="680" smooth="yes"/>
    </contour>
  </outline>
</glyph>
<glyph name="e" format="1">
  <advance width="542"/>
  <unicode hex="0065"/>
  <outline>
    <contour>
      <point x="248" y="-15" type="curve" smooth="yes" name="hr00"/>
      <point x="346" y="-15"/>
      <point x="416" y="27"/>
      <point x="474" y="120" type="curve"/>
      <point x="474" y="135"/>
      <point x="463" y="143"/>
      <point x="437" y="147" type="curve"/>
      <point x="396" y="83" smooth="yes"/>
      <point x="340" y="49" smooth="yes"/>
      <point x="276" y="49" type="curve" smooth="yes"/>
      <point x="207" y="49" smooth="yes"/>
      <point x="171" y="109" smooth="yes"/>
      <point x="171" y="226" type="curve" smooth="yes"/>
      <point x="171" y="241"/>
      <point x="171" y="250"/>
      <point x="172" y="257" type="curve"/>
      <point x="204" y="250" smooth="yes"/>
      <point x="238" y="246" smooth="yes"/>
      <point x="278" y="246" type="curve" smooth="yes"/>
      <point x="407" y="246" smooth="yes"/>
      <point x="502" y="325" smooth="yes"/>
      <point x="502" y="432" type="curve" smooth="yes"/>
      <point x="502" y="527" smooth="yes"/>
      <point x="451" y="577" smooth="yes"/>
      <point x="352" y="577" type="curve" smooth="yes"/>
      <point x="189" y="577" smooth="yes"/>
      <point x="65" y="427" smooth="yes"/>
      <point x="65" y="229" type="curve" smooth="yes"/>
      <point x="65" y="86" smooth="yes"/>
      <point x="141" y="-15" smooth="yes"/>
    </contour>
    <contour>
      <point x="176" y="294" type="line"/>
      <point x="197" y="430" smooth="yes"/>
      <point x="261" y="525" smooth="yes"/>
      <point x="333" y="525" type="curve" smooth="yes"/>
      <point x="373" y="525" smooth="yes"/>
      <point x="396" y="498" smooth="yes"/>
      <point x="396" y="452" type="curve" smooth="yes"/>
      <point x="396" y="357" smooth="yes"/>
      <point x="319" y="294" smooth="yes"/>
      <point x="204" y="294" type="curve" smooth="yes"/>
    </contour>
  </outline>
</glyph>
<glyph name="f" format="1">
  <advance width="408"/>
  <unicode hex="0066"/>
  <outline>
    <contour>
      <point x="394" y="574" type="curve" name="hr00"/>
      <point x="364" y="550" smooth="yes"/>
      <point x="317" y="545" smooth="yes"/>
      <point x="270" y="545" type="curve" smooth="yes"/>
      <point x="261" y="545" type="line"/>
      <point x="293" y="705" smooth="yes"/>
      <point x="345" y="841" smooth="yes"/>
      <point x="426" y="841" type="curve" smooth="yes"/>
      <point x="457" y="841" smooth="yes"/>
      <point x="478" y="814" smooth="yes"/>
      <point x="478" y="771" type="curve" smooth="yes"/>
      <point x="478" y="737"/>
      <point x="455" y="698"/>
      <point x="441" y="686" type="curve"/>
      <point x="452" y="681" smooth="yes"/>
      <point x="465" y="679" smooth="yes"/>
      <point x="474" y="679" type="curve" smooth="yes"/>
      <point x="536" y="679" smooth="yes"/>
      <point x="572" y="732" smooth="yes"/>
      <point x="572" y="784" type="curve" smooth="yes"/>
      <point x="572" y="850" smooth="yes"/>
      <point x="517" y="900" smooth="yes"/>
      <point x="437" y="900" type="curve" smooth="yes"/>
      <point x="297" y="900"/>
      <point x="217" y="733"/>
      <point x="172" y="548" type="curve"/>
      <point x="104" y="548" smooth="yes"/>
      <point x="50" y="536" smooth="yes"/>
      <point x="50" y="467" type="curve" smooth="yes"/>
      <point x="50" y="457"/>
      <point x="51" y="446"/>
      <point x="52" y="438" type="curve"/>
      <point x="90" y="454"/>
      <point x="123" y="463"/>
      <point x="155" y="468" type="curve"/>
      <point x="126" y="316" smooth="yes"/>
      <point x="118" y="164" smooth="yes"/>
      <point x="118" y="93" type="curve" smooth="yes"/>
      <point x="118" y="-14"/>
      <point x="151" y="-81"/>
      <point x="231" y="-113" type="curve"/>
      <point x="216" y="-27" smooth="yes"/>
      <point x="215" y="-15" smooth="yes"/>
      <point x="215" y="63" type="curve" smooth="yes"/>
      <point x="215" y="135"/>
      <point x="223" y="309"/>
      <point x="249" y="474" type="curve"/>
      <point x="333" y="474" type="line" smooth="yes"/>
      <point x="371" y="474" smooth="yes"/>
      <point x="396" y="489" smooth="yes"/>
      <point x="396" y="548" type="curve" smooth="yes"/>
      <point x="396" y="557"/>
      <point x="395" y="567"/>
    </contour>
  </outline>
</glyph>
<glyph name="h" format="1">
  <advance width="621"/>
  <unicode hex="0068"/>
  <outline>
    <contour>
      <point x="198" y="309" type="curve"/>
      <point x="215" y="494" smooth="yes"/>
      <point x="244" y="664" smooth="yes"/>
      <point x="244" y="751" type="curve" smooth="yes"/>
      <point x="244" y="845"/>
      <point x="218" y="898"/>
      <point x="139" y="926" type="curve"/>
      <point x="147" y="906" smooth="yes"/>
      <point x="151" y="864" smooth="yes"/>
      <point x="151" y="809" type="curve" smooth="yes"/>
      <point x="151" y="515" smooth="yes"/>
      <point x="80" y="192" smooth="yes"/>
      <point x="80" y="83" type="curve" smooth="yes"/>
      <point x="80" y="21" smooth="yes"/>
      <point x="111" y="-2" smooth="yes"/>
      <point x="172" y="-2" type="curve" smooth="yes"/>
      <point x="179" y="-2"/>
      <point x="187" y="-1"/>
      <point x="199" y="0" type="curve"/>
      <point x="193" y="35" smooth="yes"/>
      <point x="193" y="67" smooth="yes"/>
      <point x="193" y="98" type="curve" smooth="yes" name="hr01"/>
      <point x="193" y="328" smooth="yes"/>
      <point x="319" y="483" smooth="yes"/>
      <point x="388" y="483" type="curve" smooth="yes"/>
      <point x="418" y="483" smooth="yes"/>
      <point x="434" y="460" smooth="yes"/>
      <point x="434" y="417" type="curve" smooth="yes"/>
      <point x="434" y="316" smooth="yes"/>
      <point x="394" y="181" smooth="yes"/>
      <point x="394" y="102" type="curve" smooth="yes" name="hr02"/>
      <point x="394" y="13" smooth="yes"/>
      <point x="438" y="-15" smooth="yes"/>
      <point x="519" y="-15" type="curve" smooth="yes"/>
      <point x="531" y="-15"/>
      <point x="543" y="-15"/>
      <point x="556" y="-14" type="curve"/>
      <point x="517" y="8" smooth="yes"/>
      <point x="499" y="32" smooth="yes"/>
      <point x="499" y="95" type="curve" smooth="yes"/>
      <point x="499" y="211" smooth="yes"/>
      <point x="538" y="322" smooth="yes"/>
      <point x="538" y="435" type="curve" smooth="yes" name="hr03"/>
      <point x="538" y="521" smooth="yes"/>
      <point x="512" y="577" smooth="yes"/>
      <point x="427" y="577" type="curve" smooth="yes"/>
      <point x="351" y="577"/>
      <point x="243" y="464"/>
    </contour>
  </outline>
</glyph>
<glyph name="i" format="1">
  <advance width="321"/>
  <unicode hex="0069"/>
  <outline>
    <contour>
      <point x="192" y="88" type="curve" smooth="yes"/>
      <point x="194" y="275" smooth="yes"/>
      <point x="242" y="438" smooth="yes"/>
      <point x="242" y="497" type="curve" smooth="yes" name="hr01"/>
      <point x="242" y="558" smooth="yes"/>
      <point x="217" y="583" smooth="yes"/>
      <point x="157" y="583" type="curve" smooth="yes"/>
      <point x="149" y="583"/>
      <point x="137" y="582"/>
      <point x="128" y="581" type="curve"/>
      <point x="134" y="548" smooth="yes"/>
      <point x="134" y="513" smooth="yes"/>
      <point x="134" y="479" type="curve" smooth="yes"/>
      <point x="134" y="377" smooth="yes"/>
      <point x="102" y="252" smooth="yes"/>
      <point x="102" y="164" type="curve" smooth="yes" name="hr02"/>
      <point x="102" y="67"/>
      <point x="125" y="13"/>
      <point x="204" y="-15" type="curve"/>
      <point x="196" y="3" smooth="yes"/>
      <point x="192" y="40" smooth="yes"/>
    </contour>
    <contour>
      <point x="257" y="686" type="curve"/>
      <point x="265" y="705" smooth="yes"/>
      <point x="272" y="723" smooth="yes"/>
      <point x="272" y="742" type="curve" smooth="yes"/>
      <point x="272" y="790" smooth="yes"/>
      <point x="228" y="799" smooth="yes"/>
      <point x="188" y="799" type="curve" smooth="yes"/>
      <point x="175" y="799"/>
      <point x="161" y="797"/>
      <point x="150" y="795" type="curve"/>
      <point x="142" y="776" smooth="yes"/>
      <point x="135" y="758" smooth="yes"/>
      <point x="135" y="739" type="curve" smooth="yes"/>
      <point x="135" y="691" smooth="yes"/>
      <point x="179" y="682" smooth="yes"/>
      <point x="219" y="682" type="curve" smooth="yes"/>
      <point x="232" y="682"/>
      <point x="246" y="684"/>
    </contour>
  </outline>
</glyph>
<glyph name="j" format="1">
  <advance width="331"/>
  <unicode hex="006A"/>
  <outline>
    <contour>
      <point x="232" y="504" type="curve" smooth="yes" name="hr00"/>
      <point x="232" y="560" smooth="yes"/>
      <point x="210" y="583" smooth="yes"/>
      <point x="155" y="583" type="curve" smooth="yes"/>
      <point x="145" y="583"/>
      <point x="130" y="582"/>
      <point x="121" y="581" type="curve"/>
      <point x="124" y="532" smooth="yes"/>
      <point x="127" y="475" smooth="yes"/>
      <point x="127" y="412" type="curve" smooth="yes"/>
      <point x="127" y="124" smooth="yes"/>
      <point x="83" y="-270" smooth="yes"/>
      <point x="-69" y="-270" type="curve" smooth="yes"/>
      <point x="-97" y="-270" smooth="yes"/>
      <point x="-116" y="-247" smooth="yes"/>
      <point x="-116" y="-207" type="curve" smooth="yes"/>
      <point x="-116" y="-167"/>
      <point x="-100" y="-135"/>
      <point x="-79" y="-115" type="curve"/>
      <point x="-90" y="-110" smooth="yes"/>
      <point x="-103" y="-108" smooth="yes"/>
      <point x="-112" y="-108" type="curve" smooth="yes"/>
      <point x="-174" y="-108" smooth="yes"/>
      <point x="-210" y="-163" smooth="yes"/>
      <point x="-210" y="-218" type="curve" smooth="yes"/>
      <point x="-210" y="-284" smooth="yes"/>
      <point x="-155" y="-334" smooth="yes"/>
      <point x="-84" y="-334" type="curve" smooth="yes"/>
      <point x="197" y="-334" smooth="yes"/>
      <point x="232" y="246" smooth="yes"/>
    </contour>
    <contour>
      <point x="239" y="687" type="curve"/>
      <point x="247" y="706" smooth="yes"/>
      <point x="254" y="724" smooth="yes"/>
      <point x="254" y="743" type="curve" smooth="yes"/>
      <point x="254" y="791" smooth="yes"/>
      <point x="210" y="800" smooth="yes"/>
      <point x="170" y="800" type="curve" smooth="yes"/>
      <point x="157" y="800"/>
      <point x="143" y="798"/>
      <point x="132" y="796" type="curve"/>
      <point x="124" y="777" smooth="yes"/>
      <point x="117" y="759" smooth="yes"/>
      <point x="117" y="740" type="curve" smooth="yes"/>
      <point x="117" y="692" smooth="yes"/>
      <point x="161" y="683" smooth="yes"/>
      <point x="201" y="683" type="curve" smooth="yes"/>
      <point x="214" y="683"/>
      <point x="228" y="685"/>
    </contour>
  </outline>
</glyph>
<glyph name="l" format="1">
  <advance width="299"/>
  <unicode hex="006C"/>
  <outline>
    <contour>
      <point x="81" y="117" type="curve" smooth="yes"/>
      <point x="81" y="39"/>
      <point x="86" y="-9"/>
      <point x="184" y="-15" type="curve"/>
      <point x="182" y="14" smooth="yes"/>
      <point x="180" y="44" smooth="yes"/>
      <point x="180" y="75" type="curve" smooth="yes"/>
      <point x="180" y="336" smooth="yes"/>
      <point x="238" y="628" smooth="yes"/>
      <point x="238" y="751" type="curve" smooth="yes" name="hr01"/>
      <point x="238" y="845"/>
      <point x="212" y="898"/>
      <point x="136" y="926" type="curve"/>
      <point x="144" y="906" smooth="yes"/>
      <point x="148" y="864" smooth="yes"/>
      <point x="148" y="809" type="curve" smooth="yes"/>
      <point x="148" y="606" smooth="yes"/>
      <point x="81" y="226" smooth="yes"/>
    </contour>
  </outline>
</glyph>
<glyph name="n" format="1">
  <advance width="626"/>
  <unicode hex="006E"/>
  <outline>
    <contour>
      <point x="543" y="435" type="curve" smooth="yes"/>
      <point x="543" y="521" smooth="yes"/>
      <point x="517" y="577" smooth="yes"/>
      <point x="439" y="577" type="curve" smooth="yes"/>
      <point x="361" y="577"/>
      <point x="249" y="464"/>
      <point x="204" y="309" type="curve"/>
      <point x="211" y="351" smooth="yes"/>
      <point x="216" y="391" smooth="yes"/>
      <point x="216" y="427" type="curve" smooth="yes"/>
      <point x="216" y="504"/>
      <point x="193" y="565"/>
      <point x="110" y="598" type="curve"/>
      <point x="122" y="551" smooth="yes"/>
      <point x="127" y="500" smooth="yes"/>
      <point x="127" y="448" type="curve" smooth="yes"/>
      <point x="127" y="315" smooth="yes"/>
      <point x="85" y="142" smooth="yes"/>
      <point x="85" y="84" type="curve" smooth="yes"/>
      <point x="85" y="22" smooth="yes"/>
      <point x="116" y="-2" smooth="yes"/>
      <point x="173" y="-2" type="curve" smooth="yes"/>
      <point x="181" y="-2"/>
      <point x="191" y="-1"/>
      <point x="204" y="0" type="curve"/>
      <point x="198" y="35" smooth="yes"/>
      <point x="198" y="67" smooth="yes"/>
      <point x="198" y="98" type="curve" smooth="yes" name="hr01"/>
      <point x="198" y="328" smooth="yes"/>
      <point x="324" y="483" smooth="yes"/>
      <point x="399" y="483" type="curve" smooth="yes"/>
      <point x="425" y="483" smooth="yes"/>
      <point x="439" y="460" smooth="yes"/>
      <point x="439" y="417" type="curve" smooth="yes" name="hr02"/>
      <point x="439" y="316" smooth="yes"/>
      <point x="399" y="181" smooth="yes"/>
      <point x="399" y="102" type="curve" smooth="yes" name="hr03"/>
      <point x="399" y="13" smooth="yes"/>
      <point x="435" y="-15" smooth="yes"/>
      <point x="524" y="-15" type="curve" smooth="yes"/>
      <point x="536" y="-15"/>
      <point x="548" y="-15"/>
      <point x="561" y="-14" type="curve"/>
      <point x="522" y="8" smooth="yes"/>
      <point x="504" y="32" smooth="yes"/>
      <point x="504" y="95" type="curve" smooth="yes"/>
      <point x="504" y="211" smooth="yes"/>
      <point x="543" y="339" smooth="yes"/>
    </contour>
  </outline>
</glyph>
<glyph name="r" format="1">
  <advance width="463"/>
  <unicode hex="0072"/>
  <outline>
    <contour>
      <point x="207" y="325" type="curve"/>
      <point x="212" y="354" smooth="yes"/>
      <point x="216" y="403" smooth="yes"/>
      <point x="216" y="427" type="curve" smooth="yes"/>
      <point x="216" y="504"/>
      <point x="193" y="565"/>
      <point x="110" y="598" type="curve"/>
      <point x="122" y="551" smooth="yes"/>
      <point x="127" y="500" smooth="yes"/>
      <point x="127" y="448" type="curve" smooth="yes"/>
      <point x="127" y="315" smooth="yes"/>
      <point x="85" y="142" smooth="yes"/>
      <point x="85" y="84" type="curve" smooth="yes"/>
      <point x="85" y="22" smooth="yes"/>
      <point x="116" y="-2" smooth="yes"/>
      <point x="173" y="-2" type="curve" smooth="yes"/>
      <point x="181" y="-2"/>
      <point x="190" y="-1"/>
      <point x="203" y="0" type="curve"/>
      <point x="201" y="30" smooth="yes"/>
      <point x="198" y="58" smooth="yes"/>
      <point x="198" y="85" type="curve" smooth="yes" name="hr01"/>
      <point x="198" y="334" smooth="yes"/>
      <point x="295" y="478" smooth="yes"/>
      <point x="353" y="478" type="curve" smooth="yes"/>
      <point x="374" y="478" smooth="yes"/>
      <point x="382" y="463" smooth="yes"/>
      <point x="382" y="442" type="curve" smooth="yes"/>
      <point x="382" y="410"/>
      <point x="364" y="365"/>
      <point x="348" y="342" type="curve"/>
      <point x="357" y="340" smooth="yes"/>
      <point x="365" y="340" smooth="yes"/>
      <point x="373" y="340" type="curve" smooth="yes"/>
      <point x="444" y="340" smooth="yes"/>
      <point x="475" y="401" smooth="yes"/>
      <point x="475" y="466" type="curve" smooth="yes"/>
      <point x="475" y="524" smooth="yes"/>
      <point x="447" y="578" smooth="yes"/>
      <point x="390" y="578" type="curve" smooth="yes"/>
      <point x="337" y="578"/>
      <point x="259" y="513"/>
    </contour>
  </outline>
</glyph>
<glyph name="s" format="1">
  <advance width="502"/>
  <unicode hex="0073"/>
  <outline>
    <contour>
      <point x="197" y="448" type="curve" smooth="yes"/>
      <point x="197" y="502" smooth="yes"/>
      <point x="242" y="528" smooth="yes"/>
      <point x="285" y="528" type="curve" smooth="yes"/>
      <point x="324" y="528" smooth="yes"/>
      <point x="362" y="504" smooth="yes"/>
      <point x="362" y="456" type="curve" smooth="yes"/>
      <point x="362" y="438"/>
      <point x="354" y="406"/>
      <point x="336" y="384" type="curve"/>
      <point x="350" y="378" smooth="yes"/>
      <point x="363" y="375" smooth="yes"/>
      <point x="373" y="375" type="curve" smooth="yes"/>
      <point x="419" y="375" smooth="yes"/>
      <point x="448" y="420" smooth="yes"/>
      <point x="448" y="467" type="curve" smooth="yes"/>
      <point x="448" y="524" smooth="yes"/>
      <point x="405" y="583" smooth="yes"/>
      <point x="297" y="583" type="curve" smooth="yes"/>
      <point x="177" y="583" smooth="yes"/>
      <point x="100" y="514" smooth="yes"/>
      <point x="100" y="421" type="curve" smooth="yes"/>
      <point x="100" y="256" smooth="yes"/>
      <point x="330" y="236" smooth="yes"/>
      <point x="330" y="116" type="curve" smooth="yes" name="hr01"/>
      <point x="330" y="61" smooth="yes"/>
      <point x="279" y="35" smooth="yes"/>
      <point x="234" y="35" type="curve" smooth="yes"/>
      <point x="171" y="35" smooth="yes"/>
      <point x="142" y="78" smooth="yes"/>
      <point x="142" y="125" type="curve" smooth="yes"/>
      <point x="142" y="148"/>
      <point x="150" y="173"/>
      <point x="164" y="191" type="curve"/>
      <point x="152" y="197" smooth="yes"/>
      <point x="140" y="199" smooth="yes"/>
      <point x="130" y="199" type="curve" smooth="yes"/>
      <point x="85" y="199" smooth="yes"/>
      <point x="48" y="160" smooth="yes"/>
      <point x="48" y="103" type="curve" smooth="yes"/>
      <point x="48" y="35" smooth="yes"/>
      <point x="112" y="-20" smooth="yes"/>
      <point x="232" y="-20" type="curve" smooth="yes"/>
      <point x="352" y="-20" smooth="yes"/>
      <point x="436" y="46" smooth="yes"/>
      <point x="436" y="140" type="curve" smooth="yes"/>
      <point x="436" y="281" smooth="yes"/>
      <point x="197" y="319" smooth="yes"/>
    </contour>
  </outline>
</glyph>
<glyph name="t" format="1">
  <advance width="386"/>
  <unicode hex="0074"/>
  <outline>
    <contour>
      <point x="394" y="574" type="curve"/>
      <point x="364" y="550"/>
      <point x="318" y="545"/>
      <point x="271" y="545" type="curve"/>
      <point x="274" y="571" smooth="yes"/>
      <point x="276" y="595" smooth="yes"/>
      <point x="276" y="618" type="curve" smooth="yes"/>
      <point x="276" y="696"/>
      <point x="240" y="741"/>
      <point x="180" y="750" type="curve"/>
      <point x="180" y="728" smooth="yes"/>
      <point x="181" y="706" smooth="yes"/>
      <point x="181" y="685" type="curve" smooth="yes"/>
      <point x="181" y="636"/>
      <point x="178" y="590"/>
      <point x="174" y="548" type="curve"/>
      <point x="173" y="548" type="line"/>
      <point x="105" y="548" smooth="yes"/>
      <point x="50" y="537" smooth="yes"/>
      <point x="50" y="467" type="curve" smooth="yes"/>
      <point x="50" y="457"/>
      <point x="51" y="446"/>
      <point x="52" y="438" type="curve"/>
      <point x="94" y="456"/>
      <point x="130" y="465"/>
      <point x="164" y="470" type="curve"/>
      <point x="145" y="339" smooth="yes"/>
      <point x="115" y="233" smooth="yes"/>
      <point x="115" y="122" type="curve" smooth="yes" name="hr01"/>
      <point x="115" y="26"/>
      <point x="143" y="-29"/>
      <point x="220" y="-57" type="curve"/>
      <point x="211" y="-37" smooth="yes"/>
      <point x="206" y="7" smooth="yes"/>
      <point x="206" y="63" type="curve" smooth="yes"/>
      <point x="206" y="193"/>
      <point x="241" y="345"/>
      <point x="261" y="474" type="curve"/>
      <point x="333" y="474" type="line" smooth="yes"/>
      <point x="371" y="474" smooth="yes"/>
      <point x="396" y="489" smooth="yes"/>
      <point x="396" y="548" type="curve" smooth="yes"/>
      <point x="396" y="557"/>
      <point x="395" y="567"/>
    </contour>
  </outline>
</glyph>
<glyph name="u" format="1">
  <advance width="606"/>
  <unicode hex="0075"/>
  <outline>
    <contour>
      <point x="408" y="577" type="curve"/>
      <point x="412" y="551" smooth="yes"/>
      <point x="414" y="523" smooth="yes"/>
      <point x="414" y="496" type="curve" smooth="yes"/>
      <point x="414" y="303" smooth="yes"/>
      <point x="315" y="94" smooth="yes"/>
      <point x="237" y="94" type="curve" smooth="yes"/>
      <point x="205" y="94" smooth="yes"/>
      <point x="191" y="119" smooth="yes"/>
      <point x="191" y="168" type="curve" smooth="yes"/>
      <point x="191" y="264" smooth="yes"/>
      <point x="233" y="392" smooth="yes"/>
      <point x="233" y="465" type="curve" smooth="yes"/>
      <point x="233" y="556"/>
      <point x="180" y="572"/>
      <point x="105" y="572" type="curve"/>
      <point x="115" y="535" smooth="yes"/>
      <point x="119" y="499" smooth="yes"/>
      <point x="119" y="462" type="curve" smooth="yes"/>
      <point x="119" y="370" smooth="yes"/>
      <point x="86" y="272" smooth="yes"/>
      <point x="86" y="166" type="curve" smooth="yes" name="hr01"/>
      <point x="86" y="74" smooth="yes"/>
      <point x="110" y="0" smooth="yes"/>
      <point x="200" y="0" type="curve" smooth="yes"/>
      <point x="270" y="0"/>
      <point x="369" y="113"/>
      <point x="410" y="269" type="curve"/>
      <point x="405" y="229" smooth="yes"/>
      <point x="399" y="190" smooth="yes"/>
      <point x="399" y="156" type="curve" smooth="yes"/>
      <point x="399" y="77"/>
      <point x="421" y="13"/>
      <point x="507" y="-21" type="curve"/>
      <point x="492" y="33" smooth="yes"/>
      <point x="488" y="93" smooth="yes"/>
      <point x="488" y="154" type="curve" smooth="yes"/>
      <point x="488" y="278" smooth="yes"/>
      <point x="526" y="439" smooth="yes"/>
      <point x="526" y="490" type="curve" smooth="yes"/>
      <point x="526" y="562" smooth="yes"/>
      <point x="484" y="579" smooth="yes"/>
      <point x="440" y="579" type="curve" smooth="yes"/>
      <point x="431" y="579"/>
      <point x="419" y="578"/>
    </contour>
  </outline>
</glyph>
<glyph name="v" format="1">
  <advance width="516"/>
  <unicode hex="0076"/>
  <outline>
    <contour>
      <point x="256" y="0" type="curve" name="hr00"/>
      <point x="335" y="215" smooth="yes"/>
      <point x="496" y="414" smooth="yes"/>
      <point x="496" y="508" type="curve" smooth="yes"/>
      <point x="496" y="543"/>
      <point x="478" y="569"/>
      <point x="434" y="599" type="curve"/>
      <point x="434" y="492"/>
      <point x="325" y="269"/>
      <point x="240" y="105" type="curve"/>
      <point x="193" y="346" smooth="yes"/>
      <point x="216" y="586" smooth="yes"/>
      <point x="110" y="586" type="curve" smooth="yes"/>
      <point x="82" y="586"/>
      <point x="61" y="576"/>
      <point x="39" y="560" type="curve"/>
      <point x="107" y="450"/>
      <point x="124" y="182"/>
      <point x="170" y="1" type="curve"/>
      <point x="172" y="-10" smooth="yes"/>
      <point x="184" y="-14" smooth="yes"/>
      <point x="198" y="-14" type="curve" smooth="yes"/>
      <point x="220" y="-14"/>
      <point x="249" y="-4"/>
    </contour>
  </outline>
</glyph>
<glyph name="x" format="1">
  <advance width="555"/>
  <unicode hex="0078"/>
  <outline>
    <contour>
      <point x="458" y="-30" type="curve" smooth="yes" name="hr00"/>
      <point x="473" y="-30"/>
      <point x="489" y="-27"/>
      <point x="507" y="-21" type="curve"/>
      <point x="458" y="15"/>
      <point x="383" y="107"/>
      <point x="317" y="294" type="curve"/>
      <point x="416" y="384" smooth="yes"/>
      <point x="507" y="436" smooth="yes"/>
      <point x="507" y="508" type="curve" smooth="yes"/>
      <point x="507" y="534"/>
      <point x="494" y="562"/>
      <point x="468" y="595" type="curve"/>
      <point x="455" y="525"/>
      <point x="379" y="442"/>
      <point x="295" y="360" type="curve"/>
      <point x="252" y="496" smooth="yes"/>
      <point x="228" y="586" smooth="yes"/>
      <point x="162" y="586" type="curve" smooth="yes"/>
      <point x="145" y="586"/>
      <point x="111" y="575"/>
      <point x="93" y="560" type="curve"/>
      <point x="143" y="494"/>
      <point x="179" y="390"/>
      <point x="217" y="287" type="curve"/>
      <point x="125" y="200" smooth="yes"/>
      <point x="43" y="121" smooth="yes"/>
      <point x="43" y="68" type="curve" smooth="yes"/>
      <point x="43" y="35"/>
      <point x="61" y="-1"/>
      <point x="98" y="-42" type="curve"/>
      <point x="131" y="70"/>
      <point x="185" y="154"/>
      <point x="242" y="219" type="curve"/>
      <point x="294" y="85" smooth="yes"/>
      <point x="354" y="-30" smooth="yes"/>
    </contour>
  </outline>
</glyph>
<glyph name="z" format="1">
  <advance width="495"/>
  <unicode hex="007A"/>
  <outline>
    <contour>
      <point x="98" y="566" type="curve"/>
      <point x="93" y="552" smooth="yes"/>
      <point x="90" y="538" smooth="yes"/>
      <point x="90" y="525" type="curve" smooth="yes"/>
      <point x="90" y="484" smooth="yes"/>
      <point x="107" y="460" smooth="yes"/>
      <point x="155" y="460" type="curve" smooth="yes"/>
      <point x="193" y="460"/>
      <point x="280" y="478"/>
      <point x="373" y="481" type="curve"/>
      <point x="310" y="375"/>
      <point x="203" y="232"/>
      <point x="62" y="86" type="curve"/>
      <point x="26" y="73"/>
      <point x="5" y="45"/>
      <point x="-5" y="-8" type="curve"/>
      <point x="39" y="4" smooth="yes"/>
      <point x="82" y="9" smooth="yes"/>
      <point x="132" y="9" type="curve" smooth="yes"/>
      <point x="222" y="9" smooth="yes"/>
      <point x="328" y="-7" smooth="yes"/>
      <point x="374" y="-7" type="curve" smooth="yes" name="hr01"/>
      <point x="433" y="-7" smooth="yes"/>
      <point x="450" y="14" smooth="yes"/>
      <point x="450" y="51" type="curve" smooth="yes"/>
      <point x="450" y="66"/>
      <point x="448" y="85"/>
      <point x="445" y="100" type="curve"/>
      <point x="397" y="93" smooth="yes"/>
      <point x="348" y="91" smooth="yes"/>
      <point x="302" y="91" type="curve" smooth="yes"/>
      <point x="255" y="91"/>
      <point x="212" y="93"/>
      <point x="169" y="94" type="curve"/>
      <point x="316" y="282" smooth="yes"/>
      <point x="480" y="433" smooth="yes"/>
      <point x="480" y="530" type="curve" smooth="yes"/>
      <point x="480" y="559"/>
      <point x="461" y="592"/>
      <point x="435" y="614" type="curve"/>
      <point x="431" y="598"/>
      <point x="424" y="579"/>
      <point x="413" y="557" type="curve"/>
      <point x="370" y="553" smooth="yes"/>
      <point x="329" y="552" smooth="yes"/>
      <point x="289" y="552" type="curve" smooth="yes"/>
      <point x="224" y="552"/>
      <point x="160" y="557"/>
    </contour>
  </outline>
</glyph>
<glyph name="braceleft" format="1">
  <advance width="372"/>
  <unicode hex="007B"/>
  <outline>
    <contour>
      <point x="237" y="171" type="curve" smooth="yes"/>
      <point x="237" y="252"/>
      <point x="197" y="322"/>
      <point x="159" y="330" type="curve"/>
      <point x="238" y="356" smooth="yes"/>
      <point x="267" y="481" smooth="yes"/>
      <point x="267" y="610" type="curve" smooth="yes"/>
      <point x="267" y="679" smooth="yes"/>
      <point x="278" y="712" smooth="yes"/>
      <point x="345" y="712" type="curve" smooth="yes"/>
      <point x="357" y="712"/>
      <point x="371" y="711"/>
      <point x="387" y="709" type="curve"/>
      <point x="387" y="758" smooth="yes"/>
      <point x="371" y="783" smooth="yes"/>
      <point x="321" y="783" type="curve" smooth="yes"/>
      <point x="192" y="783" smooth="yes"/>
      <point x="153" y="724" smooth="yes"/>
      <point x="153" y="595" type="curve" smooth="yes"/>
      <point x="153" y="490"/>
      <point x="153" y="361"/>
      <point x="62" y="348" type="curve"/>
      <point x="60" y="312" type="line"/>
      <point x="114" y="310" smooth="yes"/>
      <point x="128" y="245" smooth="yes"/>
      <point x="128" y="168" type="curve" smooth="yes"/>
      <point x="128" y="101" smooth="yes"/>
      <point x="114" y="40" smooth="yes"/>
      <point x="114" y="-10" type="curve" smooth="yes" name="hr01"/>
      <point x="114" y="-89" smooth="yes"/>
      <point x="147" y="-139" smooth="yes"/>
      <point x="262" y="-139" type="curve" smooth="yes"/>
      <point x="319" y="-139"/>
      <point x="335" y="-123"/>
      <point x="335" y="-65" type="curve"/>
      <point x="319" y="-68" smooth="yes"/>
      <point x="305" y="-69" smooth="yes"/>
      <point x="293" y="-69" type="curve" smooth="yes"/>
      <point x="236" y="-69" smooth="yes"/>
      <point x="224" y="-39" smooth="yes"/>
      <point x="224" y="8" type="curve" smooth="yes"/>
      <point x="224" y="52" smooth="yes"/>
      <point x="237" y="111" smooth="yes"/>
    </contour>
  </outline>
</glyph>
<glyph name="bar" format="1">
  <advance width="456"/>
  <unicode hex="007C"/>
  <outline>
    <contour>
      <point x="171" y="-122" type="curve" smooth="yes"/>
      <point x="171" y="-166"/>
      <point x="207" y="-186"/>
      <point x="284" y="-186" type="curve"/>
      <point x="272" y="-93" smooth="yes"/>
      <point x="270" y="289" smooth="yes"/>
      <point x="270" y="383" type="curve" smooth="yes"/>
      <point x="270" y="582" smooth="yes"/>
      <point x="285" y="673" smooth="yes"/>
      <point x="285" y="803" type="curve" smooth="yes" name="hr01"/>
      <point x="285" y="847"/>
      <point x="249" y="867"/>
      <point x="172" y="867" type="curve"/>
      <point x="183" y="776" smooth="yes"/>
      <point x="186" y="477" smooth="yes"/>
      <point x="186" y="383" type="curve" smooth="yes"/>
      <point x="186" y="185" smooth="yes"/>
      <point x="171" y="9" smooth="yes"/>
    </contour>
  </outline>
</glyph>
<glyph name="asciitilde" format="1">
  <advance width="620"/>
  <unicode hex="007E"/>
  <outline>
    <contour>
      <point x="415" y="294" type="curve" name="hr00"/>
      <point x="554" y="294"/>
      <point x="561" y="365"/>
      <point x="561" y="442" type="curve"/>
      <point x="533" y="418" smooth="yes"/>
      <point x="477" y="406" smooth="yes"/>
      <point x="427" y="406" type="curve" smooth="yes"/>
      <point x="366" y="406" smooth="yes"/>
      <point x="285" y="432" smooth="yes"/>
      <point x="205" y="432" type="curve" smooth="yes"/>
      <point x="66" y="432"/>
      <point x="59" y="361"/>
      <point x="59" y="284" type="curve"/>
      <point x="87" y="308" smooth="yes"/>
      <point x="143" y="320" smooth="yes"/>
      <point x="193" y="320" type="curve" smooth="yes"/>
      <point x="254" y="320" smooth="yes"/>
      <point x="335" y="294" smooth="yes"/>
    </contour>
  </outline>
</glyph>
<glyph name="cent" format="1">
  <advance width="620"/>
  <unicode hex="00A2"/>
  <outline>
    <contour>
      <point x="212" y="313" type="curve" smooth="yes" name="hr00"/>
      <point x="212" y="447" smooth="yes"/>
      <point x="275" y="607" smooth="yes"/>
      <point x="382" y="607" type="curve" smooth="yes"/>
      <point x="429" y="607" smooth="yes"/>
      <point x="444" y="574" smooth="yes"/>
      <point x="444" y="543" type="curve" smooth="yes"/>
      <point x="444" y="499"/>
      <point x="420" y="453"/>
      <point x="401" y="433" type="curve"/>
      <point x="419" y="428" smooth="yes"/>
      <point x="436" y="425" smooth="yes"/>
      <point x="450" y="425" type="curve" smooth="yes"/>
      <point x="502" y="425" smooth="yes"/>
      <point x="535" y="481" smooth="yes"/>
      <point x="535" y="536" type="curve" smooth="yes"/>
      <point x="535" y="590"/>
      <point x="508" y="647"/>
      <point x="430" y="661" type="curve"/>
      <point x="438" y="698" smooth="yes"/>
      <point x="443" y="728" smooth="yes"/>
      <point x="443" y="748" type="curve" smooth="yes"/>
      <point x="443" y="806"/>
      <point x="410" y="832"/>
      <point x="389" y="832" type="curve"/>
      <point x="385" y="787"/>
      <point x="373" y="727"/>
      <point x="358" y="661" type="curve"/>
      <point x="194" y="641" smooth="yes"/>
      <point x="104" y="481" smooth="yes"/>
      <point x="104" y="308" type="curve" smooth="yes"/>
      <point x="104" y="160"/>
      <point x="172" y="86"/>
      <point x="255" y="73" type="curve"/>
      <point x="246" y="34" smooth="yes"/>
      <point x="241" y="1" smooth="yes"/>
      <point x="241" y="-21" type="curve" smooth="yes"/>
      <point x="241" y="-98"/>
      <point x="315" y="-98"/>
      <point x="322" y="-98" type="curve"/>
      <point x="322" y="-46"/>
      <point x="330" y="15"/>
      <point x="342" y="79" type="curve"/>
      <point x="399" y="93"/>
      <point x="461" y="129"/>
      <point x="506" y="207" type="curve"/>
      <point x="506" y="225"/>
      <point x="492" y="234"/>
      <point x="470" y="239" type="curve"/>
      <point x="423" y="168" smooth="yes"/>
      <point x="368" y="141" smooth="yes"/>
      <point x="316" y="141" type="curve" smooth="yes"/>
      <point x="249" y="141" smooth="yes"/>
      <point x="212" y="203" smooth="yes"/>
    </contour>
  </outline>
</glyph>
<glyph name="sterling" format="1">
  <advance width="620"/>
  <unicode hex="00A3"/>
  <outline>
    <contour>
      <point x="395" y="304" type="curve" smooth="yes"/>
      <point x="424" y="304"/>
      <point x="447" y="302"/>
      <point x="457" y="298" type="curve"/>
      <point x="443" y="349" smooth="yes"/>
      <point x="415" y="367" smooth="yes"/>
      <point x="366" y="367" type="curve" smooth="yes"/>
      <point x="332" y="367"/>
      <point x="296" y="361"/>
      <point x="259" y="354" type="curve"/>
      <point x="287" y="553" smooth="yes"/>
      <point x="318" y="654" smooth="yes"/>
      <point x="390" y="654" type="curve" smooth="yes"/>
      <point x="429" y="654" smooth="yes"/>
      <point x="443" y="625" smooth="yes"/>
      <point x="443" y="598" type="curve" smooth="yes"/>
      <point x="443" y="564"/>
      <point x="420" y="528"/>
      <point x="393" y="510" type="curve"/>
      <point x="406" y="505" smooth="yes"/>
      <point x="419" y="503" smooth="yes"/>
      <point x="430" y="503" type="curve" smooth="yes"/>
      <point x="499" y="503" smooth="yes"/>
      <point x="534" y="555" smooth="yes"/>
      <point x="534" y="601" type="curve" smooth="yes"/>
      <point x="534" y="664" smooth="yes"/>
      <point x="496" y="719" smooth="yes"/>
      <point x="395" y="719" type="curve" smooth="yes"/>
      <point x="274" y="719" smooth="yes"/>
      <point x="196" y="614" smooth="yes"/>
      <point x="154" y="348" type="curve" smooth="yes"/>
      <point x="153" y="343"/>
      <point x="152" y="339"/>
      <point x="152" y="335" type="curve"/>
      <point x="127" y="331" smooth="yes"/>
      <point x="102" y="329" smooth="yes"/>
      <point x="77" y="329" type="curve" smooth="yes" name="hr01"/>
      <point x="65" y="329"/>
      <point x="54" y="330"/>
      <point x="43" y="330" type="curve"/>
      <point x="48" y="290" smooth="yes"/>
      <point x="70" y="266" smooth="yes"/>
      <point x="111" y="266" type="curve" smooth="yes"/>
      <point x="120" y="266"/>
      <point x="131" y="267"/>
      <point x="143" y="268" type="curve"/>
      <point x="135" y="196"/>
      <point x="126" y="122"/>
      <point x="109" y="75" type="curve"/>
      <point x="35" y="46"/>
      <point x="30" y="-19"/>
      <point x="30" y="-21" type="curve"/>
      <point x="80" y="-6" smooth="yes"/>
      <point x="136" y="-2" smooth="yes"/>
      <point x="187" y="-2" type="curve" smooth="yes" name="hr02"/>
      <point x="277" y="-2" smooth="yes"/>
      <point x="357" y="-19" smooth="yes"/>
      <point x="394" y="-19" type="curve" smooth="yes" name="hr03"/>
      <point x="466" y="-19"/>
      <point x="496" y="26"/>
      <point x="501" y="110" type="curve"/>
      <point x="449" y="89" smooth="yes"/>
      <point x="396" y="83" smooth="yes"/>
      <point x="344" y="83" type="curve" smooth="yes"/>
      <point x="291" y="83" smooth="yes"/>
      <point x="239" y="89" smooth="yes"/>
      <point x="190" y="89" type="curve" smooth="yes"/>
      <point x="184" y="89" type="line"/>
      <point x="218" y="128"/>
      <point x="236" y="198"/>
      <point x="250" y="287" type="curve"/>
      <point x="299" y="296" smooth="yes"/>
      <point x="351" y="304" smooth="yes"/>
    </contour>
  </outline>
</glyph>
<glyph name="section" format="1">
  <advance width="620"/>
  <unicode hex="00A7"/>
  <outline>
    <contour>
      <point x="529" y="270" type="curve" smooth="yes"/>
      <point x="529" y="431" smooth="yes"/>
      <point x="244" y="484" smooth="yes"/>
      <point x="244" y="650" type="curve" smooth="yes"/>
      <point x="244" y="720" smooth="yes"/>
      <point x="287" y="757" smooth="yes"/>
      <point x="347" y="757" type="curve" smooth="yes"/>
      <point x="397" y="757" smooth="yes"/>
      <point x="453" y="729" smooth="yes"/>
      <point x="453" y="662" type="curve" smooth="yes"/>
      <point x="453" y="629"/>
      <point x="430" y="593"/>
      <point x="403" y="575" type="curve"/>
      <point x="416" y="569" smooth="yes"/>
      <point x="432" y="567" smooth="yes"/>
      <point x="443" y="567" type="curve" smooth="yes"/>
      <point x="506" y="567" smooth="yes"/>
      <point x="538" y="625" smooth="yes"/>
      <point x="538" y="666" type="curve" smooth="yes"/>
      <point x="538" y="730" smooth="yes"/>
      <point x="482" y="813" smooth="yes"/>
      <point x="357" y="813" type="curve" smooth="yes"/>
      <point x="211" y="813" smooth="yes"/>
      <point x="141" y="738" smooth="yes"/>
      <point x="141" y="630" type="curve" smooth="yes"/>
      <point x="141" y="517"/>
      <point x="214" y="451"/>
      <point x="287" y="399" type="curve"/>
      <point x="166" y="384" smooth="yes"/>
      <point x="103" y="315" smooth="yes"/>
      <point x="103" y="219" type="curve" smooth="yes" name="hr01"/>
      <point x="103" y="17" smooth="yes"/>
      <point x="385" y="-37" smooth="yes"/>
      <point x="385" y="-169" type="curve" smooth="yes"/>
      <point x="385" y="-244" smooth="yes"/>
      <point x="324" y="-274" smooth="yes"/>
      <point x="270" y="-274" type="curve" smooth="yes"/>
      <point x="184" y="-274" smooth="yes"/>
      <point x="146" y="-209" smooth="yes"/>
      <point x="146" y="-156" type="curve" smooth="yes"/>
      <point x="146" y="-128"/>
      <point x="157" y="-97"/>
      <point x="172" y="-72" type="curve"/>
      <point x="163" y="-70" smooth="yes"/>
      <point x="152" y="-69" smooth="yes"/>
      <point x="143" y="-69" type="curve" smooth="yes"/>
      <point x="82" y="-69" smooth="yes"/>
      <point x="43" y="-116" smooth="yes"/>
      <point x="43" y="-178" type="curve" smooth="yes" name="hr02"/>
      <point x="43" y="-258" smooth="yes"/>
      <point x="118" y="-336" smooth="yes"/>
      <point x="259" y="-336" type="curve" smooth="yes"/>
      <point x="401" y="-336" smooth="yes"/>
      <point x="491" y="-246" smooth="yes"/>
      <point x="491" y="-140" type="curve" smooth="yes"/>
      <point x="491" y="-37"/>
      <point x="396" y="18"/>
      <point x="317" y="77" type="curve"/>
      <point x="446" y="91" smooth="yes"/>
      <point x="529" y="174" smooth="yes"/>
    </contour>
    <contour>
      <point x="202" y="241" type="curve"/>
      <point x="202" y="301" smooth="yes"/>
      <point x="254" y="349" smooth="yes"/>
      <point x="314" y="349" type="curve" smooth="yes"/>
      <point x="377" y="349" smooth="yes"/>
      <point x="425" y="301" smooth="yes"/>
      <point x="425" y="241" type="curve" smooth="yes" name="hr04"/>
      <point x="425" y="182" smooth="yes"/>
      <point x="377" y="134" smooth="yes"/>
      <point x="314" y="134" type="curve" smooth="yes"/>
      <point x="254" y="134" smooth="yes"/>
      <point x="202" y="182" smooth="yes"/>
    </contour>
  </outline>
</glyph>
<glyph name="dieresis" format="1">
  <advance width="450"/>
  <unicode hex="00A8"/>
  <outline>
    <contour>
      <point x="202" y="686" type="curve" name="hr00"/>
      <point x="210" y="705" smooth="yes"/>
      <point x="217" y="723" smooth="yes"/>
      <point x="217" y="742" type="curve" smooth="yes"/>
      <point x="217" y="790" smooth="yes"/>
      <point x="173" y="799" smooth="yes"/>
      <point x="133" y="799" type="curve" smooth="yes"/>
      <point x="120" y="799"/>
      <point x="106" y="797"/>
      <point x="95" y="795" type="curve"/>
      <point x="87" y="776" smooth="yes"/>
      <point x="80" y="758" smooth="yes"/>
      <point x="80" y="739" type="curve" smooth="yes"/>
      <point x="80" y="691" smooth="yes"/>
      <point x="124" y="682" smooth="yes"/>
      <point x="164" y="682" type="curve" smooth="yes"/>
      <point x="177" y="682"/>
      <point x="191" y="684"/>
    </contour>
    <contour>
      <point x="412" y="686" type="curve"/>
      <point x="420" y="705" smooth="yes"/>
      <point x="427" y="723" smooth="yes"/>
      <point x="427" y="742" type="curve" smooth="yes"/>
      <point x="427" y="790" smooth="yes"/>
      <point x="383" y="799" smooth="yes"/>
      <point x="343" y="799" type="curve" smooth="yes"/>
      <point x="330" y="799"/>
      <point x="316" y="797"/>
      <point x="305" y="795" type="curve"/>
      <point x="297" y="776" smooth="yes"/>
      <point x="290" y="758" smooth="yes"/>
      <point x="290" y="739" type="curve" smooth="yes"/>
      <point x="290" y="691" smooth="yes"/>
      <point x="334" y="682" smooth="yes"/>
      <point x="374" y="682" type="curve" smooth="yes"/>
      <point x="387" y="682"/>
      <point x="401" y="684"/>
    </contour>
  </outline>
</glyph>
<glyph name="ordfeminine" format="1">
  <advance width="391"/>
  <unicode hex="00AA"/>
  <outline>
    <contour>
      <point x="201" y="777" type="curve" smooth="yes"/>
      <point x="95" y="777" smooth="yes"/>
      <point x="29" y="652" smooth="yes"/>
      <point x="29" y="549" type="curve" smooth="yes"/>
      <point x="29" y="467" smooth="yes"/>
      <point x="67" y="429" smooth="yes"/>
      <point x="114" y="429" type="curve" smooth="yes"/>
      <point x="160" y="429"/>
      <point x="211" y="462"/>
      <point x="245" y="522" type="curve"/>
      <point x="251" y="462"/>
      <point x="284" y="427"/>
      <point x="350" y="414" type="curve" name="hr01"/>
      <point x="326" y="448" smooth="yes"/>
      <point x="316" y="471" smooth="yes"/>
      <point x="316" y="511" type="curve" smooth="yes"/>
      <point x="316" y="586" smooth="yes"/>
      <point x="345" y="675" smooth="yes"/>
      <point x="345" y="726" type="curve" smooth="yes" name="hr02"/>
      <point x="345" y="773" smooth="yes"/>
      <point x="317" y="784" smooth="yes"/>
      <point x="284" y="784" type="curve" smooth="yes"/>
      <point x="256" y="784" type="line"/>
      <point x="258" y="763" type="line"/>
      <point x="241" y="772" smooth="yes"/>
      <point x="216" y="777" smooth="yes"/>
    </contour>
    <contour>
      <point x="107" y="553" type="curve" smooth="yes"/>
      <point x="107" y="645"/>
      <point x="160" y="735"/>
      <point x="260" y="749" type="curve"/>
      <point x="261" y="735" smooth="yes"/>
      <point x="262" y="720" smooth="yes"/>
      <point x="262" y="708" type="curve" smooth="yes"/>
      <point x="262" y="601" smooth="yes"/>
      <point x="220" y="488" smooth="yes"/>
      <point x="156" y="488" type="curve" smooth="yes"/>
      <point x="122" y="488" smooth="yes"/>
      <point x="107" y="516" smooth="yes"/>
    </contour>
  </outline>
</glyph>
<glyph name="guillemotleft" format="1">
  <advance width="638"/>
  <unicode hex="00AB"/>
  <outline>
    <contour>
      <point x="75" y="307" type="line" name="hr00"/>
      <point x="143" y="274" smooth="yes"/>
      <point x="140" y="70" smooth="yes"/>
      <point x="224" y="70" type="curve" smooth="yes"/>
      <point x="249" y="70"/>
      <point x="274" y="79"/>
      <point x="309" y="115" type="curve"/>
      <point x="249" y="137"/>
      <point x="216" y="251"/>
      <point x="176" y="317" type="curve"/>
      <point x="229" y="383"/>
      <point x="286" y="497"/>
      <point x="352" y="519" type="curve"/>
      <point x="324" y="555" smooth="yes"/>
      <point x="303" y="564" smooth="yes"/>
      <point x="279" y="564" type="curve" smooth="yes"/>
      <point x="195" y="564"/>
      <point x="152" y="360"/>
      <point x="78" y="327" type="curve"/>
    </contour>
    <contour>
      <point x="316" y="307" type="line"/>
      <point x="384" y="274" smooth="yes"/>
      <point x="381" y="70" smooth="yes"/>
      <point x="465" y="70" type="curve" smooth="yes"/>
      <point x="490" y="70"/>
      <point x="515" y="79"/>
      <point x="550" y="115" type="curve"/>
      <point x="490" y="137"/>
      <point x="457" y="251"/>
      <point x="417" y="317" type="curve"/>
      <point x="470" y="383"/>
      <point x="527" y="497"/>
      <point x="593" y="519" type="curve"/>
      <point x="565" y="555" smooth="yes"/>
      <point x="544" y="564" smooth="yes"/>
      <point x="520" y="564" type="curve" smooth="yes"/>
      <point x="436" y="564"/>
      <point x="393" y="360"/>
      <point x="319" y="327" type="curve"/>
    </contour>
  </outline>
</glyph>
<glyph name="logicalnot" format="1">
  <advance width="620"/>
  <unicode hex="00AC"/>
  <outline>
    <contour>
      <point x="456" y="409" type="curve" smooth="yes" name="hr00"/>
      <point x="364" y="409" smooth="yes"/>
      <point x="294" y="396" smooth="yes"/>
      <point x="218" y="396" type="curve" smooth="yes"/>
      <point x="165" y="396"/>
      <point x="117" y="399"/>
      <point x="61" y="406" type="curve"/>
      <point x="61" y="400" smooth="yes"/>
      <point x="60" y="394" smooth="yes"/>
      <point x="60" y="388" type="curve" smooth="yes"/>
      <point x="60" y="340" smooth="yes"/>
      <point x="74" y="304" smooth="yes"/>
      <point x="170" y="304" type="curve" smooth="yes"/>
      <point x="264" y="304" smooth="yes"/>
      <point x="355" y="321" smooth="yes"/>
      <point x="444" y="321" type="curve" smooth="yes"/>
      <point x="457" y="321"/>
      <point x="470" y="321"/>
      <point x="484" y="320" type="curve"/>
      <point x="472" y="275" smooth="yes"/>
      <point x="461" y="229" smooth="yes"/>
      <point x="461" y="204" type="curve" smooth="yes"/>
      <point x="461" y="150" smooth="yes"/>
      <point x="490" y="136" smooth="yes"/>
      <point x="518" y="136" type="curve" smooth="yes"/>
      <point x="529" y="136"/>
      <point x="540" y="138"/>
      <point x="552" y="141" type="curve"/>
      <point x="552" y="208" smooth="yes"/>
      <point x="560" y="267" smooth="yes"/>
      <point x="560" y="311" type="curve" smooth="yes"/>
      <point x="560" y="367" smooth="yes"/>
      <point x="546" y="409" smooth="yes"/>
    </contour>
  </outline>
</glyph>
<glyph name="registered" format="1">
  <advance width="803"/>
  <unicode hex="00AE"/>
  <outline>
    <contour>
      <point x="295" y="731" type="curve" name="hr00"/>
      <point x="292" y="621" smooth="yes"/>
      <point x="253" y="470" smooth="yes"/>
      <point x="253" y="419" type="curve" smooth="yes"/>
      <point x="253" y="392" smooth="yes"/>
      <point x="269" y="381" smooth="yes"/>
      <point x="308" y="381" type="curve" smooth="yes"/>
      <point x="313" y="381"/>
      <point x="323" y="381"/>
      <point x="335" y="383" type="curve"/>
      <point x="335" y="434"/>
      <point x="339" y="492"/>
      <point x="346" y="543" type="curve"/>
      <point x="346" y="543"/>
      <point x="363" y="545"/>
      <point x="368" y="545" type="curve"/>
      <point x="390" y="486" smooth="yes"/>
      <point x="408" y="380" smooth="yes"/>
      <point x="487" y="380" type="curve" smooth="yes"/>
      <point x="499" y="380"/>
      <point x="512" y="382"/>
      <point x="531" y="386" type="curve"/>
      <point x="510" y="407"/>
      <point x="467" y="466"/>
      <point x="443" y="558" type="curve"/>
      <point x="506" y="583" smooth="yes"/>
      <point x="528" y="635" smooth="yes"/>
      <point x="528" y="671" type="curve" smooth="yes"/>
      <point x="528" y="733" smooth="yes"/>
      <point x="473" y="752" smooth="yes"/>
      <point x="413" y="752" type="curve" smooth="yes"/>
      <point x="371" y="752"/>
      <point x="326" y="742"/>
    </contour>
    <contour>
      <point x="366" y="699" type="curve"/>
      <point x="380" y="704" smooth="yes"/>
      <point x="393" y="706" smooth="yes"/>
      <point x="403" y="706" type="curve" smooth="yes"/>
      <point x="436" y="706" smooth="yes"/>
      <point x="450" y="683" smooth="yes"/>
      <point x="450" y="657" type="curve" smooth="yes"/>
      <point x="450" y="622"/>
      <point x="413" y="579"/>
      <point x="350" y="575" type="curve"/>
      <point x="356" y="612"/>
      <point x="362" y="659"/>
    </contour>
    <contour>
      <point x="436" y="814" type="curve" smooth="yes"/>
      <point x="533" y="814" smooth="yes"/>
      <point x="638" y="755" smooth="yes"/>
      <point x="638" y="579" type="curve" smooth="yes"/>
      <point x="638" y="447" smooth="yes"/>
      <point x="546" y="320" smooth="yes"/>
      <point x="367" y="320" type="curve" smooth="yes"/>
      <point x="270" y="320" smooth="yes"/>
      <point x="165" y="379" smooth="yes"/>
      <point x="165" y="555" type="curve" smooth="yes"/>
      <point x="165" y="687" smooth="yes"/>
      <point x="257" y="814" smooth="yes"/>
    </contour>
    <contour>
      <point x="438" y="861" type="curve" smooth="yes"/>
      <point x="217" y="861" smooth="yes"/>
      <point x="100" y="711" smooth="yes"/>
      <point x="100" y="555" type="curve" smooth="yes"/>
      <point x="100" y="344" smooth="yes"/>
      <point x="238" y="273" smooth="yes"/>
      <point x="365" y="273" type="curve" smooth="yes"/>
      <point x="586" y="273" smooth="yes"/>
      <point x="703" y="423" smooth="yes"/>
      <point x="703" y="579" type="curve" smooth="yes"/>
      <point x="703" y="790" smooth="yes"/>
      <point x="565" y="861" smooth="yes"/>
    </contour>
  </outline>
</glyph>
<glyph name="macron" format="1">
  <advance width="424"/>
  <unicode hex="00AF"/>
  <outline>
    <contour>
      <point x="297" y="778" type="curve" smooth="yes" name="hr00"/>
      <point x="243" y="778" smooth="yes"/>
      <point x="203" y="766" smooth="yes"/>
      <point x="158" y="766" type="curve" smooth="yes"/>
      <point x="127" y="766"/>
      <point x="99" y="768"/>
      <point x="66" y="775" type="curve"/>
      <point x="66" y="768" smooth="yes"/>
      <point x="65" y="763" smooth="yes"/>
      <point x="65" y="757" type="curve" smooth="yes"/>
      <point x="65" y="706" smooth="yes"/>
      <point x="74" y="679" smooth="yes"/>
      <point x="127" y="679" type="curve" smooth="yes"/>
      <point x="181" y="679" smooth="yes"/>
      <point x="221" y="691" smooth="yes"/>
      <point x="266" y="691" type="curve" smooth="yes"/>
      <point x="297" y="691"/>
      <point x="325" y="689"/>
      <point x="358" y="682" type="curve"/>
      <point x="358" y="689" smooth="yes"/>
      <point x="359" y="694" smooth="yes"/>
      <point x="359" y="700" type="curve" smooth="yes"/>
      <point x="359" y="751" smooth="yes"/>
      <point x="350" y="778" smooth="yes"/>
    </contour>
  </outline>
</glyph>
<glyph name="ordmasculine" format="1">
  <advance width="380"/>
  <unicode hex="00BA"/>
  <outline>
    <contour>
      <point x="219" y="740" type="curve" smooth="yes"/>
      <point x="252" y="740" smooth="yes"/>
      <point x="273" y="713" smooth="yes"/>
      <point x="273" y="643" type="curve" smooth="yes"/>
      <point x="273" y="562" smooth="yes"/>
      <point x="238" y="473" smooth="yes"/>
      <point x="176" y="473" type="curve" smooth="yes"/>
      <point x="130" y="473" smooth="yes"/>
      <point x="111" y="519" smooth="yes"/>
      <point x="111" y="577" type="curve" smooth="yes"/>
      <point x="111" y="652" smooth="yes"/>
      <point x="161" y="740" smooth="yes"/>
    </contour>
    <contour>
      <point x="197" y="772" type="curve"/>
      <point x="197" y="786"/>
      <point x="183" y="796"/>
      <point x="167" y="796" type="curve" name="hr01"/>
      <point x="87" y="775" smooth="yes"/>
      <point x="36" y="688" smooth="yes"/>
      <point x="36" y="587" type="curve" smooth="yes"/>
      <point x="36" y="476" smooth="yes"/>
      <point x="103" y="427" smooth="yes"/>
      <point x="165" y="427" type="curve" smooth="yes"/>
      <point x="289" y="427" smooth="yes"/>
      <point x="340" y="549" smooth="yes"/>
      <point x="340" y="652" type="curve" smooth="yes"/>
      <point x="340" y="736" smooth="yes"/>
      <point x="299" y="786" smooth="yes"/>
      <point x="250" y="786" type="curve" smooth="yes" name="hr02"/>
      <point x="231" y="786"/>
      <point x="217" y="783"/>
    </contour>
  </outline>
</glyph>
<glyph name="AE" format="1">
  <advance width="941"/>
  <unicode hex="00C6"/>
  <outline>
    <contour>
      <point x="380" y="-8" type="curve" name="hr00"/>
      <point x="432" y="2" smooth="yes"/>
      <point x="483" y="5" smooth="yes"/>
      <point x="530" y="5" type="curve" smooth="yes"/>
      <point x="624" y="5" smooth="yes"/>
      <point x="702" y="-8" smooth="yes"/>
      <point x="743" y="-8" type="curve" smooth="yes"/>
      <point x="807" y="-8"/>
      <point x="854" y="36"/>
      <point x="864" y="114" type="curve"/>
      <point x="804" y="97" smooth="yes"/>
      <point x="673" y="84" smooth="yes"/>
      <point x="542" y="84" type="curve" smooth="yes"/>
      <point x="530" y="84" type="line"/>
      <point x="530" y="172"/>
      <point x="537" y="260"/>
      <point x="546" y="341" type="curve"/>
      <point x="601" y="340" smooth="yes"/>
      <point x="685" y="340" smooth="yes"/>
      <point x="710" y="340" type="curve" smooth="yes"/>
      <point x="748" y="340" smooth="yes"/>
      <point x="773" y="360" smooth="yes"/>
      <point x="773" y="419" type="curve" smooth="yes"/>
      <point x="773" y="428"/>
      <point x="772" y="437"/>
      <point x="771" y="445" type="curve"/>
      <point x="740" y="421" smooth="yes"/>
      <point x="693" y="416" smooth="yes"/>
      <point x="646" y="416" type="curve" smooth="yes"/>
      <point x="634" y="416"/>
      <point x="597" y="416"/>
      <point x="556" y="417" type="curve"/>
      <point x="571" y="530" smooth="yes"/>
      <point x="587" y="625" smooth="yes"/>
      <point x="587" y="683" type="curve" smooth="yes"/>
      <point x="587" y="689" type="line"/>
      <point x="614" y="687" smooth="yes"/>
      <point x="638" y="687" smooth="yes"/>
      <point x="661" y="687" type="curve" smooth="yes"/>
      <point x="753" y="687"/>
      <point x="881" y="688"/>
      <point x="899" y="793" type="curve"/>
      <point x="824" y="778" smooth="yes"/>
      <point x="737" y="771" smooth="yes"/>
      <point x="651" y="771" type="curve" smooth="yes"/>
      <point x="582" y="771"/>
      <point x="434" y="781"/>
      <point x="368" y="790" type="curve"/>
      <point x="316" y="681" type="line" smooth="yes"/>
      <point x="235" y="512" smooth="yes"/>
      <point x="-15" y="91" smooth="yes"/>
      <point x="-15" y="44" type="curve" smooth="yes"/>
      <point x="-15" y="20"/>
      <point x="-6" y="-16"/>
      <point x="61" y="-33" type="curve"/>
      <point x="138" y="215"/>
      <point x="339" y="542"/>
      <point x="408" y="709" type="curve"/>
      <point x="484" y="698" type="line"/>
      <point x="482" y="611"/>
      <point x="472" y="512"/>
      <point x="459" y="418" type="curve"/>
      <point x="427" y="419" smooth="yes"/>
      <point x="400" y="419" smooth="yes"/>
      <point x="390" y="419" type="curve" smooth="yes"/>
      <point x="322" y="419" smooth="yes"/>
      <point x="266" y="408" smooth="yes"/>
      <point x="266" y="338" type="curve" smooth="yes"/>
      <point x="266" y="328"/>
      <point x="267" y="318"/>
      <point x="268" y="309" type="curve"/>
      <point x="324" y="332"/>
      <point x="391" y="339"/>
      <point x="448" y="340" type="curve"/>
      <point x="432" y="227" smooth="yes"/>
      <point x="417" y="127" smooth="yes"/>
      <point x="417" y="69" type="curve" smooth="yes"/>
      <point x="417" y="62"/>
      <point x="417" y="55"/>
      <point x="418" y="49" type="curve"/>
      <point x="392" y="28"/>
      <point x="383" y="4"/>
    </contour>
  </outline>
</glyph>
<glyph name="multiply" format="1">
  <advance width="620"/>
  <unicode hex="00D7"/>
  <outline>
    <contour>
      <point x="492" y="136" type="curve" name="hr00"/>
      <point x="509" y="161" smooth="yes"/>
      <point x="519" y="177" smooth="yes"/>
      <point x="519" y="202" type="curve" smooth="yes"/>
      <point x="519" y="250" smooth="yes"/>
      <point x="470" y="289" smooth="yes"/>
      <point x="387" y="355" type="curve" smooth="yes"/>
      <point x="376" y="364" type="line"/>
      <point x="426" y="425"/>
      <point x="470" y="482"/>
      <point x="528" y="538" type="curve"/>
      <point x="503" y="555" smooth="yes"/>
      <point x="487" y="565" smooth="yes"/>
      <point x="462" y="565" type="curve" smooth="yes"/>
      <point x="414" y="565" smooth="yes"/>
      <point x="384" y="518" smooth="yes"/>
      <point x="311" y="431" type="curve" smooth="yes"/>
      <point x="301" y="420" type="line"/>
      <point x="240" y="468"/>
      <point x="181" y="516"/>
      <point x="126" y="573" type="curve"/>
      <point x="109" y="548" smooth="yes"/>
      <point x="99" y="532" smooth="yes"/>
      <point x="99" y="507" type="curve" smooth="yes"/>
      <point x="99" y="459" smooth="yes"/>
      <point x="155" y="415" smooth="yes"/>
      <point x="231" y="354" type="curve" smooth="yes"/>
      <point x="242" y="345" type="line"/>
      <point x="192" y="284"/>
      <point x="148" y="227"/>
      <point x="91" y="172" type="curve"/>
      <point x="116" y="155" smooth="yes"/>
      <point x="132" y="145" smooth="yes"/>
      <point x="157" y="145" type="curve" smooth="yes"/>
      <point x="205" y="145" smooth="yes"/>
      <point x="247" y="195" smooth="yes"/>
      <point x="308" y="279" type="curve" smooth="yes"/>
      <point x="316" y="289" type="line"/>
      <point x="377" y="241"/>
      <point x="436" y="193"/>
    </contour>
  </outline>
</glyph>
<glyph name="Thorn" format="1">
  <advance width="621"/>
  <unicode hex="00DE"/>
  <outline>
    <contour>
      <point x="97" y="69" type="curve" smooth="yes"/>
      <point x="97" y="7" smooth="yes"/>
      <point x="128" y="-17" smooth="yes"/>
      <point x="186" y="-17" type="curve" smooth="yes"/>
      <point x="193" y="-17"/>
      <point x="200" y="-16"/>
      <point x="212" y="-15" type="curve"/>
      <point x="206" y="20" smooth="yes"/>
      <point x="206" y="52" smooth="yes"/>
      <point x="206" y="83" type="curve" smooth="yes"/>
      <point x="206" y="255"/>
      <point x="233" y="424"/>
      <point x="250" y="549" type="curve"/>
      <point x="289" y="563" smooth="yes"/>
      <point x="325" y="570" smooth="yes"/>
      <point x="356" y="570" type="curve" smooth="yes"/>
      <point x="461" y="570" smooth="yes"/>
      <point x="510" y="503" smooth="yes"/>
      <point x="510" y="425" type="curve" smooth="yes"/>
      <point x="510" y="322"/>
      <point x="454" y="202"/>
      <point x="266" y="202" type="curve"/>
      <point x="269" y="170" type="line"/>
      <point x="288" y="167" smooth="yes"/>
      <point x="305" y="166" smooth="yes"/>
      <point x="324" y="166" type="curve" smooth="yes"/>
      <point x="511" y="166" smooth="yes"/>
      <point x="612" y="313" smooth="yes"/>
      <point x="612" y="444" type="curve" smooth="yes"/>
      <point x="612" y="549" smooth="yes"/>
      <point x="545" y="643" smooth="yes"/>
      <point x="405" y="643" type="curve" smooth="yes"/>
      <point x="361" y="643"/>
      <point x="308" y="633"/>
      <point x="258" y="610" type="curve"/>
      <point x="261" y="638" smooth="yes"/>
      <point x="263" y="663" smooth="yes"/>
      <point x="263" y="683" type="curve" smooth="yes" name="hr01"/>
      <point x="263" y="768"/>
      <point x="209" y="819"/>
      <point x="150" y="826" type="curve"/>
      <point x="159" y="806" smooth="yes"/>
      <point x="164" y="767" smooth="yes"/>
      <point x="164" y="716" type="curve" smooth="yes"/>
      <point x="164" y="493" smooth="yes"/>
      <point x="97" y="190" smooth="yes"/>
    </contour>
  </outline>
</glyph>
<glyph name="ae" format="1">
  <advance width="888"/>
  <unicode hex="00E6"/>
  <outline>
    <contour>
      <point x="594" y="-15" type="curve" smooth="yes"/>
      <point x="692" y="-15"/>
      <point x="762" y="27"/>
      <point x="820" y="120" type="curve"/>
      <point x="820" y="135"/>
      <point x="809" y="143"/>
      <point x="783" y="147" type="curve"/>
      <point x="742" y="83" smooth="yes"/>
      <point x="686" y="49" smooth="yes"/>
      <point x="622" y="49" type="curve" smooth="yes" name="hr01"/>
      <point x="553" y="49" smooth="yes"/>
      <point x="517" y="109" smooth="yes"/>
      <point x="517" y="226" type="curve" smooth="yes"/>
      <point x="517" y="241"/>
      <point x="517" y="250"/>
      <point x="518" y="257" type="curve"/>
      <point x="550" y="250" smooth="yes"/>
      <point x="584" y="246" smooth="yes"/>
      <point x="624" y="246" type="curve" smooth="yes"/>
      <point x="753" y="246" smooth="yes"/>
      <point x="848" y="325" smooth="yes"/>
      <point x="848" y="432" type="curve" smooth="yes"/>
      <point x="848" y="527" smooth="yes"/>
      <point x="797" y="577" smooth="yes"/>
      <point x="698" y="577" type="curve" smooth="yes"/>
      <point x="624" y="577"/>
      <point x="558" y="546"/>
      <point x="509" y="495" type="curve"/>
      <point x="508" y="554" smooth="yes"/>
      <point x="503" y="570" smooth="yes"/>
      <point x="484" y="570" type="curve" smooth="yes"/>
      <point x="475" y="570"/>
      <point x="452" y="569"/>
      <point x="445" y="568" type="curve"/>
      <point x="450" y="528" smooth="yes"/>
      <point x="451" y="490" smooth="yes"/>
      <point x="451" y="454" type="curve" smooth="yes"/>
      <point x="451" y="269" smooth="yes"/>
      <point x="348" y="73" smooth="yes"/>
      <point x="244" y="73" type="curve" smooth="yes"/>
      <point x="188" y="73" smooth="yes"/>
      <point x="161" y="128" smooth="yes"/>
      <point x="161" y="189" type="curve" smooth="yes"/>
      <point x="161" y="309"/>
      <point x="241" y="495"/>
      <point x="407" y="537" type="curve"/>
      <point x="380" y="546" smooth="yes"/>
      <point x="354" y="551" smooth="yes"/>
      <point x="330" y="551" type="curve" smooth="yes"/>
      <point x="159" y="551" smooth="yes"/>
      <point x="53" y="337" smooth="yes"/>
      <point x="53" y="181" type="curve" smooth="yes"/>
      <point x="53" y="50" smooth="yes"/>
      <point x="117" y="-12" smooth="yes"/>
      <point x="194" y="-12" type="curve" smooth="yes"/>
      <point x="289" y="-12"/>
      <point x="369" y="53"/>
      <point x="415" y="169" type="curve"/>
      <point x="433" y="58" smooth="yes"/>
      <point x="503" y="-15" smooth="yes"/>
    </contour>
    <contour>
      <point x="522" y="294" type="line"/>
      <point x="543" y="430" smooth="yes"/>
      <point x="607" y="525" smooth="yes"/>
      <point x="679" y="525" type="curve" smooth="yes"/>
      <point x="719" y="525" smooth="yes"/>
      <point x="742" y="498" smooth="yes"/>
      <point x="742" y="452" type="curve" smooth="yes"/>
      <point x="742" y="357" smooth="yes"/>
      <point x="665" y="294" smooth="yes"/>
      <point x="550" y="294" type="curve" smooth="yes"/>
    </contour>
  </outline>
</glyph>
<glyph name="eth" format="1">
  <advance width="596"/>
  <unicode hex="00F0"/>
  <outline>
    <contour>
      <point x="327" y="899" type="curve" smooth="yes" name="hr00"/>
      <point x="241" y="899" smooth="yes"/>
      <point x="166" y="856" smooth="yes"/>
      <point x="166" y="784" type="curve" smooth="yes"/>
      <point x="166" y="749"/>
      <point x="194" y="719"/>
      <point x="232" y="719" type="curve"/>
      <point x="232" y="795" smooth="yes"/>
      <point x="269" y="835" smooth="yes"/>
      <point x="328" y="835" type="curve" smooth="yes"/>
      <point x="457" y="835"/>
      <point x="470" y="583"/>
      <point x="470" y="491" type="curve"/>
      <point x="425" y="518" smooth="yes"/>
      <point x="374" y="531" smooth="yes"/>
      <point x="325" y="531" type="curve" smooth="yes"/>
      <point x="186" y="531" smooth="yes"/>
      <point x="55" y="423" smooth="yes"/>
      <point x="55" y="231" type="curve" smooth="yes"/>
      <point x="55" y="65" smooth="yes"/>
      <point x="152" y="-15" smooth="yes"/>
      <point x="264" y="-15" type="curve" smooth="yes"/>
      <point x="475" y="-15" smooth="yes"/>
      <point x="566" y="247" smooth="yes"/>
      <point x="566" y="494" type="curve" smooth="yes"/>
      <point x="566" y="669" smooth="yes"/>
      <point x="499" y="899" smooth="yes"/>
    </contour>
    <contour>
      <point x="286" y="47" type="curve" smooth="yes"/>
      <point x="201" y="47" smooth="yes"/>
      <point x="158" y="115" smooth="yes"/>
      <point x="158" y="225" type="curve" smooth="yes"/>
      <point x="158" y="377" smooth="yes"/>
      <point x="242" y="474" smooth="yes"/>
      <point x="345" y="474" type="curve" smooth="yes"/>
      <point x="380" y="474"/>
      <point x="431" y="462"/>
      <point x="469" y="438" type="curve"/>
      <point x="462" y="240" smooth="yes"/>
      <point x="404" y="47" smooth="yes"/>
    </contour>
    <component  base="eslash" xScale="0.9" yScale="0.9" xOffset="337" yOffset="273"/>
  </outline>
</glyph>
<glyph name="kgreenlandic" format="1">
  <advance width="546"/>
  <unicode hex="0138"/>
  <outline>
    <contour>
      <point x="135" y="493" type="curve" smooth="yes"/>
      <point x="133" y="306" smooth="yes"/>
      <point x="85" y="143" smooth="yes"/>
      <point x="85" y="84" type="curve" smooth="yes" name="hr01"/>
      <point x="85" y="23" smooth="yes"/>
      <point x="110" y="-2" smooth="yes"/>
      <point x="170" y="-2" type="curve" smooth="yes"/>
      <point x="178" y="-2"/>
      <point x="190" y="-1"/>
      <point x="199" y="0" type="curve"/>
      <point x="193" y="33" smooth="yes"/>
      <point x="193" y="68" smooth="yes"/>
      <point x="193" y="102" type="curve" smooth="yes"/>
      <point x="193" y="143"/>
      <point x="198" y="189"/>
      <point x="204" y="234" type="curve"/>
      <point x="266" y="272" type="line"/>
      <point x="321" y="125" smooth="yes"/>
      <point x="381" y="-10" smooth="yes"/>
      <point x="494" y="-10" type="curve" smooth="yes" name="hr02"/>
      <point x="509" y="-10"/>
      <point x="525" y="-7"/>
      <point x="543" y="-1" type="curve"/>
      <point x="493" y="36"/>
      <point x="416" y="131"/>
      <point x="349" y="325" type="curve"/>
      <point x="460" y="396" smooth="yes"/>
      <point x="539" y="457" smooth="yes"/>
      <point x="539" y="515" type="curve" smooth="yes"/>
      <point x="539" y="542"/>
      <point x="531" y="571"/>
      <point x="518" y="599" type="curve"/>
      <point x="480" y="529"/>
      <point x="378" y="421"/>
      <point x="214" y="301" type="curve"/>
      <point x="220" y="343" smooth="yes"/>
      <point x="225" y="383" smooth="yes"/>
      <point x="225" y="417" type="curve" smooth="yes"/>
      <point x="225" y="514"/>
      <point x="202" y="568"/>
      <point x="123" y="596" type="curve"/>
      <point x="131" y="578" smooth="yes"/>
      <point x="135" y="541" smooth="yes"/>
    </contour>
  </outline>
</glyph>
<glyph name="Eng" format="1">
  <advance width="821"/>
  <unicode hex="014A"/>
  <outline>
    <contour>
      <point x="85" y="58" type="curve" smooth="yes"/>
      <point x="85" y="24"/>
      <point x="112" y="-5"/>
      <point x="189" y="-5" type="curve"/>
      <point x="187" y="21" smooth="yes"/>
      <point x="185" y="50" smooth="yes"/>
      <point x="185" y="78" type="curve" smooth="yes"/>
      <point x="185" y="275"/>
      <point x="226" y="446"/>
      <point x="236" y="595" type="curve" name="hr01"/>
      <point x="345" y="416" smooth="yes"/>
      <point x="463" y="148" smooth="yes"/>
      <point x="499" y="85" type="curve" smooth="yes"/>
      <point x="517" y="52"/>
      <point x="544" y="25"/>
      <point x="572" y="10" type="curve"/>
      <point x="532" y="-149" smooth="yes"/>
      <point x="477" y="-270" smooth="yes"/>
      <point x="410" y="-270" type="curve" smooth="yes"/>
      <point x="382" y="-270" smooth="yes"/>
      <point x="363" y="-247" smooth="yes"/>
      <point x="363" y="-207" type="curve" smooth="yes"/>
      <point x="363" y="-167"/>
      <point x="379" y="-135"/>
      <point x="400" y="-115" type="curve"/>
      <point x="389" y="-110" smooth="yes"/>
      <point x="376" y="-108" smooth="yes"/>
      <point x="367" y="-108" type="curve" smooth="yes"/>
      <point x="305" y="-108" smooth="yes"/>
      <point x="269" y="-163" smooth="yes"/>
      <point x="269" y="-218" type="curve" smooth="yes"/>
      <point x="269" y="-284" smooth="yes"/>
      <point x="324" y="-334" smooth="yes"/>
      <point x="395" y="-334" type="curve" smooth="yes"/>
      <point x="676" y="-334" smooth="yes"/>
      <point x="745" y="466" smooth="yes"/>
      <point x="745" y="724" type="curve" smooth="yes"/>
      <point x="745" y="780" smooth="yes"/>
      <point x="732" y="803" smooth="yes"/>
      <point x="677" y="803" type="curve" smooth="yes"/>
      <point x="667" y="803"/>
      <point x="652" y="802"/>
      <point x="643" y="801" type="curve"/>
      <point x="646" y="752" smooth="yes"/>
      <point x="649" y="695" smooth="yes"/>
      <point x="649" y="632" type="curve" smooth="yes"/>
      <point x="649" y="498"/>
      <point x="630" y="295"/>
      <point x="595" y="115" type="curve"/>
      <point x="532" y="207" smooth="yes"/>
      <point x="475" y="343" smooth="yes"/>
      <point x="416" y="461" type="curve" smooth="yes"/>
      <point x="341" y="612" smooth="yes"/>
      <point x="288" y="707" smooth="yes"/>
      <point x="265" y="742" type="curve" smooth="yes"/>
      <point x="235" y="787" smooth="yes"/>
      <point x="199" y="802" smooth="yes"/>
      <point x="155" y="802" type="curve" smooth="yes" name="hr02"/>
      <point x="132" y="802"/>
      <point x="105" y="794"/>
      <point x="75" y="773" type="curve"/>
      <point x="94" y="760"/>
      <point x="128" y="743"/>
      <point x="161" y="703" type="curve"/>
      <point x="161" y="702"/>
      <point x="161" y="702"/>
      <point x="162" y="702" type="curve"/>
      <point x="162" y="695" type="line" smooth="yes"/>
      <point x="162" y="521" smooth="yes"/>
      <point x="85" y="108" smooth="yes"/>
    </contour>
  </outline>
</glyph>
<glyph name="eng" format="1">
  <advance width="620"/>
  <unicode hex="014B"/>
  <outline>
    <contour>
      <point x="543" y="435" type="curve"/>
      <point x="543" y="521" smooth="yes"/>
      <point x="517" y="577" smooth="yes"/>
      <point x="439" y="577" type="curve" smooth="yes"/>
      <point x="361" y="577"/>
      <point x="249" y="464"/>
      <point x="204" y="309" type="curve"/>
      <point x="211" y="351" smooth="yes"/>
      <point x="216" y="391" smooth="yes"/>
      <point x="216" y="427" type="curve" smooth="yes"/>
      <point x="216" y="504"/>
      <point x="193" y="565"/>
      <point x="110" y="598" type="curve"/>
      <point x="122" y="551" smooth="yes"/>
      <point x="127" y="500" smooth="yes"/>
      <point x="127" y="448" type="curve" smooth="yes"/>
      <point x="127" y="315" smooth="yes"/>
      <point x="85" y="142" smooth="yes"/>
      <point x="85" y="84" type="curve" smooth="yes" name="hr01"/>
      <point x="85" y="22" smooth="yes"/>
      <point x="116" y="-2" smooth="yes"/>
      <point x="173" y="-2" type="curve" smooth="yes"/>
      <point x="181" y="-2"/>
      <point x="191" y="-1"/>
      <point x="204" y="0" type="curve"/>
      <point x="198" y="35" smooth="yes"/>
      <point x="198" y="67" smooth="yes"/>
      <point x="198" y="98" type="curve" smooth="yes" name="hr02"/>
      <point x="198" y="328" smooth="yes"/>
      <point x="324" y="483" smooth="yes"/>
      <point x="399" y="483" type="curve" smooth="yes"/>
      <point x="425" y="483" smooth="yes"/>
      <point x="439" y="460" smooth="yes"/>
      <point x="439" y="417" type="curve" smooth="yes"/>
      <point x="439" y="113" smooth="yes"/>
      <point x="337" y="-270" smooth="yes"/>
      <point x="225" y="-270" type="curve" smooth="yes"/>
      <point x="197" y="-270" smooth="yes"/>
      <point x="178" y="-247" smooth="yes"/>
      <point x="178" y="-207" type="curve" smooth="yes" name="hr03"/>
      <point x="178" y="-167"/>
      <point x="194" y="-135"/>
      <point x="215" y="-115" type="curve"/>
      <point x="204" y="-110" smooth="yes"/>
      <point x="191" y="-108" smooth="yes"/>
      <point x="182" y="-108" type="curve" smooth="yes"/>
      <point x="120" y="-108" smooth="yes"/>
      <point x="84" y="-163" smooth="yes"/>
      <point x="84" y="-218" type="curve" smooth="yes"/>
      <point x="84" y="-284" smooth="yes"/>
      <point x="139" y="-334" smooth="yes"/>
      <point x="210" y="-334" type="curve" smooth="yes"/>
      <point x="411" y="-334" smooth="yes"/>
      <point x="543" y="92" smooth="yes"/>
    </contour>
  </outline>
</glyph>
<glyph name="florin" format="1">
  <advance width="620"/>
  <unicode hex="0192"/>
  <outline>
    <contour>
      <point x="466" y="651" type="curve" smooth="yes"/>
      <point x="498" y="651" smooth="yes"/>
      <point x="512" y="624" smooth="yes"/>
      <point x="512" y="598" type="curve" smooth="yes"/>
      <point x="512" y="564"/>
      <point x="489" y="528"/>
      <point x="462" y="510" type="curve"/>
      <point x="474" y="505" smooth="yes"/>
      <point x="487" y="503" smooth="yes"/>
      <point x="498" y="503" type="curve" smooth="yes"/>
      <point x="564" y="503" smooth="yes"/>
      <point x="598" y="555" smooth="yes"/>
      <point x="598" y="601" type="curve" smooth="yes"/>
      <point x="598" y="664" smooth="yes"/>
      <point x="567" y="719" smooth="yes"/>
      <point x="461" y="719" type="curve" smooth="yes"/>
      <point x="305" y="719"/>
      <point x="258" y="549"/>
      <point x="236" y="356" type="curve"/>
      <point x="201" y="350" smooth="yes"/>
      <point x="166" y="346" smooth="yes"/>
      <point x="131" y="346" type="curve" smooth="yes"/>
      <point x="119" y="346"/>
      <point x="108" y="347"/>
      <point x="97" y="347" type="curve"/>
      <point x="102" y="307" smooth="yes"/>
      <point x="124" y="283" smooth="yes"/>
      <point x="165" y="283" type="curve" smooth="yes"/>
      <point x="181" y="283"/>
      <point x="203" y="286"/>
      <point x="229" y="290" type="curve"/>
      <point x="208" y="55" smooth="yes"/>
      <point x="207" y="-190" smooth="yes"/>
      <point x="80" y="-190" type="curve" smooth="yes"/>
      <point x="48" y="-190" smooth="yes"/>
      <point x="31" y="-163" smooth="yes"/>
      <point x="31" y="-137" type="curve" smooth="yes"/>
      <point x="31" y="-100"/>
      <point x="52" y="-66"/>
      <point x="77" y="-49" type="curve"/>
      <point x="64" y="-44" smooth="yes"/>
      <point x="51" y="-42" smooth="yes"/>
      <point x="41" y="-42" type="curve" smooth="yes"/>
      <point x="-21" y="-42" smooth="yes"/>
      <point x="-52" y="-90" smooth="yes"/>
      <point x="-52" y="-140" type="curve" smooth="yes"/>
      <point x="-52" y="-203" smooth="yes"/>
      <point x="-16" y="-258" smooth="yes"/>
      <point x="88" y="-258" type="curve" smooth="yes"/>
      <point x="303" y="-258"/>
      <point x="314" y="51"/>
      <point x="333" y="309" type="curve"/>
      <point x="373" y="316" smooth="yes"/>
      <point x="414" y="321" smooth="yes"/>
      <point x="449" y="321" type="curve" smooth="yes" name="hr01"/>
      <point x="478" y="321"/>
      <point x="501" y="319"/>
      <point x="511" y="315" type="curve"/>
      <point x="497" y="366" smooth="yes"/>
      <point x="469" y="384" smooth="yes"/>
      <point x="420" y="384" type="curve" smooth="yes"/>
      <point x="394" y="384"/>
      <point x="367" y="380"/>
      <point x="339" y="376" type="curve"/>
      <point x="353" y="529" smooth="yes"/>
      <point x="378" y="651" smooth="yes"/>
    </contour>
  </outline>
</glyph>
<glyph name="dotlessj" format="1">
  <advance width="331"/>
  <unicode hex="0237"/>
  <outline>
    <contour>
      <point x="232" y="504" type="curve" smooth="yes" name="hr00"/>
      <point x="232" y="560" smooth="yes"/>
      <point x="210" y="583" smooth="yes"/>
      <point x="155" y="583" type="curve" smooth="yes"/>
      <point x="145" y="583"/>
      <point x="130" y="582"/>
      <point x="121" y="581" type="curve"/>
      <point x="124" y="532" smooth="yes"/>
      <point x="127" y="475" smooth="yes"/>
      <point x="127" y="412" type="curve" smooth="yes"/>
      <point x="127" y="124" smooth="yes"/>
      <point x="83" y="-270" smooth="yes"/>
      <point x="-69" y="-270" type="curve" smooth="yes"/>
      <point x="-97" y="-270" smooth="yes"/>
      <point x="-116" y="-247" smooth="yes"/>
      <point x="-116" y="-207" type="curve" smooth="yes"/>
      <point x="-116" y="-167"/>
      <point x="-100" y="-135"/>
      <point x="-79" y="-115" type="curve"/>
      <point x="-90" y="-110" smooth="yes"/>
      <point x="-103" y="-108" smooth="yes"/>
      <point x="-112" y="-108" type="curve" smooth="yes"/>
      <point x="-174" y="-108" smooth="yes"/>
      <point x="-210" y="-163" smooth="yes"/>
      <point x="-210" y="-218" type="curve" smooth="yes"/>
      <point x="-210" y="-284" smooth="yes"/>
      <point x="-155" y="-334" smooth="yes"/>
      <point x="-84" y="-334" type="curve" smooth="yes"/>
      <point x="197" y="-334" smooth="yes"/>
      <point x="232" y="246" smooth="yes"/>
    </contour>
  </outline>
</glyph>
<glyph name="caron" format="1">
  <advance width="450"/>
  <unicode hex="02C7"/>
  <outline>
    <contour>
      <point x="169" y="837" type="curve" smooth="yes" name="hr00"/>
      <point x="144" y="837"/>
      <point x="130" y="832"/>
      <point x="117" y="826" type="curve"/>
      <point x="226" y="723"/>
      <point x="166" y="625"/>
      <point x="264" y="625" type="curve"/>
      <point x="304" y="671"/>
      <point x="326" y="708"/>
      <point x="435" y="777" type="curve"/>
      <point x="434" y="819"/>
      <point x="410" y="842"/>
      <point x="396" y="853" type="curve"/>
      <point x="326" y="807"/>
      <point x="292" y="759"/>
      <point x="263" y="706" type="curve"/>
      <point x="243" y="810" smooth="yes"/>
      <point x="221" y="837" smooth="yes"/>
    </contour>
  </outline>
</glyph>
<glyph name="ring" format="1">
  <advance width="339"/>
  <unicode hex="02DA"/>
  <outline>
    <contour>
      <point x="260" y="693" type="curve" name="hr00"/>
      <point x="247" y="690" smooth="yes"/>
      <point x="231" y="688" smooth="yes"/>
      <point x="215" y="688" type="curve" smooth="yes"/>
      <point x="190" y="688" smooth="yes"/>
      <point x="167" y="694" smooth="yes"/>
      <point x="167" y="729" type="curve" smooth="yes"/>
      <point x="167" y="744"/>
      <point x="172" y="766"/>
      <point x="179" y="786" type="curve"/>
      <point x="192" y="789" smooth="yes"/>
      <point x="208" y="791" smooth="yes"/>
      <point x="224" y="791" type="curve" smooth="yes"/>
      <point x="249" y="791" smooth="yes"/>
      <point x="272" y="785" smooth="yes"/>
      <point x="272" y="750" type="curve" smooth="yes"/>
      <point x="272" y="735"/>
      <point x="267" y="713"/>
    </contour>
    <contour>
      <point x="310" y="641" type="curve"/>
      <point x="325" y="683" smooth="yes"/>
      <point x="338" y="722" smooth="yes"/>
      <point x="338" y="763" type="curve" smooth="yes"/>
      <point x="338" y="835" smooth="yes"/>
      <point x="282" y="855" smooth="yes"/>
      <point x="231" y="855" type="curve" smooth="yes"/>
      <point x="196" y="855"/>
      <point x="159" y="847"/>
      <point x="129" y="838" type="curve"/>
      <point x="114" y="796" smooth="yes"/>
      <point x="101" y="757" smooth="yes"/>
      <point x="101" y="716" type="curve" smooth="yes"/>
      <point x="101" y="644" smooth="yes"/>
      <point x="157" y="624" smooth="yes"/>
      <point x="208" y="624" type="curve" smooth="yes"/>
      <point x="243" y="624"/>
      <point x="280" y="632"/>
    </contour>
  </outline>
</glyph>
<glyph name="ogonek" format="1">
  <advance width="560"/>
  <unicode hex="02DB"/>
  <outline>
    <contour>
      <point x="375" y="-197" type="curve" name="hr00"/>
      <point x="351" y="-221" smooth="yes"/>
      <point x="314" y="-242" smooth="yes"/>
      <point x="279" y="-242" type="curve" smooth="yes"/>
      <point x="236" y="-242" smooth="yes"/>
      <point x="210" y="-216" smooth="yes"/>
      <point x="210" y="-163" type="curve" smooth="yes"/>
      <point x="210" y="-89"/>
      <point x="269" y="-17"/>
      <point x="332" y="33" type="curve"/>
      <point x="288" y="33" type="line"/>
      <point x="174" y="-26" smooth="yes"/>
      <point x="131" y="-108" smooth="yes"/>
      <point x="131" y="-182" type="curve" smooth="yes"/>
      <point x="131" y="-259" smooth="yes"/>
      <point x="173" y="-311" smooth="yes"/>
      <point x="244" y="-311" type="curve" smooth="yes"/>
      <point x="300" y="-311"/>
      <point x="358" y="-286"/>
      <point x="404" y="-231" type="curve"/>
      <point x="404" y="-213"/>
      <point x="390" y="-202"/>
    </contour>
  </outline>
</glyph>
<glyph name="tilde" format="1">
  <advance width="450"/>
  <unicode hex="02DC"/>
  <outline>
    <contour>
      <point x="353" y="677" type="curve" name="hr00"/>
      <point x="391" y="677"/>
      <point x="434" y="700"/>
      <point x="445" y="779" type="curve"/>
      <point x="442" y="790"/>
      <point x="432" y="796"/>
      <point x="419" y="796" type="curve"/>
      <point x="407" y="779" smooth="yes"/>
      <point x="384" y="762" smooth="yes"/>
      <point x="351" y="762" type="curve" smooth="yes"/>
      <point x="314" y="762" smooth="yes"/>
      <point x="269" y="791" smooth="yes"/>
      <point x="220" y="791" type="curve" smooth="yes"/>
      <point x="182" y="791"/>
      <point x="139" y="768"/>
      <point x="128" y="689" type="curve"/>
      <point x="131" y="678"/>
      <point x="141" y="672"/>
      <point x="154" y="672" type="curve"/>
      <point x="166" y="689" smooth="yes"/>
      <point x="189" y="706" smooth="yes"/>
      <point x="222" y="706" type="curve" smooth="yes"/>
      <point x="259" y="706" smooth="yes"/>
      <point x="304" y="677" smooth="yes"/>
    </contour>
  </outline>
</glyph>
<glyph name="pi" format="1">
  <advance width="675"/>
  <unicode hex="03C0"/>
  <outline>
    <contour>
      <point x="538" y="649" type="curve" smooth="yes"/>
      <point x="428" y="649" smooth="yes"/>
      <point x="341" y="637" smooth="yes"/>
      <point x="253" y="637" type="curve" smooth="yes"/>
      <point x="189" y="637"/>
      <point x="132" y="639"/>
      <point x="66" y="646" type="curve"/>
      <point x="66" y="639" smooth="yes"/>
      <point x="65" y="633" smooth="yes"/>
      <point x="65" y="627" type="curve" smooth="yes"/>
      <point x="65" y="577"/>
      <point x="78" y="540"/>
      <point x="165" y="535" type="curve"/>
      <point x="165" y="512" type="line" smooth="yes"/>
      <point x="163" y="316" smooth="yes"/>
      <point x="115" y="146" smooth="yes"/>
      <point x="115" y="84" type="curve" smooth="yes"/>
      <point x="115" y="23" smooth="yes"/>
      <point x="136" y="-2" smooth="yes"/>
      <point x="203" y="-2" type="curve" smooth="yes"/>
      <point x="213" y="-2"/>
      <point x="229" y="-1"/>
      <point x="239" y="0" type="curve"/>
      <point x="233" y="33" smooth="yes"/>
      <point x="233" y="68" smooth="yes"/>
      <point x="233" y="102" type="curve" smooth="yes"/>
      <point x="233" y="209" smooth="yes"/>
      <point x="265" y="340" smooth="yes"/>
      <point x="265" y="432" type="curve" smooth="yes"/>
      <point x="265" y="474"/>
      <point x="261" y="508"/>
      <point x="249" y="536" type="curve"/>
      <point x="323" y="539"/>
      <point x="389" y="545"/>
      <point x="454" y="547" type="curve"/>
      <point x="455" y="530" smooth="yes"/>
      <point x="455" y="514" smooth="yes"/>
      <point x="455" y="497" type="curve" smooth="yes"/>
      <point x="455" y="390" smooth="yes"/>
      <point x="423" y="259" smooth="yes"/>
      <point x="423" y="167" type="curve" smooth="yes"/>
      <point x="423" y="67"/>
      <point x="446" y="13"/>
      <point x="535" y="-15" type="curve" name="hr01"/>
      <point x="527" y="3" smooth="yes"/>
      <point x="523" y="40" smooth="yes"/>
      <point x="523" y="88" type="curve" smooth="yes"/>
      <point x="525" y="284" smooth="yes"/>
      <point x="573" y="454" smooth="yes"/>
      <point x="573" y="500" type="curve" smooth="yes"/>
      <point x="573" y="526"/>
      <point x="572" y="536"/>
      <point x="570" y="545" type="curve"/>
      <point x="599" y="543"/>
      <point x="628" y="541"/>
      <point x="659" y="537" type="curve"/>
      <point x="659" y="544" smooth="yes"/>
      <point x="660" y="550" smooth="yes"/>
      <point x="660" y="556" type="curve" smooth="yes"/>
      <point x="660" y="610" smooth="yes"/>
      <point x="645" y="649" smooth="yes"/>
    </contour>
  </outline>
</glyph>
<glyph name="quoteleft" format="1">
  <advance width="153"/>
  <unicode hex="2018"/>
  <outline>
    <contour>
      <point x="144" y="571" type="curve" name="hr00"/>
      <point x="135" y="596" smooth="yes"/>
      <point x="129" y="621" smooth="yes"/>
      <point x="129" y="646" type="curve" smooth="yes"/>
      <point x="129" y="704"/>
      <point x="155" y="762"/>
      <point x="203" y="808" type="curve"/>
      <point x="179" y="838" type="line"/>
      <point x="70" y="779" smooth="yes"/>
      <point x="15" y="701" smooth="yes"/>
      <point x="15" y="622" type="curve" smooth="yes"/>
      <point x="15" y="572" smooth="yes"/>
      <point x="47" y="560" smooth="yes"/>
      <point x="79" y="560" type="curve" smooth="yes"/>
      <point x="100" y="560"/>
      <point x="126" y="565"/>
    </contour>
  </outline>
</glyph>
<glyph name="quotedblright" format="1">
  <advance width="450"/>
  <unicode hex="201D"/>
  <outline>
    <contour>
      <point x="311" y="842" type="curve" name="hr00"/>
      <point x="320" y="817" smooth="yes"/>
      <point x="326" y="792" smooth="yes"/>
      <point x="326" y="767" type="curve" smooth="yes"/>
      <point x="326" y="709"/>
      <point x="300" y="651"/>
      <point x="252" y="605" type="curve"/>
      <point x="276" y="575" type="line"/>
      <point x="385" y="634" smooth="yes"/>
      <point x="440" y="712" smooth="yes"/>
      <point x="440" y="791" type="curve" smooth="yes"/>
      <point x="440" y="841" smooth="yes"/>
      <point x="408" y="853" smooth="yes"/>
      <point x="376" y="853" type="curve" smooth="yes"/>
      <point x="355" y="853"/>
      <point x="329" y="848"/>
    </contour>
    <contour>
      <point x="109" y="818" type="curve"/>
      <point x="118" y="793" smooth="yes"/>
      <point x="124" y="768" smooth="yes"/>
      <point x="124" y="743" type="curve" smooth="yes"/>
      <point x="124" y="685"/>
      <point x="98" y="627"/>
      <point x="50" y="581" type="curve"/>
      <point x="74" y="551" type="line"/>
      <point x="183" y="610" smooth="yes"/>
      <point x="238" y="688" smooth="yes"/>
      <point x="238" y="767" type="curve" smooth="yes"/>
      <point x="238" y="817" smooth="yes"/>
      <point x="206" y="829" smooth="yes"/>
      <point x="174" y="829" type="curve" smooth="yes"/>
      <point x="153" y="829"/>
      <point x="127" y="824"/>
    </contour>
  </outline>
</glyph>
<glyph name="quotedblbase" format="1">
  <advance width="411"/>
  <unicode hex="201E"/>
  <outline>
    <contour>
      <point x="55" y="135" type="curve" name="hr00"/>
      <point x="64" y="110" smooth="yes"/>
      <point x="70" y="85" smooth="yes"/>
      <point x="70" y="60" type="curve" smooth="yes"/>
      <point x="70" y="2"/>
      <point x="44" y="-56"/>
      <point x="-4" y="-102" type="curve"/>
      <point x="20" y="-132" type="line"/>
      <point x="129" y="-73" smooth="yes"/>
      <point x="184" y="5" smooth="yes"/>
      <point x="184" y="84" type="curve" smooth="yes"/>
      <point x="184" y="134" smooth="yes"/>
      <point x="152" y="146" smooth="yes"/>
      <point x="120" y="146" type="curve" smooth="yes"/>
      <point x="99" y="146"/>
      <point x="73" y="141"/>
    </contour>
    <contour>
      <point x="257" y="135" type="curve"/>
      <point x="266" y="110" smooth="yes"/>
      <point x="272" y="85" smooth="yes"/>
      <point x="272" y="60" type="curve" smooth="yes"/>
      <point x="272" y="2"/>
      <point x="246" y="-56"/>
      <point x="198" y="-102" type="curve"/>
      <point x="222" y="-132" type="line"/>
      <point x="331" y="-73" smooth="yes"/>
      <point x="386" y="5" smooth="yes"/>
      <point x="386" y="84" type="curve" smooth="yes"/>
      <point x="386" y="134" smooth="yes"/>
      <point x="354" y="146" smooth="yes"/>
      <point x="322" y="146" type="curve" smooth="yes"/>
      <point x="301" y="146"/>
      <point x="275" y="141"/>
    </contour>
  </outline>
</glyph>
<glyph name="dagger" format="1">
  <advance width="390"/>
  <unicode hex="2020"/>
  <outline>
    <contour>
      <point x="81" y="-68" type="curve" smooth="yes" name="hr00"/>
      <point x="81" y="-137"/>
      <point x="87" y="-180"/>
      <point x="197" y="-186" type="curve"/>
      <point x="193" y="-160" smooth="yes"/>
      <point x="193" y="-132" smooth="yes"/>
      <point x="193" y="-104" type="curve" smooth="yes"/>
      <point x="193" y="-11" smooth="yes"/>
      <point x="259" y="435" smooth="yes"/>
      <point x="271" y="529" type="curve" smooth="yes"/>
      <point x="271" y="533"/>
      <point x="272" y="537"/>
      <point x="272" y="542" type="curve"/>
      <point x="315" y="541" smooth="yes"/>
      <point x="363" y="541" smooth="yes"/>
      <point x="383" y="541" type="curve" smooth="yes"/>
      <point x="421" y="541"/>
      <point x="476" y="561"/>
      <point x="476" y="635" type="curve"/>
      <point x="285" y="635" type="line"/>
      <point x="292" y="684" smooth="yes"/>
      <point x="297" y="724" smooth="yes"/>
      <point x="297" y="749" type="curve" smooth="yes"/>
      <point x="297" y="818"/>
      <point x="291" y="861"/>
      <point x="181" y="867" type="curve"/>
      <point x="183" y="841" smooth="yes"/>
      <point x="185" y="813" smooth="yes"/>
      <point x="185" y="785" type="curve" smooth="yes"/>
      <point x="185" y="738"/>
      <point x="182" y="688"/>
      <point x="177" y="635" type="curve"/>
      <point x="107" y="635" type="line" smooth="yes"/>
      <point x="37" y="635" smooth="yes"/>
      <point x="-20" y="624" smooth="yes"/>
      <point x="-20" y="555" type="curve" smooth="yes"/>
      <point x="-20" y="545"/>
      <point x="-17" y="520"/>
      <point x="-16" y="511" type="curve"/>
      <point x="46" y="536"/>
      <point x="111" y="541"/>
      <point x="168" y="542" type="curve"/>
      <point x="139" y="288" smooth="yes"/>
      <point x="81" y="15" smooth="yes"/>
    </contour>
  </outline>
</glyph>
<glyph name="guilsinglleft" format="1">
  <advance width="397"/>
  <unicode hex="2039"/>
  <outline>
    <contour>
      <point x="75" y="307" type="line" name="hr00"/>
      <point x="143" y="274" smooth="yes"/>
      <point x="140" y="70" smooth="yes"/>
      <point x="224" y="70" type="curve" smooth="yes"/>
      <point x="249" y="70"/>
      <point x="274" y="79"/>
      <point x="309" y="115" type="curve"/>
      <point x="249" y="137"/>
      <point x="216" y="251"/>
      <point x="176" y="317" type="curve"/>
      <point x="229" y="383"/>
      <point x="286" y="497"/>
      <point x="352" y="519" type="curve"/>
      <point x="324" y="555" smooth="yes"/>
      <point x="303" y="564" smooth="yes"/>
      <point x="279" y="564" type="curve" smooth="yes"/>
      <point x="195" y="564"/>
      <point x="152" y="360"/>
      <point x="78" y="327" type="curve"/>
    </contour>
  </outline>
</glyph>
<glyph name="zeroinferior" format="1">
  <advance width="396"/>
  <unicode hex="2080"/>
  <outline>
    <contour>
      <point x="222" y="222" type="curve" smooth="yes"/>
      <point x="256" y="222" smooth="yes"/>
      <point x="281" y="188" smooth="yes"/>
      <point x="281" y="81" type="curve" smooth="yes"/>
      <point x="281" y="-13" smooth="yes"/>
      <point x="251" y="-108" smooth="yes"/>
      <point x="185" y="-108" type="curve" smooth="yes"/>
      <point x="133" y="-108" smooth="yes"/>
      <point x="114" y="-44" smooth="yes"/>
      <point x="114" y="32" type="curve" smooth="yes"/>
      <point x="114" y="124" smooth="yes"/>
      <point x="159" y="222" smooth="yes"/>
    </contour>
    <contour>
      <point x="177" y="282" type="curve" name="hr01"/>
      <point x="88" y="256" smooth="yes"/>
      <point x="30" y="156" smooth="yes"/>
      <point x="30" y="35" type="curve" smooth="yes"/>
      <point x="30" y="-102" smooth="yes"/>
      <point x="103" y="-163" smooth="yes"/>
      <point x="173" y="-163" type="curve" smooth="yes"/>
      <point x="309" y="-163" smooth="yes"/>
      <point x="366" y="-16" smooth="yes"/>
      <point x="366" y="108" type="curve" smooth="yes"/>
      <point x="366" y="184" smooth="yes"/>
      <point x="326" y="272" smooth="yes"/>
      <point x="250" y="272" type="curve" smooth="yes" name="hr02"/>
      <point x="237" y="272"/>
      <point x="223" y="270"/>
      <point x="208" y="264" type="curve"/>
      <point x="203" y="275"/>
      <point x="192" y="282"/>
    </contour>
  </outline>
</glyph>
<glyph name="oneinferior" format="1">
  <advance width="286"/>
  <unicode hex="2081"/>
  <outline>
    <contour>
      <point x="200" y="-158" type="curve" name="hr00"/>
      <point x="198" y="-128" smooth="yes"/>
      <point x="198" y="-86" smooth="yes"/>
      <point x="198" y="-47" type="curve" smooth="yes"/>
      <point x="198" y="71"/>
      <point x="214" y="179"/>
      <point x="226" y="288" type="curve"/>
      <point x="148" y="251"/>
      <point x="50" y="225"/>
      <point x="20" y="218" type="curve"/>
      <point x="20" y="198" smooth="yes"/>
      <point x="40" y="154" smooth="yes"/>
      <point x="62" y="154" type="curve" smooth="yes"/>
      <point x="84" y="154"/>
      <point x="113" y="168"/>
      <point x="138" y="182" type="curve"/>
      <point x="130" y="103" smooth="yes"/>
      <point x="111" y="-21" smooth="yes"/>
      <point x="111" y="-96" type="curve" smooth="yes"/>
      <point x="111" y="-129" smooth="yes"/>
      <point x="123" y="-161" smooth="yes"/>
      <point x="165" y="-161" type="curve" smooth="yes"/>
      <point x="173" y="-161"/>
      <point x="182" y="-161"/>
    </contour>
  </outline>
</glyph>
<glyph name="twoinferior" format="1">
  <advance width="353"/>
  <unicode hex="2082"/>
  <outline>
    <contour>
      <point x="-7" y="-167" type="curve" name="hr00"/>
      <point x="35" y="-150" smooth="yes"/>
      <point x="70" y="-148" smooth="yes"/>
      <point x="97" y="-148" type="curve" smooth="yes"/>
      <point x="137" y="-148" smooth="yes"/>
      <point x="203" y="-158" smooth="yes"/>
      <point x="240" y="-158" type="curve" smooth="yes"/>
      <point x="294" y="-158"/>
      <point x="309" y="-127"/>
      <point x="313" y="-58" type="curve"/>
      <point x="270" y="-76" smooth="yes"/>
      <point x="234" y="-79" smooth="yes"/>
      <point x="202" y="-79" type="curve" smooth="yes"/>
      <point x="182" y="-79"/>
      <point x="151" y="-78"/>
      <point x="125" y="-77" type="curve"/>
      <point x="250" y="7" smooth="yes"/>
      <point x="313" y="96" smooth="yes"/>
      <point x="313" y="169" type="curve" smooth="yes"/>
      <point x="313" y="250" smooth="yes"/>
      <point x="243" y="287" smooth="yes"/>
      <point x="175" y="287" type="curve" smooth="yes"/>
      <point x="85" y="287" smooth="yes"/>
      <point x="44" y="231" smooth="yes"/>
      <point x="44" y="180" type="curve" smooth="yes"/>
      <point x="44" y="134" smooth="yes"/>
      <point x="75" y="110" smooth="yes"/>
      <point x="111" y="110" type="curve" smooth="yes"/>
      <point x="118" y="110"/>
      <point x="126" y="111"/>
      <point x="134" y="114" type="curve"/>
      <point x="119" y="133" smooth="yes"/>
      <point x="114" y="159" smooth="yes"/>
      <point x="114" y="176" type="curve" smooth="yes"/>
      <point x="114" y="207" smooth="yes"/>
      <point x="137" y="228" smooth="yes"/>
      <point x="167" y="228" type="curve" smooth="yes"/>
      <point x="197" y="228" smooth="yes"/>
      <point x="227" y="209" smooth="yes"/>
      <point x="227" y="162" type="curve" smooth="yes"/>
      <point x="227" y="75"/>
      <point x="128" y="-22"/>
      <point x="63" y="-79" type="curve"/>
      <point x="0" y="-92"/>
      <point x="-7" y="-152"/>
    </contour>
  </outline>
</glyph>
<glyph name="threeinferior" format="1">
  <advance width="360"/>
  <unicode hex="2083"/>
  <outline>
    <contour>
      <point x="314" y="179" type="curve" smooth="yes"/>
      <point x="314" y="252" smooth="yes"/>
      <point x="253" y="286" smooth="yes"/>
      <point x="191" y="286" type="curve" smooth="yes"/>
      <point x="109" y="286" smooth="yes"/>
      <point x="72" y="233" smooth="yes"/>
      <point x="72" y="186" type="curve" smooth="yes"/>
      <point x="72" y="147" smooth="yes"/>
      <point x="99" y="126" smooth="yes"/>
      <point x="130" y="126" type="curve" smooth="yes"/>
      <point x="137" y="126"/>
      <point x="144" y="127"/>
      <point x="151" y="130" type="curve"/>
      <point x="137" y="147" smooth="yes"/>
      <point x="134" y="164" smooth="yes"/>
      <point x="134" y="175" type="curve" smooth="yes"/>
      <point x="134" y="211" smooth="yes"/>
      <point x="159" y="229" smooth="yes"/>
      <point x="186" y="229" type="curve" smooth="yes"/>
      <point x="214" y="229" smooth="yes"/>
      <point x="243" y="209" smooth="yes"/>
      <point x="243" y="168" type="curve" smooth="yes"/>
      <point x="243" y="114"/>
      <point x="199" y="78"/>
      <point x="117" y="67" type="curve"/>
      <point x="122" y="35" type="line"/>
      <point x="132" y="36"/>
      <point x="141" y="37"/>
      <point x="151" y="39" type="curve"/>
      <point x="212" y="32" smooth="yes"/>
      <point x="239" y="-7" smooth="yes"/>
      <point x="239" y="-39" type="curve" smooth="yes"/>
      <point x="239" y="-91" smooth="yes"/>
      <point x="201" y="-115" smooth="yes"/>
      <point x="166" y="-115" type="curve" smooth="yes"/>
      <point x="125" y="-115" smooth="yes"/>
      <point x="105" y="-86" smooth="yes"/>
      <point x="105" y="-55" type="curve" smooth="yes" name="hr01"/>
      <point x="105" y="-38"/>
      <point x="111" y="-21"/>
      <point x="122" y="-8" type="curve"/>
      <point x="111" y="-4" smooth="yes"/>
      <point x="102" y="-3" smooth="yes"/>
      <point x="96" y="-3" type="curve" smooth="yes"/>
      <point x="55" y="-3" smooth="yes"/>
      <point x="35" y="-37" smooth="yes"/>
      <point x="35" y="-77" type="curve" smooth="yes"/>
      <point x="35" y="-132" smooth="yes"/>
      <point x="86" y="-169" smooth="yes"/>
      <point x="164" y="-169" type="curve" smooth="yes"/>
      <point x="270" y="-169" smooth="yes"/>
      <point x="320" y="-96" smooth="yes"/>
      <point x="320" y="-33" type="curve" smooth="yes"/>
      <point x="320" y="12"/>
      <point x="286" y="63"/>
      <point x="238" y="75" type="curve"/>
      <point x="289" y="94" smooth="yes"/>
      <point x="314" y="138" smooth="yes"/>
    </contour>
  </outline>
</glyph>
<glyph name="seveninferior" format="1">
  <advance width="271"/>
  <unicode hex="2087"/>
  <outline>
    <contour>
      <point x="257" y="350" type="curve" name="hr00"/>
      <point x="254" y="327"/>
      <point x="246" y="302"/>
      <point x="236" y="276" type="curve"/>
      <point x="213" y="274" smooth="yes"/>
      <point x="194" y="273" smooth="yes"/>
      <point x="178" y="273" type="curve" smooth="yes"/>
      <point x="109" y="273"/>
      <point x="30" y="285"/>
      <point x="30" y="285" type="curve"/>
      <point x="23" y="272" smooth="yes"/>
      <point x="20" y="258" smooth="yes"/>
      <point x="20" y="245" type="curve" smooth="yes"/>
      <point x="20" y="223" smooth="yes"/>
      <point x="30" y="199" smooth="yes"/>
      <point x="65" y="199" type="curve" smooth="yes"/>
      <point x="92" y="199"/>
      <point x="165" y="209"/>
      <point x="211" y="216" type="curve"/>
      <point x="187" y="166" smooth="yes"/>
      <point x="157" y="114" smooth="yes"/>
      <point x="129" y="66" type="curve" smooth="yes"/>
      <point x="80" y="-17" smooth="yes"/>
      <point x="37" y="-91" smooth="yes"/>
      <point x="37" y="-122" type="curve" smooth="yes"/>
      <point x="37" y="-181"/>
      <point x="104" y="-189"/>
      <point x="104" y="-189" type="curve"/>
      <point x="115" y="-102" smooth="yes"/>
      <point x="176" y="16" smooth="yes"/>
      <point x="225" y="110" type="curve" smooth="yes"/>
      <point x="261" y="178" smooth="yes"/>
      <point x="296" y="245" smooth="yes"/>
      <point x="296" y="270" type="curve" smooth="yes"/>
      <point x="296" y="317"/>
      <point x="266" y="340"/>
    </contour>
  </outline>
</glyph>
<glyph name="eightinferior" format="1">
  <advance width="361"/>
  <unicode hex="2088"/>
  <outline>
    <contour>
      <point x="35" y="-65" type="curve" smooth="yes"/>
      <point x="35" y="-118" smooth="yes"/>
      <point x="77" y="-169" smooth="yes"/>
      <point x="169" y="-169" type="curve" smooth="yes"/>
      <point x="259" y="-169" smooth="yes"/>
      <point x="316" y="-116" smooth="yes"/>
      <point x="316" y="-51" type="curve" smooth="yes"/>
      <point x="316" y="4"/>
      <point x="277" y="39"/>
      <point x="237" y="70" type="curve"/>
      <point x="295" y="102" smooth="yes"/>
      <point x="326" y="149" smooth="yes"/>
      <point x="326" y="188" type="curve" smooth="yes"/>
      <point x="326" y="232" smooth="yes"/>
      <point x="295" y="287" smooth="yes"/>
      <point x="215" y="287" type="curve" smooth="yes"/>
      <point x="127" y="287" smooth="yes"/>
      <point x="72" y="241" smooth="yes"/>
      <point x="72" y="172" type="curve" smooth="yes" name="hr01"/>
      <point x="72" y="121"/>
      <point x="101" y="85"/>
      <point x="135" y="55" type="curve"/>
      <point x="71" y="30" smooth="yes"/>
      <point x="35" y="-16" smooth="yes"/>
    </contour>
    <contour>
      <point x="237" y="-55" type="curve" smooth="yes"/>
      <point x="237" y="-104" smooth="yes"/>
      <point x="198" y="-119" smooth="yes"/>
      <point x="169" y="-119" type="curve" smooth="yes"/>
      <point x="134" y="-119" smooth="yes"/>
      <point x="115" y="-96" smooth="yes"/>
      <point x="115" y="-59" type="curve" smooth="yes"/>
      <point x="115" y="-17"/>
      <point x="137" y="8"/>
      <point x="163" y="32" type="curve"/>
      <point x="201" y="2" smooth="yes"/>
      <point x="237" y="-23" smooth="yes"/>
    </contour>
    <contour>
      <point x="148" y="178" type="curve" smooth="yes" name="hr03"/>
      <point x="148" y="213" smooth="yes"/>
      <point x="174" y="236" smooth="yes"/>
      <point x="206" y="236" type="curve" smooth="yes"/>
      <point x="238" y="236" smooth="yes"/>
      <point x="255" y="208" smooth="yes"/>
      <point x="255" y="178" type="curve" smooth="yes"/>
      <point x="255" y="146"/>
      <point x="238" y="118"/>
      <point x="209" y="91" type="curve"/>
      <point x="176" y="117" smooth="yes"/>
      <point x="148" y="142" smooth="yes"/>
    </contour>
  </outline>
</glyph>
<glyph name="lira" format="1">
  <advance width="620"/>
  <unicode hex="20A4"/>
  <outline>
    <contour>
      <point x="395" y="204" type="curve" smooth="yes"/>
      <point x="424" y="204"/>
      <point x="447" y="202"/>
      <point x="457" y="198" type="curve"/>
      <point x="443" y="249" smooth="yes"/>
      <point x="415" y="267" smooth="yes"/>
      <point x="366" y="267" type="curve" smooth="yes"/>
      <point x="328" y="267"/>
      <point x="287" y="260"/>
      <point x="244" y="251" type="curve"/>
      <point x="249" y="279" smooth="yes"/>
      <point x="253" y="309" smooth="yes"/>
      <point x="258" y="342" type="curve" smooth="yes"/>
      <point x="258" y="344"/>
      <point x="258" y="346"/>
      <point x="259" y="349" type="curve"/>
      <point x="305" y="357" smooth="yes"/>
      <point x="354" y="364" smooth="yes"/>
      <point x="395" y="364" type="curve" smooth="yes"/>
      <point x="424" y="364"/>
      <point x="447" y="362"/>
      <point x="457" y="358" type="curve"/>
      <point x="443" y="409" smooth="yes"/>
      <point x="415" y="427" smooth="yes"/>
      <point x="366" y="427" type="curve" smooth="yes"/>
      <point x="335" y="427"/>
      <point x="302" y="422"/>
      <point x="268" y="416" type="curve"/>
      <point x="294" y="574" smooth="yes"/>
      <point x="326" y="654" smooth="yes"/>
      <point x="390" y="654" type="curve" smooth="yes"/>
      <point x="429" y="654" smooth="yes"/>
      <point x="443" y="625" smooth="yes"/>
      <point x="443" y="598" type="curve" smooth="yes"/>
      <point x="443" y="564"/>
      <point x="420" y="528"/>
      <point x="393" y="510" type="curve"/>
      <point x="406" y="505" smooth="yes"/>
      <point x="419" y="503" smooth="yes"/>
      <point x="430" y="503" type="curve" smooth="yes"/>
      <point x="499" y="503" smooth="yes"/>
      <point x="534" y="555" smooth="yes"/>
      <point x="534" y="601" type="curve" smooth="yes"/>
      <point x="534" y="664" smooth="yes"/>
      <point x="496" y="719" smooth="yes"/>
      <point x="395" y="719" type="curve" smooth="yes"/>
      <point x="281" y="719"/>
      <point x="206" y="626"/>
      <point x="162" y="396" type="curve"/>
      <point x="134" y="392" smooth="yes"/>
      <point x="105" y="389" smooth="yes"/>
      <point x="77" y="389" type="curve" smooth="yes" name="hr01"/>
      <point x="65" y="389"/>
      <point x="54" y="390"/>
      <point x="43" y="390" type="curve"/>
      <point x="48" y="350" smooth="yes"/>
      <point x="70" y="326" smooth="yes"/>
      <point x="111" y="326" type="curve" smooth="yes"/>
      <point x="121" y="326"/>
      <point x="135" y="327"/>
      <point x="151" y="329" type="curve"/>
      <point x="146" y="299"/>
      <point x="143" y="266"/>
      <point x="139" y="233" type="curve"/>
      <point x="118" y="231" smooth="yes"/>
      <point x="97" y="229" smooth="yes"/>
      <point x="77" y="229" type="curve" smooth="yes"/>
      <point x="65" y="229"/>
      <point x="54" y="230"/>
      <point x="43" y="230" type="curve"/>
      <point x="48" y="190" smooth="yes"/>
      <point x="70" y="166" smooth="yes"/>
      <point x="111" y="166" type="curve" smooth="yes"/>
      <point x="116" y="166"/>
      <point x="123" y="166"/>
      <point x="130" y="167" type="curve"/>
      <point x="125" y="132"/>
      <point x="118" y="100"/>
      <point x="109" y="75" type="curve"/>
      <point x="35" y="46"/>
      <point x="30" y="-19"/>
      <point x="30" y="-21" type="curve"/>
      <point x="80" y="-6" smooth="yes"/>
      <point x="136" y="-2" smooth="yes"/>
      <point x="187" y="-2" type="curve" smooth="yes" name="hr02"/>
      <point x="277" y="-2" smooth="yes"/>
      <point x="357" y="-19" smooth="yes"/>
      <point x="394" y="-19" type="curve" smooth="yes" name="hr03"/>
      <point x="466" y="-19"/>
      <point x="496" y="26"/>
      <point x="501" y="110" type="curve"/>
      <point x="449" y="89" smooth="yes"/>
      <point x="396" y="83" smooth="yes"/>
      <point x="344" y="83" type="curve" smooth="yes"/>
      <point x="291" y="83" smooth="yes"/>
      <point x="239" y="89" smooth="yes"/>
      <point x="190" y="89" type="curve" smooth="yes"/>
      <point x="184" y="89" type="line"/>
      <point x="204" y="111"/>
      <point x="218" y="143"/>
      <point x="229" y="183" type="curve"/>
      <point x="284" y="193" smooth="yes"/>
      <point x="345" y="204" smooth="yes"/>
    </contour>
  </outline>
</glyph>
<glyph name="uni2113" format="1">
  <advance width="299"/>
  <unicode hex="2113"/>
  <outline>
    <contour>
      <point x="81" y="99" type="curve" smooth="yes"/>
      <point x="81" y="33"/>
      <point x="86" y="-8"/>
      <point x="184" y="-13" type="curve"/>
      <point x="182" y="12" smooth="yes"/>
      <point x="180" y="37" smooth="yes"/>
      <point x="180" y="64" type="curve" smooth="yes"/>
      <point x="180" y="286" smooth="yes"/>
      <point x="238" y="534" smooth="yes"/>
      <point x="238" y="638" type="curve" smooth="yes" name="hr01"/>
      <point x="238" y="718"/>
      <point x="212" y="763"/>
      <point x="136" y="787" type="curve"/>
      <point x="144" y="770" smooth="yes"/>
      <point x="148" y="734" smooth="yes"/>
      <point x="148" y="688" type="curve" smooth="yes"/>
      <point x="148" y="515" smooth="yes"/>
      <point x="81" y="192" smooth="yes"/>
    </contour>
  </outline>
</glyph>
<glyph name="Omega" format="1">
  <advance width="802"/>
  <unicode hex="2126"/>
  <outline>
    <contour>
      <point x="466" y="138" type="line"/>
      <point x="620" y="170" smooth="yes"/>
      <point x="725" y="287" smooth="yes"/>
      <point x="725" y="455" type="curve" smooth="yes"/>
      <point x="725" y="611" smooth="yes"/>
      <point x="627" y="700" smooth="yes"/>
      <point x="518" y="700" type="curve" smooth="yes"/>
      <point x="473" y="700"/>
      <point x="447" y="694"/>
      <point x="412" y="684" type="curve"/>
      <point x="411" y="708"/>
      <point x="400" y="720"/>
      <point x="380" y="720" type="curve"/>
      <point x="211" y="675" smooth="yes"/>
      <point x="109" y="559" smooth="yes"/>
      <point x="109" y="388" type="curve" smooth="yes"/>
      <point x="109" y="229"/>
      <point x="209" y="154"/>
      <point x="286" y="139" type="curve"/>
      <point x="284" y="98" type="line"/>
      <point x="267" y="95" smooth="yes"/>
      <point x="242" y="94" smooth="yes"/>
      <point x="229" y="94" type="curve" smooth="yes"/>
      <point x="186" y="94" smooth="yes"/>
      <point x="157" y="106" smooth="yes"/>
      <point x="107" y="106" type="curve" smooth="yes"/>
      <point x="57" y="106" smooth="yes"/>
      <point x="50" y="66" smooth="yes"/>
      <point x="50" y="11" type="curve" smooth="yes"/>
      <point x="50" y="4"/>
      <point x="51" y="-3"/>
      <point x="51" y="-11" type="curve"/>
      <point x="81" y="-3" smooth="yes"/>
      <point x="107" y="0" smooth="yes"/>
      <point x="121" y="0" type="curve" smooth="yes" name="hr01"/>
      <point x="227" y="0" type="line" smooth="yes"/>
      <point x="306" y="0"/>
      <point x="318" y="0"/>
      <point x="332" y="184" type="curve"/>
      <point x="263" y="205" smooth="yes"/>
      <point x="220" y="270" smooth="yes"/>
      <point x="220" y="377" type="curve" smooth="yes"/>
      <point x="220" y="536" smooth="yes"/>
      <point x="326" y="641" smooth="yes"/>
      <point x="452" y="641" type="curve" smooth="yes"/>
      <point x="548" y="641" smooth="yes"/>
      <point x="609" y="579" smooth="yes"/>
      <point x="609" y="435" type="curve" smooth="yes"/>
      <point x="609" y="302"/>
      <point x="520" y="188"/>
      <point x="429" y="179" type="curve"/>
      <point x="425" y="142" smooth="yes"/>
      <point x="420" y="95" smooth="yes"/>
      <point x="420" y="62" type="curve" smooth="yes"/>
      <point x="420" y="0" smooth="yes"/>
      <point x="442" y="0" smooth="yes"/>
      <point x="497" y="0" type="curve" smooth="yes"/>
      <point x="620" y="0" type="line" smooth="yes"/>
      <point x="634" y="0"/>
      <point x="660" y="-3"/>
      <point x="690" y="-11" type="curve" name="hr02"/>
      <point x="690" y="-3" smooth="yes"/>
      <point x="691" y="4" smooth="yes"/>
      <point x="691" y="11" type="curve" smooth="yes"/>
      <point x="691" y="66" smooth="yes"/>
      <point x="684" y="106" smooth="yes"/>
      <point x="634" y="106" type="curve" smooth="yes"/>
      <point x="589" y="106" smooth="yes"/>
      <point x="559" y="94" smooth="yes"/>
      <point x="517" y="94" type="curve" smooth="yes"/>
      <point x="504" y="94"/>
      <point x="481" y="95"/>
      <point x="465" y="98" type="curve"/>
    </contour>
  </outline>
</glyph>
<glyph name="infinity" format="1">
  <advance width="620"/>
  <unicode hex="221E"/>
  <outline>
    <contour>
      <point x="469" y="515" type="curve" smooth="yes" name="hr00"/>
      <point x="397" y="515"/>
      <point x="346" y="458"/>
      <point x="300" y="397" type="curve"/>
      <point x="255" y="458" smooth="yes"/>
      <point x="209" y="515" smooth="yes"/>
      <point x="147" y="515" type="curve" smooth="yes"/>
      <point x="84" y="515" smooth="yes"/>
      <point x="11" y="473" smooth="yes"/>
      <point x="11" y="344" type="curve" smooth="yes"/>
      <point x="11" y="227" smooth="yes"/>
      <point x="65" y="157" smooth="yes"/>
      <point x="151" y="157" type="curve" smooth="yes"/>
      <point x="222" y="157"/>
      <point x="274" y="214"/>
      <point x="320" y="274" type="curve"/>
      <point x="364" y="213" smooth="yes"/>
      <point x="410" y="157" smooth="yes"/>
      <point x="473" y="157" type="curve" smooth="yes"/>
      <point x="536" y="157" smooth="yes"/>
      <point x="609" y="199" smooth="yes"/>
      <point x="609" y="328" type="curve" smooth="yes"/>
      <point x="609" y="445" smooth="yes"/>
      <point x="555" y="515" smooth="yes"/>
    </contour>
    <contour>
      <point x="143" y="252" type="curve" smooth="yes"/>
      <point x="96" y="252" smooth="yes"/>
      <point x="73" y="295" smooth="yes"/>
      <point x="73" y="335" type="curve" smooth="yes"/>
      <point x="73" y="403" smooth="yes"/>
      <point x="112" y="421" smooth="yes"/>
      <point x="147" y="421" type="curve" smooth="yes"/>
      <point x="193" y="421"/>
      <point x="230" y="389"/>
      <point x="264" y="348" type="curve"/>
      <point x="225" y="296" smooth="yes"/>
      <point x="188" y="252" smooth="yes"/>
    </contour>
    <contour>
      <point x="477" y="420" type="curve" smooth="yes"/>
      <point x="524" y="420" smooth="yes"/>
      <point x="547" y="377" smooth="yes"/>
      <point x="547" y="337" type="curve" smooth="yes"/>
      <point x="547" y="269" smooth="yes"/>
      <point x="508" y="251" smooth="yes"/>
      <point x="473" y="251" type="curve" smooth="yes"/>
      <point x="427" y="251"/>
      <point x="390" y="282"/>
      <point x="356" y="323" type="curve"/>
      <point x="394" y="376" smooth="yes"/>
      <point x="432" y="420" smooth="yes"/>
    </contour>
  </outline>
</glyph>
<glyph name="integral" format="1">
  <advance width="454"/>
  <unicode hex="222B"/>
  <outline>
    <contour>
      <point x="44" y="-258" type="curve" smooth="yes" name="hr00"/>
      <point x="426" y="-258" smooth="yes"/>
      <point x="162" y="751" smooth="yes"/>
      <point x="414" y="751" type="curve" smooth="yes"/>
      <point x="447" y="751" smooth="yes"/>
      <point x="461" y="724" smooth="yes"/>
      <point x="461" y="698" type="curve" smooth="yes"/>
      <point x="461" y="664"/>
      <point x="438" y="628"/>
      <point x="411" y="610" type="curve"/>
      <point x="425" y="605" smooth="yes"/>
      <point x="440" y="603" smooth="yes"/>
      <point x="452" y="603" type="curve" smooth="yes"/>
      <point x="514" y="603" smooth="yes"/>
      <point x="549" y="657" smooth="yes"/>
      <point x="549" y="702" type="curve" smooth="yes"/>
      <point x="549" y="760" smooth="yes"/>
      <point x="512" y="819" smooth="yes"/>
      <point x="403" y="819" type="curve" smooth="yes"/>
      <point x="39" y="819" smooth="yes"/>
      <point x="287" y="-190" smooth="yes"/>
      <point x="39" y="-190" type="curve" smooth="yes"/>
      <point x="7" y="-190" smooth="yes"/>
      <point x="-7" y="-163" smooth="yes"/>
      <point x="-7" y="-137" type="curve" smooth="yes"/>
      <point x="-7" y="-103"/>
      <point x="16" y="-67"/>
      <point x="43" y="-49" type="curve"/>
      <point x="29" y="-44" smooth="yes"/>
      <point x="14" y="-42" smooth="yes"/>
      <point x="2" y="-42" type="curve" smooth="yes"/>
      <point x="-60" y="-42" smooth="yes"/>
      <point x="-95" y="-96" smooth="yes"/>
      <point x="-95" y="-141" type="curve" smooth="yes"/>
      <point x="-95" y="-199" smooth="yes"/>
      <point x="-61" y="-258" smooth="yes"/>
    </contour>
  </outline>
</glyph>
<glyph name="approxequal" format="1">
  <advance width="620"/>
  <unicode hex="2248"/>
  <outline>
    <contour>
      <point x="561" y="536" type="curve" name="hr00"/>
      <point x="533" y="502" smooth="yes"/>
      <point x="477" y="491" smooth="yes"/>
      <point x="427" y="491" type="curve" smooth="yes"/>
      <point x="366" y="491" smooth="yes"/>
      <point x="285" y="526" smooth="yes"/>
      <point x="205" y="526" type="curve" smooth="yes"/>
      <point x="86" y="526"/>
      <point x="59" y="455"/>
      <point x="59" y="378" type="curve"/>
      <point x="87" y="412" smooth="yes"/>
      <point x="143" y="423" smooth="yes"/>
      <point x="193" y="423" type="curve" smooth="yes"/>
      <point x="254" y="423" smooth="yes"/>
      <point x="335" y="388" smooth="yes"/>
      <point x="415" y="388" type="curve" smooth="yes"/>
      <point x="534" y="388"/>
      <point x="561" y="459"/>
    </contour>
    <contour>
      <point x="561" y="298" type="curve"/>
      <point x="533" y="264" smooth="yes"/>
      <point x="477" y="253" smooth="yes"/>
      <point x="427" y="253" type="curve" smooth="yes"/>
      <point x="366" y="253" smooth="yes"/>
      <point x="285" y="288" smooth="yes"/>
      <point x="205" y="288" type="curve" smooth="yes"/>
      <point x="86" y="288"/>
      <point x="59" y="217"/>
      <point x="59" y="140" type="curve"/>
      <point x="87" y="174" smooth="yes"/>
      <point x="143" y="185" smooth="yes"/>
      <point x="193" y="185" type="curve" smooth="yes"/>
      <point x="254" y="185" smooth="yes"/>
      <point x="335" y="150" smooth="yes"/>
      <point x="415" y="150" type="curve" smooth="yes"/>
      <point x="534" y="150"/>
      <point x="561" y="221"/>
    </contour>
  </outline>
</glyph>
<glyph name="fi" format="1">
  <advance width="677"/>
  <unicode hex="FB01"/>
  <outline>
    <contour>
      <point x="393" y="574" type="curve" name="hr00"/>
      <point x="363" y="550" smooth="yes"/>
      <point x="316" y="545" smooth="yes"/>
      <point x="269" y="545" type="curve" smooth="yes"/>
      <point x="259" y="545" type="line"/>
      <point x="291" y="705" smooth="yes"/>
      <point x="344" y="841" smooth="yes"/>
      <point x="431" y="841" type="curve" smooth="yes"/>
      <point x="500" y="841" smooth="yes"/>
      <point x="519" y="796" smooth="yes"/>
      <point x="519" y="756" type="curve" smooth="yes"/>
      <point x="519" y="728"/>
      <point x="505" y="694"/>
      <point x="480" y="678" type="curve"/>
      <point x="494" y="671" smooth="yes"/>
      <point x="507" y="668" smooth="yes"/>
      <point x="520" y="668" type="curve" smooth="yes"/>
      <point x="586" y="668" smooth="yes"/>
      <point x="610" y="714" smooth="yes"/>
      <point x="610" y="761" type="curve" smooth="yes"/>
      <point x="610" y="826" smooth="yes"/>
      <point x="573" y="900" smooth="yes"/>
      <point x="436" y="900" type="curve" smooth="yes"/>
      <point x="298" y="900"/>
      <point x="218" y="733"/>
      <point x="172" y="548" type="curve"/>
      <point x="104" y="548" smooth="yes"/>
      <point x="49" y="537" smooth="yes"/>
      <point x="49" y="467" type="curve" smooth="yes"/>
      <point x="49" y="457"/>
      <point x="50" y="446"/>
      <point x="51" y="438" type="curve"/>
      <point x="89" y="454"/>
      <point x="123" y="463"/>
      <point x="155" y="468" type="curve"/>
      <point x="125" y="316" smooth="yes"/>
      <point x="117" y="164" smooth="yes"/>
      <point x="117" y="93" type="curve" smooth="yes"/>
      <point x="117" y="-14"/>
      <point x="150" y="-81"/>
      <point x="230" y="-113" type="curve"/>
      <point x="215" y="-27" smooth="yes"/>
      <point x="214" y="-15" smooth="yes"/>
      <point x="214" y="63" type="curve" smooth="yes"/>
      <point x="214" y="135"/>
      <point x="221" y="309"/>
      <point x="247" y="474" type="curve"/>
      <point x="332" y="474" type="line" smooth="yes"/>
      <point x="370" y="474" smooth="yes"/>
      <point x="395" y="489" smooth="yes"/>
      <point x="395" y="548" type="curve" smooth="yes"/>
      <point x="395" y="557"/>
      <point x="394" y="567"/>
    </contour>
    <component  base="dotlessi" xOffset="356"/>
  </outline>
</glyph>
<glyph name="acute.case" format="1">
  <advance width="372"/>
  <outline>
    <contour>
      <point x="98" y="881" type="curve" name="hr00"/>
      <point x="100" y="866"/>
      <point x="114" y="852"/>
      <point x="130" y="848" type="curve"/>
      <point x="171" y="900"/>
      <point x="252" y="973"/>
      <point x="337" y="999" type="curve"/>
      <point x="335" y="1050"/>
      <point x="303" y="1072"/>
      <point x="289" y="1081" type="curve"/>
      <point x="214" y="1051"/>
      <point x="129" y="951"/>
    </contour>
  </outline>
</glyph>
<glyph name="breve.case" format="1">
  <advance width="355"/>
  <outline>
    <contour>
      <point x="42" y="1017" type="curve" name="hr00"/>
      <point x="42" y="909" smooth="yes"/>
      <point x="106" y="873" smooth="yes"/>
      <point x="170" y="873" type="curve" smooth="yes"/>
      <point x="235" y="873"/>
      <point x="293" y="906"/>
      <point x="313" y="980" type="curve"/>
      <point x="313" y="1011"/>
      <point x="287" y="1046"/>
      <point x="259" y="1046" type="curve"/>
      <point x="255" y="985" smooth="yes"/>
      <point x="204" y="948" smooth="yes"/>
      <point x="160" y="948" type="curve" smooth="yes"/>
      <point x="124" y="948"/>
      <point x="94" y="975"/>
      <point x="94" y="1018" type="curve"/>
      <point x="89" y="1027" smooth="yes"/>
      <point x="80" y="1031" smooth="yes"/>
      <point x="72" y="1031" type="curve" smooth="yes"/>
      <point x="61" y="1031"/>
      <point x="51" y="1025"/>
    </contour>
  </outline>
</glyph>
<glyph name="eslash" format="1">
  <advance width="299"/>
  <outline>
    <contour>
      <point x="-25" y="431" type="curve" smooth="yes" name="hr00"/>
      <point x="-13" y="400" smooth="yes"/>
      <point x="0" y="376" smooth="yes"/>
      <point x="32" y="376" type="curve" smooth="yes"/>
      <point x="114" y="376"/>
      <point x="248" y="504"/>
      <point x="355" y="518" type="curve"/>
      <point x="343" y="548" smooth="yes"/>
      <point x="330" y="572" smooth="yes"/>
      <point x="298" y="572" type="curve" smooth="yes"/>
      <point x="218" y="572" smooth="yes"/>
      <point x="81" y="446" smooth="yes"/>
    </contour>
  </outline>
</glyph>
<glyph name="ethbar" format="1">
  <advance width="503"/>
  <outline>
    <contour>
      <point x="379" y="370" type="curve" smooth="yes" name="hr00"/>
      <point x="299" y="370" smooth="yes"/>
      <point x="236" y="359" smooth="yes"/>
      <point x="172" y="359" type="curve" smooth="yes"/>
      <point x="125" y="359"/>
      <point x="64" y="361"/>
      <point x="36" y="367" type="curve"/>
      <point x="36" y="361" smooth="yes"/>
      <point x="35" y="355" smooth="yes"/>
      <point x="35" y="349" type="curve" smooth="yes"/>
      <point x="35" y="301" smooth="yes"/>
      <point x="46" y="265" smooth="yes"/>
      <point x="124" y="265" type="curve" smooth="yes"/>
      <point x="204" y="265" smooth="yes"/>
      <point x="267" y="276" smooth="yes"/>
      <point x="331" y="276" type="curve" smooth="yes"/>
      <point x="378" y="276"/>
      <point x="439" y="274"/>
      <point x="467" y="268" type="curve"/>
      <point x="467" y="274" smooth="yes"/>
      <point x="468" y="280" smooth="yes"/>
      <point x="468" y="286" type="curve" smooth="yes"/>
      <point x="468" y="334" smooth="yes"/>
      <point x="457" y="370" smooth="yes"/>
    </contour>
  </outline>
</glyph>
<glyph name="f.alt" format="1">
  <advance width="408"/>
  <outline>
    <contour>
      <point x="394" y="574" type="curve" name="hr00"/>
      <point x="364" y="550" smooth="yes"/>
      <point x="317" y="545" smooth="yes"/>
      <point x="270" y="545" type="curve" smooth="yes"/>
      <point x="252" y="545" type="line"/>
      <point x="279" y="690" smooth="yes"/>
      <point x="324" y="807" smooth="yes"/>
      <point x="400" y="807" type="curve" smooth="yes"/>
      <point x="437" y="807"/>
      <point x="460" y="795"/>
      <point x="477" y="777" type="curve"/>
      <point x="501" y="793" smooth="yes"/>
      <point x="509" y="816" smooth="yes"/>
      <point x="509" y="838" type="curve" smooth="yes"/>
      <point x="509" y="879" smooth="yes"/>
      <point x="473" y="900" smooth="yes"/>
      <point x="427" y="900" type="curve" smooth="yes"/>
      <point x="287" y="900"/>
      <point x="209" y="733"/>
      <point x="167" y="548" type="curve"/>
      <point x="102" y="547" smooth="yes"/>
      <point x="50" y="535" smooth="yes"/>
      <point x="50" y="467" type="curve" smooth="yes"/>
      <point x="50" y="457"/>
      <point x="51" y="446"/>
      <point x="52" y="438" type="curve"/>
      <point x="88" y="453"/>
      <point x="120" y="463"/>
      <point x="151" y="468" type="curve"/>
      <point x="124" y="315" smooth="yes"/>
      <point x="118" y="164" smooth="yes"/>
      <point x="118" y="93" type="curve" smooth="yes"/>
      <point x="118" y="-14"/>
      <point x="151" y="-81"/>
      <point x="231" y="-113" type="curve"/>
      <point x="216" y="-27" smooth="yes"/>
      <point x="215" y="-15" smooth="yes"/>
      <point x="215" y="63" type="curve" smooth="yes"/>
      <point x="215" y="150"/>
      <point x="219" y="319"/>
      <point x="241" y="474" type="curve"/>
      <point x="333" y="474" type="line" smooth="yes"/>
      <point x="371" y="474" smooth="yes"/>
      <point x="396" y="489" smooth="yes"/>
      <point x="396" y="548" type="curve" smooth="yes"/>
      <point x="396" y="557"/>
      <point x="395" y="567"/>
    </contour>
  </outline>
</glyph>
<glyph name="grave.case" format="1">
  <advance width="372"/>
  <outline>
    <contour>
      <point x="342" y="881" type="curve" name="hr00"/>
      <point x="311" y="951"/>
      <point x="226" y="1051"/>
      <point x="151" y="1081" type="curve"/>
      <point x="137" y="1072"/>
      <point x="105" y="1050"/>
      <point x="103" y="999" type="curve"/>
      <point x="188" y="973"/>
      <point x="269" y="900"/>
      <point x="310" y="848" type="curve"/>
      <point x="326" y="852"/>
      <point x="340" y="866"/>
    </contour>
  </outline>
</glyph>
<glyph name="ring.case" format="1">
  <advance width="339"/>
  <outline>
    <contour>
      <point x="260" y="922" type="curve" name="hr00"/>
      <point x="247" y="919" smooth="yes"/>
      <point x="231" y="917" smooth="yes"/>
      <point x="215" y="917" type="curve" smooth="yes"/>
      <point x="190" y="917" smooth="yes"/>
      <point x="167" y="923" smooth="yes"/>
      <point x="167" y="958" type="curve" smooth="yes"/>
      <point x="167" y="973"/>
      <point x="172" y="995"/>
      <point x="179" y="1015" type="curve"/>
      <point x="192" y="1018" smooth="yes"/>
      <point x="208" y="1020" smooth="yes"/>
      <point x="224" y="1020" type="curve" smooth="yes"/>
      <point x="249" y="1020" smooth="yes"/>
      <point x="272" y="1014" smooth="yes"/>
      <point x="272" y="979" type="curve" smooth="yes"/>
      <point x="272" y="964"/>
      <point x="267" y="942"/>
    </contour>
    <contour>
      <point x="310" y="870" type="curve"/>
      <point x="325" y="912" smooth="yes"/>
      <point x="338" y="951" smooth="yes"/>
      <point x="338" y="992" type="curve" smooth="yes"/>
      <point x="338" y="1064" smooth="yes"/>
      <point x="282" y="1084" smooth="yes"/>
      <point x="231" y="1084" type="curve" smooth="yes"/>
      <point x="196" y="1084"/>
      <point x="159" y="1076"/>
      <point x="129" y="1067" type="curve"/>
      <point x="114" y="1025" smooth="yes"/>
      <point x="101" y="986" smooth="yes"/>
      <point x="101" y="945" type="curve" smooth="yes"/>
      <point x="101" y="873" smooth="yes"/>
      <point x="157" y="853" smooth="yes"/>
      <point x="208" y="853" type="curve" smooth="yes"/>
      <point x="243" y="853"/>
      <point x="280" y="861"/>
    </contour>
  </outline>
</glyph>
<glyph name="ringacute" format="1">
  <advance width="339"/>
  <outline>
    <contour>
      <point x="310" y="641" type="curve" name="hr00"/>
      <point x="325" y="683" smooth="yes"/>
      <point x="338" y="722" smooth="yes"/>
      <point x="338" y="763" type="curve" smooth="yes"/>
      <point x="338" y="778"/>
      <point x="335" y="790"/>
      <point x="331" y="801" type="curve"/>
      <point x="369" y="830"/>
      <point x="412" y="857"/>
      <point x="457" y="871" type="curve"/>
      <point x="455" y="922"/>
      <point x="423" y="944"/>
      <point x="409" y="953" type="curve"/>
      <point x="365" y="935"/>
      <point x="317" y="894"/>
      <point x="279" y="848" type="curve"/>
      <point x="264" y="853" smooth="yes"/>
      <point x="247" y="855" smooth="yes"/>
      <point x="231" y="855" type="curve" smooth="yes"/>
      <point x="196" y="855"/>
      <point x="159" y="847"/>
      <point x="129" y="838" type="curve"/>
      <point x="114" y="796" smooth="yes"/>
      <point x="101" y="757" smooth="yes"/>
      <point x="101" y="716" type="curve" smooth="yes"/>
      <point x="101" y="644" smooth="yes"/>
      <point x="157" y="624" smooth="yes"/>
      <point x="208" y="624" type="curve" smooth="yes"/>
      <point x="243" y="624"/>
      <point x="280" y="632"/>
    </contour>
    <contour>
      <point x="260" y="693" type="curve"/>
      <point x="247" y="690" smooth="yes"/>
      <point x="231" y="688" smooth="yes"/>
      <point x="215" y="688" type="curve" smooth="yes"/>
      <point x="190" y="688" smooth="yes"/>
      <point x="167" y="694" smooth="yes"/>
      <point x="167" y="729" type="curve" smooth="yes"/>
      <point x="167" y="744"/>
      <point x="172" y="766"/>
      <point x="179" y="786" type="curve"/>
      <point x="192" y="789" smooth="yes"/>
      <point x="208" y="791" smooth="yes"/>
      <point x="224" y="791" type="curve" smooth="yes"/>
      <point x="249" y="791" smooth="yes"/>
      <point x="272" y="785" smooth="yes"/>
      <point x="272" y="750" type="curve" smooth="yes"/>
      <point x="272" y="735"/>
      <point x="267" y="713"/>
    </contour>
  </outline>
</glyph>
<glyph name="tilde.case" format="1">
  <advance width="450"/>
  <outline>
    <contour>
      <point x="353" y="906" type="curve" name="hr00"/>
      <point x="391" y="906"/>
      <point x="434" y="929"/>
      <point x="445" y="1008" type="curve"/>
      <point x="442" y="1019"/>
      <point x="432" y="1025"/>
      <point x="419" y="1025" type="curve"/>
      <point x="407" y="1008" smooth="yes"/>
      <point x="384" y="991" smooth="yes"/>
      <point x="351" y="991" type="curve" smooth="yes"/>
      <point x="314" y="991" smooth="yes"/>
      <point x="269" y="1020" smooth="yes"/>
      <point x="220" y="1020" type="curve" smooth="yes"/>
      <point x="182" y="1020"/>
      <point x="139" y="997"/>
      <point x="128" y="918" type="curve"/>
      <point x="131" y="907"/>
      <point x="141" y="901"/>
      <point x="154" y="901" type="curve"/>
      <point x="166" y="918" smooth="yes"/>
      <point x="189" y="935" smooth="yes"/>
      <point x="222" y="935" type="curve" smooth="yes"/>
      <point x="259" y="935" smooth="yes"/>
      <point x="304" y="906" smooth="yes"/>
    </contour>
  </outline>
</glyph>
